<?xml version="1.0" standalone="no"?>
<!DOCTYPE svg PUBLIC "-//W3C//DTD SVG 1.1//EN" "http://www.w3.org/Graphics/SVG/1.1/DTD/svg11.dtd" >
<svg>
<metadata>
Created by FontForge 20090622 at Sat May  9 14:22:14 2015
 By deploy user
Copyright (c) 2012 by . All rights reserved.
</metadata>
<defs>
<font id="CorporateAConOM" horiz-adv-x="197" >
  <font-face 
    font-family="CorporateAConOM"
    font-weight="400"
    font-stretch="normal"
    units-per-em="1000"
    panose-1="2 0 5 6 0 0 0 2 0 4"
    ascent="800"
    descent="-200"
    x-height="472"
    cap-height="292"
    bbox="-144 -241 712 873"
    underline-thickness="38"
    underline-position="-69"
    unicode-range="U+0020-U+FB02"
  />
<missing-glyph horiz-adv-x="210" 
 />
    <glyph glyph-name="fi" unicode="fi" horiz-adv-x="461" 
d="M381 71q0 -32 10 -42t44 -12v-20q-31 4 -50 5t-39 1t-39 -1t-50 -5v20q17 2 27.5 4.5t16.5 8t8 15.5t2 26v316q0 20 -1.5 31.5t-7 17.5t-16.5 8t-29 2v17q35 4 64 10t60 16v-418zM240 472v-37h-89v-364q0 -32 10 -42t45 -12v-20q-32 4 -51 5t-39 1t-38.5 -1t-50.5 -5v20
q17 1 27.5 3.5t16.5 8.5t8 16t2 26v364h-52v31q19 1 30 3t17 9t8 19t3 32q0 75 28 113.5t82 38.5q36 0 58 -20.5t22 -54.5q0 -37 -31 -37q-32 0 -32 29l1 10q2 8 2.5 11.5t0.5 8.5q-1 28 -22 28q-9 0 -18 -5.5t-14 -15.5q-8 -12 -10.5 -30t-2.5 -54v-79h89zM348 661
q20 0 34 -14t14 -34t-14 -34.5t-34 -14.5t-34.5 14.5t-14.5 34.5q0 21 14 34.5t35 13.5z" />
    <glyph glyph-name="fl" unicode="fl" horiz-adv-x="457" 
d="M29 466q19 1 30 3t17 9t8 19t3 32q0 152 111 152q42 0 64 -29q29 3 57.5 9t60.5 17v-607q0 -32 10 -42t44 -12v-20q-32 4 -50.5 5t-38.5 1t-38.5 -1t-50.5 -5v20q17 1 27.5 3.5t16.5 8.5t8 16t2 26v502q0 19 -1 30.5t-5 18t-11.5 9t-19.5 3.5q3 -9 4 -15t1 -12
q0 -38 -32 -38q-14 0 -23 7.5t-9 21.5q0 3 0.5 5.5t2.5 13.5q2 8 2 12q0 26 -23 26q-24 0 -34.5 -23.5t-10.5 -80.5v-79h89v-37h-89v-364q0 -32 10 -42t45 -12v-20q-32 4 -51 5t-39 1t-38.5 -1t-50.5 -5v20q17 1 27.5 3.5t16.5 8.5t8 16t2 26v364h-52v31z" />
    <glyph glyph-name=".notdef" horiz-adv-x="210" 
 />
    <glyph glyph-name="space" unicode=" " horiz-adv-x="210" 
 />
    <glyph glyph-name="numbersign" unicode="#" horiz-adv-x="496" 
d="M430 212h-90l-27 -212h-50l27 212h-116l-27 -212h-50l27 212h-90l7 54h90l18 147h-90l7 54h90l26 200h50l-26 -200h116l25 200h50l-25 -200h90l-7 -54h-90l-18 -147h90zM199 413l-18 -147h116l18 147h-116z" />
    <glyph glyph-name="dollar" unicode="$" horiz-adv-x="428" 
d="M199 -10q-63 6 -112 58l-30 -63h-13v217h19q10 -84 44.5 -130t91.5 -51v285q-46 25 -70.5 41t-39.5 33q-18 21 -28 51t-10 65q0 39 10.5 71t30 55.5t46.5 37.5t61 17v80h27v-80q59 -6 94 -53l24 56h13v-185h-19q-13 74 -40 110t-72 41v-259l13 -8t17 -11
q38 -22 62.5 -41.5t39 -41.5t20.5 -47.5t6 -58.5q0 -40 -11.5 -74t-32.5 -58.5t-50 -39.5t-64 -17v-80h-27v80zM199 645q-39 -7 -62.5 -40.5t-23.5 -82.5q0 -40 18.5 -66.5t67.5 -52.5v242zM226 21q45 7 70 41.5t25 91.5q0 49 -21 79t-74 58v-270z" />
    <glyph glyph-name="percent" unicode="%" horiz-adv-x="496" 
d="M138 673q23 0 41.5 -12t32.5 -33t21.5 -50t7.5 -64t-8 -64.5t-22 -51t-33 -33.5t-42 -12q-48 0 -76.5 45t-28.5 117q0 34 8 63t22.5 50t34 33t42.5 12zM137 649q-25 0 -39 -34t-14 -96q0 -142 52 -142q26 0 39 34.5t13 100.5q0 137 -51 137zM388 667h33l-313 -667h-33z
M362 314q46 0 74.5 -44t28.5 -115q0 -35 -8 -64.5t-22 -51t-33 -33.5t-42 -12t-42 12t-33 33.5t-22 51t-8 64.5t8 64t22.5 50t34 33t42.5 12zM361 290q-26 0 -39.5 -35.5t-13.5 -101.5t13 -100.5t39 -34.5q52 0 52 136t-51 136z" />
    <glyph glyph-name="ampersand" unicode="&#x26;" horiz-adv-x="482" 
d="M353 135q14 26 22 54t8 56q0 19 -8.5 25.5t-33.5 8.5v29q20 -3 32.5 -4t25.5 -1t26 1t33 4v-29q-14 -1 -22.5 -3t-13.5 -6.5t-7 -13.5t-4 -24q-4 -42 -12.5 -71.5t-25.5 -58.5l21 -38q10 -16 16.5 -25t13 -13.5t15.5 -6t24 -2.5v-20l-31.5 3t-19.5 1t-19.5 -1l-30.5 -3
l-30 54q-35 -35 -64 -48.5t-67 -13.5q-37 0 -68 13.5t-53.5 37.5t-35 57t-12.5 72q0 28 6 52.5t19 47.5t35 47t53 51l-30.5 57.5t-17.5 38.5t-8 29t-2 29q0 29 9 53.5t24.5 42.5t37 28.5t46.5 10.5q46 0 75 -34.5t29 -89.5q0 -21 -4 -40.5t-14 -39.5t-26.5 -42.5
t-41.5 -51.5zM190 412q38 43 53 72t15 63q0 35 -16 58.5t-40 23.5q-26 0 -44 -25t-18 -60q0 -28 11 -57t39 -75zM175 315q-41 -37 -58 -71t-17 -80q0 -62 30.5 -100.5t79.5 -38.5q27 0 49.5 12t53.5 43z" />
    <glyph glyph-name="quoteright" unicode="&#x2019;" horiz-adv-x="200" 
d="M50 451q12 14 22.5 31t18.5 34.5t13 34t6 29.5h-3q-3 -1 -7 -1q-17 0 -27.5 13t-10.5 34q0 23 12 37.5t32 14.5q21 0 33 -16.5t12 -44.5q0 -38 -15.5 -78t-47.5 -88h-38z" />
    <glyph glyph-name="parenleft" unicode="(" horiz-adv-x="257" 
d="M207 683q-74 -184 -74 -447q0 -130 18.5 -242t55.5 -205h-26q-60 89 -89 198.5t-29 248.5t29 249t89 198h26z" />
    <glyph glyph-name="parenright" unicode=")" horiz-adv-x="257" 
d="M50 -211q37 93 55.5 205t18.5 242q0 263 -74 447h26q118 -173 118 -447q0 -139 -29 -248.5t-89 -198.5h-26z" />
    <glyph glyph-name="asterisk" unicode="*" horiz-adv-x="428" 
d="M157 368l-34 31l62 92l-91 30l13 49l89 -38l-4 115h44l-4 -115l90 38l13 -49l-92 -30l62 -92l-33 -31l-58 100z" />
    <glyph glyph-name="plus" unicode="+" horiz-adv-x="428" 
d="M48 367h139v175h54v-175h140v-59h-140v-175h-54v175h-139v59z" />
    <glyph glyph-name="comma" unicode="," 
d="M35 -167q13 17 25 38t21.5 43t15.5 43.5t7 38.5h-3q-6 -2 -7 -2q-17 0 -28.5 14t-11.5 36q0 24 13 39.5t34 15.5q23 0 35.5 -17.5t12.5 -48.5q0 -85 -74 -200h-40z" />
    <glyph glyph-name="hyphen" unicode="-" horiz-adv-x="215" 
d="M5 290h205v-45h-205v45z" />
    <glyph glyph-name="period" unicode="." 
d="M101 92q20 0 34 -14t14 -34q0 -21 -14 -35t-34 -14t-34.5 14.5t-14.5 34.5t14.5 34t34.5 14z" />
    <glyph glyph-name="slash" unicode="/" horiz-adv-x="333" 
d="M275 667h44l-339 -861h-44z" />
    <glyph glyph-name="zero" unicode="0" horiz-adv-x="428" 
d="M216 661q59 0 99 -48q15 -18 27 -48.5t21 -68.5t14 -81.5t5 -88.5q0 -78 -14 -148.5t-38 -113.5q-41 -73 -115 -73q-82 0 -125 89t-43 262q0 49 6 94t17.5 82.5t27.5 66.5t36 46q36 30 82 30zM215 632q-45 0 -69 -76t-24 -216q0 -320 94 -320q45 0 68 77t23 223
q0 155 -23.5 233.5t-68.5 78.5z" />
    <glyph glyph-name="one" unicode="1" horiz-adv-x="336" 
d="M216 88q0 -20 2 -32t8.5 -19t19 -10.5t33.5 -5.5v-24q-29 4 -48 5t-51 1t-51 -1t-48 -5v24q21 2 33.5 5.5t19 10.5t8.5 19t2 32v459h-87v24q51 4 87 34t48 78h24v-595z" />
    <glyph glyph-name="two" unicode="2" horiz-adv-x="428" 
d="M355 0h-299v56l106.5 162.5t70 122t38 91t11.5 70.5q0 47 -23.5 75t-61.5 28q-91 0 -105 -139h-26q3 47 10 76.5t23 57.5q17 28 48.5 44.5t69.5 16.5q31 0 57 -11t44.5 -31.5t29 -48t10.5 -60.5q0 -30 -9 -61.5t-34.5 -79t-72 -118.5l-122.5 -181h243z" />
    <glyph glyph-name="three" unicode="3" horiz-adv-x="428" 
d="M78 185q6 -143 105 -143q51 0 81.5 39.5t30.5 105.5q0 38 -11 70.5t-30 48.5q-28 25 -89 25h-6v35q37 2 55.5 8.5t32.5 25.5q14 17 21.5 42.5t7.5 52.5q0 54 -22.5 84.5t-62.5 30.5q-43 0 -67.5 -29.5t-34.5 -93.5h-25q14 174 144 174q64 0 102.5 -42.5t38.5 -114.5
q0 -55 -26 -93.5t-77 -56.5q124 -35 124 -168q0 -42 -12.5 -78t-35 -62t-53.5 -40.5t-67 -14.5q-72 0 -112 51t-40 143h28z" />
    <glyph glyph-name="four" unicode="4" horiz-adv-x="428" 
d="M236 173h-216l217 495h71v-432h82v-63h-82v-188h-72v188zM237 606l-159 -370h159v370z" />
    <glyph glyph-name="five" unicode="5" horiz-adv-x="428" 
d="M145 582l-38 -193q41 56 106 56q35 0 64 -16t49.5 -44.5t32 -68.5t11.5 -89q0 -60 -20.5 -115t-55.5 -85q-40 -36 -96 -36q-63 0 -98 42t-40 124h28q10 -115 93 -115q26 0 46.5 13.5t35.5 37.5t23 58t8 75q0 78 -29 124.5t-77 46.5q-61 0 -95 -75l-31 2l57 328h225
l-7 -70h-192z" />
    <glyph glyph-name="six" unicode="6" horiz-adv-x="428" 
d="M339 693q-25 -29 -50.5 -62.5t-48 -67.5t-41 -66.5t-30.5 -59.5q18 8 30.5 10.5t26.5 2.5q33 0 60.5 -16.5t48 -46.5t31.5 -71.5t11 -90.5q0 -52 -12 -95t-33.5 -74t-51.5 -48t-66 -17q-37 0 -67.5 17t-52.5 48t-34 73.5t-12 93.5q0 66 21.5 130.5t68.5 137.5
q15 24 34 50t40 52l43 52t43 48h41zM213 417q-88 0 -88 -202q0 -95 22.5 -145t64.5 -50t64.5 50.5t22.5 145.5q0 100 -21.5 150.5t-64.5 50.5z" />
    <glyph glyph-name="seven" unicode="7" horiz-adv-x="429" 
d="M315 579h-266v73h330l-231 -652h-65z" />
    <glyph glyph-name="eight" unicode="8" horiz-adv-x="391" 
d="M262 342q92 -41 92 -160q0 -43 -11.5 -78.5t-32 -60.5t-49.5 -38.5t-64 -13.5q-72 0 -114 51t-42 138q0 59 21.5 97.5t68.5 64.5q-41 23 -59.5 58t-18.5 89q0 38 10.5 70t30 54.5t46.5 35t60 12.5q64 0 102.5 -46t38.5 -122q0 -106 -79 -151zM199 326q-38 0 -61.5 -41
t-23.5 -107q0 -73 22.5 -115.5t60.5 -42.5t61 43t23 112t-22 110t-60 41zM199 632q-35 0 -54 -37t-19 -105q0 -63 19 -99t52 -36q32 0 51.5 37t19.5 99q0 69 -17.5 105t-51.5 36z" />
    <glyph glyph-name="nine" unicode="9" horiz-adv-x="428" 
d="M99 -42q24 28 47.5 62t45 68.5t39 67.5t29.5 60q-17 -8 -29.5 -11t-26.5 -3q-31 0 -58 17t-46 47t-30 72t-11 91q0 51 11.5 93.5t32 73.5t49 48t62.5 17q36 0 65.5 -17t50.5 -47.5t32.5 -73.5t11.5 -95q0 -65 -20.5 -129.5t-62.5 -136.5l-33.5 -51.5t-38.5 -54.5
l-40.5 -52.5t-38.5 -45.5h-41zM218 632q-41 0 -62 -48t-21 -141q0 -208 81 -208q42 0 63 48.5t21 142.5q0 100 -21 153t-61 53z" />
    <glyph glyph-name="colon" unicode=":" 
d="M101 424q20 0 34 -14.5t14 -34.5t-14 -34t-34 -14q-21 0 -35 14t-14 35q0 20 14.5 34t34.5 14zM98 89q20 0 34 -14t14 -34q0 -21 -14 -35t-34 -14t-34.5 14.5t-14.5 34.5t14.5 34t34.5 14z" />
    <glyph glyph-name="semicolon" unicode=";" horiz-adv-x="198" 
d="M35 -167q13 17 25 38t21.5 43t15.5 43.5t7 38.5h-3q-6 -2 -7 -2q-17 0 -28.5 14t-11.5 36q0 24 13 39.5t34 15.5q23 0 35.5 -17.5t12.5 -48.5q0 -85 -74 -200h-40zM101 425q20 0 34 -14t14 -34t-14 -34.5t-34 -14.5t-34.5 14.5t-14.5 34.5t14 34t35 14z" />
    <glyph glyph-name="less" unicode="&#x3c;" horiz-adv-x="410" 
d="M370 576l-256 -209l256 -214v-91l-330 276v6l330 266v-34z" />
    <glyph glyph-name="equal" unicode="=" horiz-adv-x="428" 
d="M48 432h333v-59h-333v59zM48 301h333v-59h-333v59z" />
    <glyph glyph-name="greater" unicode="&#x3e;" horiz-adv-x="410" 
d="M40 97l256 209l-256 213v91l330 -275v-6l-330 -267v35z" />
    <glyph glyph-name="question" unicode="?" horiz-adv-x="316" 
d="M117 191q-2 17 -2.5 26t-0.5 27q0 37 7 65t22 53q3 5 11.5 16.5l23.5 31.5q23 31 33 56.5t10 51.5q0 39 -19.5 62.5t-52.5 23.5q-40 0 -63.5 -30.5t-27.5 -87.5h-22q0 85 34.5 130t100.5 45q56 0 89 -39t33 -103q0 -23 -3.5 -41.5t-12.5 -36.5t-23.5 -36t-36.5 -40
q-50 -50 -53 -71q-5 -34 -8 -52.5t-4.5 -27t-1.5 -10.5v-2v-5q0 -2 1 -6h-34zM140 90q20 0 34 -14t14 -34t-14.5 -34.5t-34.5 -14.5t-34 14.5t-14 35.5q0 20 13.5 33.5t35.5 13.5z" />
    <glyph glyph-name="at" unicode="@" horiz-adv-x="579" 
d="M547 137q-10 -21 -19.5 -36.5t-19.5 -28.5t-21.5 -24.5t-26.5 -23.5q-36 -28 -72 -41t-80 -13q-63 0 -116.5 24.5t-93.5 67.5t-62.5 101.5t-22.5 126.5t22.5 126t61.5 101.5t92.5 68t114.5 24.5q67 0 125.5 -29.5t95.5 -82.5q20 -29 30 -63t10 -76q0 -104 -61 -182
q-26 -35 -60.5 -55.5t-64.5 -20.5q-26 0 -40 17.5t-19 55.5q-23 -38 -43 -53t-46 -15q-22 0 -41 10.5t-32.5 29t-21.5 44t-8 55.5q0 44 13.5 83t36.5 69t53 47.5t63 17.5q54 0 66 -70l13 62h55l-57 -263q-3 -14 -3.5 -18t-0.5 -14q0 -14 6.5 -24t17.5 -10q20 0 46.5 21.5
t44.5 51.5q23 37 35 80t12 84q0 44 -17.5 82t-48 66.5t-71.5 45t-87 16.5q-54 0 -100.5 -21.5t-80.5 -59t-53 -89t-19 -111.5q0 -61 19.5 -113t53.5 -90.5t80.5 -60.5t100.5 -22q66 0 114 31.5t87 100.5h40zM300 440q-20 0 -40 -19.5t-35.5 -51.5t-25.5 -71.5t-10 -80.5
q0 -37 15 -63t38 -26q14 0 29 12t25 31q11 20 19.5 44t15.5 49.5t10.5 50.5t3.5 46q0 79 -45 79z" />
    <glyph glyph-name="A" unicode="A" horiz-adv-x="524" 
d="M122 99q-4 -14 -6.5 -27t-2.5 -21q0 -15 11.5 -21.5t40.5 -8.5v-24q-24 3 -40.5 4t-35.5 1t-35 -1t-41 -4v24q18 2 29.5 4.5t19 10t13.5 20.5t13 35l184 597l166 -608q5 -17 10 -28t13 -17t19.5 -9t30.5 -5v-24q-34 5 -54.5 6.5t-42.5 1.5q-23 0 -43.5 -1.5t-54.5 -6.5
v24q26 3 37 9.5t11 20.5q0 11 -5 34l-27 108h-182zM324 224l-76 297l-89 -297h165z" />
    <glyph glyph-name="B" unicode="B" horiz-adv-x="468" 
d="M238 667q87 0 126 -49q17 -23 27 -52t10 -61q0 -107 -94 -149q57 -14 88 -57t31 -108q0 -54 -23.5 -100t-63.5 -69q-20 -12 -45.5 -17t-63.5 -5h-199v24q21 2 33 5.5t19 10.5t9 19t2 31v486q0 20 -2 32t-9 19t-19 10t-33 5v25h207zM210 364q38 0 58.5 10t34.5 34
q20 37 20 94q0 40 -9.5 71t-26.5 45q-23 18 -64 18h-55v-272h42zM168 82q0 -32 9 -41.5t39 -9.5h18q54 0 84 41.5t30 116.5q0 39 -11 72.5t-30 50.5q-24 21 -76 21h-63v-251z" />
    <glyph glyph-name="C" unicode="C" horiz-adv-x="490" 
d="M435 225q-4 -111 -51 -174.5t-125 -63.5q-48 0 -87.5 25t-67 70t-43 108.5t-15.5 141.5q0 79 15.5 143t43.5 109.5t68.5 70t89.5 24.5q40 0 69 -13.5t54 -44.5l27 56h16v-196h-20q-17 85 -49.5 125.5t-86.5 40.5q-72 0 -110 -80.5t-38 -232.5q0 -145 38 -223.5t109 -78.5
q59 0 94 50.5t40 142.5h29z" />
    <glyph glyph-name="D" unicode="D" horiz-adv-x="518" 
d="M27 667h194q72 0 119.5 -26.5t81.5 -86.5q26 -47 40 -103t14 -117q0 -43 -7 -85t-20.5 -79t-32 -67t-41.5 -50q-59 -53 -154 -53h-194v24q21 2 33 5.5t19 10.5t9 19t2 32v485q0 20 -2 32t-9 19t-19 10t-33 5v25zM165 81q0 -33 9 -42.5t39 -9.5q98 0 139 75q46 82 46 231
q0 145 -46 227q-41 74 -134 74h-53v-555z" />
    <glyph glyph-name="E" unicode="E" horiz-adv-x="445" 
d="M383 0h-352v25q21 2 33 5t19 10t9 19t2 32v485q0 20 -2 32t-9 19t-19 10t-33 5v25h348l14 -150h-19q-7 36 -15 59t-18.5 36.5t-24.5 18.5t-35 5h-112v-274h111q26 0 35 15.5t11 66.5h20v-196h-20q-1 25 -4 41t-8.5 25.5t-14.5 13t-23 3.5h-107v-241q0 -35 10.5 -47
t41.5 -12h55q24 0 40.5 6t28.5 20.5t21 39.5t17 64h19z" />
    <glyph glyph-name="F" unicode="F" horiz-adv-x="426" 
d="M172 88q0 -20 2 -32t8.5 -19t18.5 -10.5t33 -5.5v-24q-38 5 -58.5 6.5t-40.5 1.5t-41.5 -1.5t-59.5 -6.5v24q21 2 33.5 5.5t19 10.5t8.5 19t2 32v488q0 20 -2 32t-9 19t-19 10t-33 5v25h348l14 -150h-19q-7 36 -15 59t-18.5 36.5t-25 18.5t-35.5 5h-111v-274h110
q25 0 32 11q7 10 10 27t5 44h20v-196h-20q-2 50 -12.5 66.5t-39.5 16.5h-105v-243z" />
    <glyph glyph-name="G" unicode="G" horiz-adv-x="515" 
d="M415 679h16v-198h-20q-19 88 -52.5 127.5t-87.5 39.5q-74 0 -111.5 -80.5t-37.5 -238.5q0 -153 37.5 -232t109.5 -79q26 0 49 8t52 26v173q0 14 -2 23t-8.5 14.5t-18 8t-30.5 4.5v24q32 -4 51.5 -5t39.5 -1t39.5 1t50.5 5v-24q-18 -2 -28.5 -4.5t-16 -8t-7 -14.5
t-1.5 -25v-165q-52 -37 -91.5 -53t-81.5 -16q-52 0 -93 24t-70 69t-44.5 109t-15.5 144q0 79 15.5 142.5t44 108.5t69 69t90.5 24q74 0 124 -57z" />
    <glyph glyph-name="H" unicode="H" horiz-adv-x="552" 
d="M385 363v216q0 20 -2 32t-8.5 19t-18.5 10.5t-33 5.5v24q33 -4 54 -5.5t46 -1.5q13 0 24 0.5l22 1t24 2l29 3.5v-24q-21 -2 -33.5 -5.5t-19 -10.5t-8.5 -19t-2 -32v-491q0 -20 2 -32t8.5 -19t19 -10.5t33.5 -5.5v-24l-33.5 3.5t-25.5 2.5t-20.5 1.5t-19.5 0.5
q-20 0 -41 -1.5t-59 -6.5v24q21 2 33 5.5t18.5 10.5t8.5 19t2 32v244h-217v-244q0 -20 2 -32t8.5 -19t18.5 -10.5t33 -5.5v-24q-38 5 -59 6.5t-41 1.5q-19 0 -40 -1.5t-59 -6.5v24q21 2 33.5 5.5t19 10.5t8.5 19t2 32v491q0 20 -2 32t-8.5 19t-19 10.5t-33.5 5.5v24
q32 -4 53 -5.5t46 -1.5q13 0 24 0.5l22.5 1t24.5 2l29 3.5v-24q-21 -2 -33 -5.5t-18.5 -10.5t-8.5 -19t-2 -32v-216h217z" />
    <glyph glyph-name="I" unicode="I" horiz-adv-x="261" 
d="M231 -3q-39 5 -59.5 6.5t-39.5 1.5q-20 0 -40.5 -1.5t-60.5 -6.5v24q21 2 33.5 5.5t19 10.5t8.5 19t2 32v491q0 20 -2 32t-9 19t-19 10.5t-33 5.5v24q33 -4 54 -5.5t47 -1.5q25 0 45.5 1.5t53.5 5.5v-24q-20 -2 -32.5 -5.5t-19 -10.5t-8.5 -19t-2 -32v-491q0 -20 2 -32
t8.5 -19t18.5 -10.5t33 -5.5v-24z" />
    <glyph glyph-name="J" unicode="J" horiz-adv-x="259" 
d="M0 -39q6 -1 8 -1h8q44 0 60.5 27t16.5 98v494q0 20 -2 32t-8.5 19t-18.5 10.5t-33 5.5v24q33 -4 54 -5.5t46 -1.5t45.5 1.5t53.5 5.5v-24q-20 -2 -32.5 -5.5t-19 -10.5t-8.5 -19t-2 -32v-459q0 -25 -1 -43.5t-3.5 -33t-7 -26.5t-11.5 -24q-17 -31 -47.5 -47t-69.5 -16
h-16q-3 0 -12 1v30z" />
    <glyph glyph-name="K" unicode="K" horiz-adv-x="520" 
d="M417 86q11 -19 20 -31t18.5 -19t21.5 -10.5t28 -4.5v-24q-35 5 -57.5 6.5t-46.5 1.5q-23 0 -46 -1.5t-58 -6.5v24l13 2q42 5 42 24q0 7 -2 12t-12 24l-140 263l-32 -45v-213q0 -20 2 -32t8 -19t18 -10.5t32 -5.5v-24q-32 5 -52.5 6.5t-41.5 1.5q-20 0 -41.5 -1.5
t-59.5 -6.5v24q21 2 33 5.5t19 10.5t9 19t2 32v491q0 20 -2 32t-9 19.5t-19 10.5t-33 5v24q33 -4 54 -5.5t47 -1.5t45.5 1.5t50.5 5.5v-24q-20 -2 -32.5 -5.5t-19 -10.5t-8.5 -19t-2 -32v-231l179 251q10 14 10 26q0 17 -35 20l-14 1v24q29 -3 46.5 -4t35.5 -1q17 0 35 1
t47 4v-24q-18 -1 -30.5 -4t-23 -9t-20 -15.5t-20.5 -24.5l-135 -189z" />
    <glyph glyph-name="L" unicode="L" horiz-adv-x="414" 
d="M384 0h-353v25q21 2 33 5t19 10t9 19.5t2 31.5v488q0 20 -2 32t-9 19t-19 10.5t-33 5.5v24q33 -4 54 -5.5t47 -1.5q25 0 45.5 1.5t53.5 5.5v-24q-20 -2 -32.5 -5.5t-19 -10.5t-8.5 -19t-2 -32v-486q0 -35 10.5 -47t39.5 -12h56q24 0 41 5.5t29 20t21 39t17 62.5h19z" />
    <glyph glyph-name="M" unicode="M" horiz-adv-x="667" 
d="M126 88v-9q0 -16 2.5 -26.5t10 -16.5t20 -9t33.5 -5v-25q-29 3 -46 4t-34 1t-33.5 -1t-48.5 -4v25h9q18 2 28.5 5.5t16.5 10t8.5 18.5t3.5 32l17 491v6q0 17 -2.5 28t-10 17.5t-20 10t-33.5 4.5v25q23 -2 37.5 -3t29.5 -1q22 0 38.5 1t39.5 4l147 -498l147 498
q27 -3 44 -4t34 -1q14 0 27.5 1t36.5 3v-24q-21 -2 -34 -5.5t-20 -10.5t-9.5 -19t-2.5 -32l8 -491q1 -20 3.5 -32t9 -19t19.5 -10t34 -5v-25q-38 5 -59.5 6.5t-41.5 1.5t-41 -1.5t-60 -6.5v25q21 1 34 4t20 10t9.5 19t2.5 31v2l-8 506l-129 -435l-40 -141h-12l-41 145
l-127 432z" />
    <glyph glyph-name="N" unicode="N" horiz-adv-x="548" 
d="M442 -20l-9 17.5l-8 15.5l-9 18.5t-14 27.5l-21.5 40l-21.5 40l-234 438v-489q0 -20 2 -32t9 -19t19.5 -10.5t34.5 -5.5v-24q-18 1 -30 2t-21 2t-16 1h-14q-14 0 -30 -1t-48 -4v24q22 2 35 5.5t19.5 10.5t8.5 19t2 32v528q-11 15 -25 21.5t-41 8.5v24q19 -2 33 -2.5
t35 -0.5q20 0 31 0.5t28 2.5l268 -500v409q0 20 -2 32t-9 19t-19.5 10.5t-33.5 5.5v24q17 -1 29.5 -2t21.5 -2t16 -1h14q14 0 30 1t48 4v-24q-21 -2 -34 -5.5t-20 -10.5t-9 -19t-2 -32v-599h-13z" />
    <glyph glyph-name="O" unicode="O" horiz-adv-x="516" 
d="M257 680q43 0 81.5 -20.5t64.5 -57.5q35 -51 52 -118t17 -161q0 -46 -7.5 -91t-20.5 -83.5t-31.5 -69t-40.5 -49.5q-49 -42 -113 -42q-41 0 -77.5 17.5t-63.5 51.5q-34 42 -54.5 116.5t-20.5 158.5q0 79 15 143.5t43 110t67.5 70t88.5 24.5zM258 652q-31 0 -56.5 -21.5
t-43 -62t-27 -99t-9.5 -131.5q0 -154 36 -238t102 -84q63 0 97.5 82t34.5 234q0 88 -12 155.5t-34 104.5q-35 60 -88 60z" />
    <glyph glyph-name="P" unicode="P" horiz-adv-x="446" 
d="M169 88q0 -20 2 -32t8.5 -19t18.5 -10.5t33 -5.5v-24q-38 5 -59 6.5t-40 1.5q-20 0 -40.5 -1.5t-60.5 -6.5v24q21 2 33.5 5.5t19 10.5t8.5 19t2 32v488q0 20 -2 32t-9 19t-19 10t-33 5v25h205q98 0 141 -53q20 -25 31 -59.5t11 -70.5q0 -85 -46.5 -134t-127.5 -49h-76
v-213zM221 332q37 0 60.5 12t39.5 39q23 41 23 104q0 41 -11.5 75.5t-30.5 51.5q-27 22 -76 22h-57v-304h52z" />
    <glyph glyph-name="Q" unicode="Q" horiz-adv-x="514" 
d="M497 -11q-17 0 -30.5 2.5t-26 9t-25 18t-28.5 28.5q-52 -59 -128 -59q-42 0 -78.5 18t-62.5 50q-16 20 -30 50.5t-24 67t-15.5 77t-5.5 81.5q0 80 15 144t43 109.5t67.5 70t88.5 24.5q48 0 87.5 -24.5t67.5 -70t43.5 -110t15.5 -143.5q0 -62 -10.5 -115.5t-31.5 -103.5
q24 -51 46 -74t45 -24v-26h-23zM258 652q-64 0 -100 -83t-36 -230q0 -154 35.5 -238.5t99.5 -84.5q56 0 88 58q23 40 35 106.5t12 149.5q0 154 -35 238t-99 84z" />
    <glyph glyph-name="R" unicode="R" horiz-adv-x="487" 
d="M168 88q0 -19 2 -31.5t8.5 -19.5t19 -10.5t32.5 -5.5v-24q-38 5 -58 6.5t-40 1.5t-41 -1.5t-60 -6.5v24q21 2 33.5 5.5t19 10.5t8.5 19t2 32v488q0 20 -2 32t-9 19t-19 10t-33 5v25h209q94 0 137 -54q18 -23 28.5 -55t10.5 -66q0 -135 -134 -169q14 -4 24.5 -10.5t19 -16
t16 -24.5t14.5 -36l53 -157q6 -18 11.5 -29t12.5 -17t16.5 -8.5t24.5 -3.5v-24q-18 2 -30 2.5t-26 0.5q-13 0 -25 -0.5t-30 -2.5q-6 15 -11.5 30.5l-10.5 30.5l-59 179q-15 47 -33 63.5t-53 16.5h-28v-229zM226 348q58 0 85 35q14 18 22 49t8 63q0 141 -111 141h-61v-288h57
z" />
    <glyph glyph-name="S" unicode="S" horiz-adv-x="425" 
d="M72 202q11 -89 46.5 -134.5t92.5 -45.5q48 0 78.5 36.5t30.5 93.5q0 25 -5 44.5t-18 36.5t-34 34t-53 36q-45 27 -74 49t-46 44.5t-23.5 47.5t-6.5 58q0 39 11.5 71t31.5 55t48.5 35.5t62.5 12.5q33 0 58 -12.5t46 -38.5l23 55h15v-184h-20q-14 78 -42 114t-74 36
q-21 0 -39 -9t-31.5 -25t-21 -37.5t-7.5 -46.5q0 -22 5 -39t18.5 -33t37.5 -34t63 -42q41 -25 67 -47t42 -45t22 -49t6 -61q0 -41 -12 -75.5t-33 -59t-50.5 -38.5t-65.5 -14q-37 0 -67 13.5t-59 43.5l-28 -63h-15v217h20z" />
    <glyph glyph-name="T" unicode="T" horiz-adv-x="433" 
d="M394 514q-9 38 -17 61.5t-18.5 37t-24.5 18.5t-34 5h-46v-548q0 -20 2 -32t8.5 -19t18.5 -10.5t33 -5.5v-24q-37 5 -58 6.5t-41 1.5t-41.5 -1.5t-59.5 -6.5v24q21 2 33.5 5.5t19 10.5t8.5 19t2 32v548h-41q-21 0 -35.5 -5t-25.5 -18.5t-19.5 -37.5t-17.5 -61h-20l22 153
h350l22 -153h-20z" />
    <glyph glyph-name="U" unicode="U" horiz-adv-x="542" 
d="M357 670q17 -1 29.5 -2t21.5 -2t16 -1h14q14 0 30 1t47 4v-24q-21 -2 -33.5 -5.5t-19.5 -10.5t-9 -19t-2 -32v-375q0 -46 -6 -76t-22 -57q-23 -40 -61.5 -61t-89.5 -21q-52 0 -93 22t-64 64q-14 25 -20 52.5t-6 72.5v379q0 20 -2 32t-9 19t-19 10.5t-33 5.5v24
q33 -4 54 -5.5t47 -1.5q25 0 45.5 1.5t53.5 5.5v-24q-20 -2 -32.5 -5.5t-19 -10.5t-8.5 -19t-2 -32v-387q0 -41 3.5 -63.5t12.5 -39.5q15 -27 43 -41.5t64 -14.5q31 0 58 11.5t44 31.5q15 17 23.5 49.5t8.5 72.5v381q0 20 -2 32t-9 19t-19.5 10.5t-33.5 5.5v24z" />
    <glyph glyph-name="V" unicode="V" horiz-adv-x="523" 
d="M404 571q4 15 6.5 27.5t2.5 17.5q0 14 -12 21t-41 9v24q22 -3 37 -4t36 -1q22 0 38 1t39 4v-24q-32 -3 -46.5 -15t-24.5 -44l-170 -599h-19l-165 596q-5 18 -10 29.5t-12.5 18t-19.5 9.5t-30 5v24q29 -4 48.5 -5.5t48.5 -1.5t48.5 1.5t48.5 5.5v-24q-50 -6 -50 -29
q0 -10 6 -34l119 -449z" />
    <glyph glyph-name="W" unicode="W" horiz-adv-x="712" 
d="M215 -12l-130 599q-4 17 -9 27.5t-12 17.5t-17.5 10t-26.5 4v24q27 -5 46.5 -6t48.5 -1q14 0 25.5 0.5l22 1t22 2t24.5 3.5v-24q-30 -4 -41.5 -10t-11.5 -20q0 -5 1 -13t3 -17l87 -410l122 506h18l120 -507l89 408q5 23 5 35q0 14 -10.5 20t-39.5 8v24q21 -3 36 -4t35 -1
q21 0 36 1t36 4v-24q-16 -1 -27 -4t-18 -9t-11.5 -15.5t-8.5 -24.5l-136 -604h-16l-123 523l-123 -524h-16z" />
    <glyph glyph-name="X" unicode="X" horiz-adv-x="507" 
d="M407 86q9 -21 16 -33t15.5 -18.5t20 -9t30.5 -4.5v-24q-33 4 -55 5.5t-48 1.5t-48 -1.5t-55 -5.5v24l14 2q42 5 41 25q-1 9 -4 21t-10 28l-85 197l-102 -205q-16 -30 -16 -44q0 -11 11 -16.5t40 -7.5v-24q-29 3 -45.5 4t-33.5 1q-16 0 -33 -1t-46 -4v24q16 1 28 4.5
t22.5 12t20.5 23t22 36.5l117 233l-110 255q-7 18 -13 29t-14.5 17.5t-20 9.5t-29.5 5v24l28.5 -3.5t24 -2l23 -1t24.5 -0.5q26 0 47 1.5t53 5.5v-24q-31 -4 -42.5 -10t-11.5 -17t9 -31l75 -174l85 169q13 26 13 39q0 11 -11 16.5t-39 7.5v24q23 -3 39 -4t39 -1t39 1t39 4
v-24q-17 -2 -29 -5t-21 -8.5t-15.5 -15t-14.5 -23.5l-109 -216z" />
    <glyph glyph-name="Y" unicode="Y" horiz-adv-x="483" 
d="M89 591q-6 15 -12.5 25t-14.5 16t-19 9t-27 5v24q31 -4 52.5 -5.5t47.5 -1.5t47.5 1.5t52.5 5.5v-24q-32 -3 -43.5 -8.5t-11.5 -17.5q0 -13 7 -32l101 -256l98 257q8 21 8 31q0 12 -11.5 17.5t-42.5 8.5v24q26 -3 42 -4t33 -1t32.5 1t41.5 4v-24q-17 -3 -28 -6t-19 -9
t-13.5 -15t-11.5 -24l-117 -301v-203q0 -20 2 -32t8.5 -19t18.5 -10.5t33 -5.5v-24l-33.5 3.5t-26 2.5t-21 1.5t-19.5 0.5q-19 0 -39.5 -1.5t-60.5 -6.5v24q21 2 33.5 5.5t19 10.5t8.5 19t2 32v203z" />
    <glyph glyph-name="Z" unicode="Z" horiz-adv-x="440" 
d="M316 636h-130q-22 0 -38.5 -5.5t-28 -19t-20 -36t-16.5 -56.5h-21l21 148h326l-286 -636h147q30 0 45.5 5t26.5 18q8 10 14 20t11.5 22.5t11 28.5t11.5 37h20l-23 -162h-357z" />
    <glyph glyph-name="bracketleft" unicode="[" horiz-adv-x="257" 
d="M154 637v-801h76v-30h-139v861h139v-30h-76z" />
    <glyph glyph-name="backslash" unicode="\" horiz-adv-x="333" 
d="M352 -194l-339 861h44l339 -861h-44z" />
    <glyph glyph-name="bracketright" unicode="]" horiz-adv-x="257" 
d="M103 -164v801h-76v30h139v-861h-139v30h76z" />
    <glyph glyph-name="asciicircum" unicode="^" horiz-adv-x="410" 
d="M397 287l-167 320l-171 -320h-73l220 413h5l213 -413h-27z" />
    <glyph glyph-name="underscore" unicode="_" horiz-adv-x="410" 
d="M386 -88v-38h-361v38h361z" />
    <glyph glyph-name="quoteleft" unicode="&#x2018;" horiz-adv-x="200" 
d="M150 671q-11 -12 -21 -28.5t-18.5 -34t-14 -35t-6.5 -31.5h3q8 2 7 2q16 1 27 -13t11 -35q0 -23 -12 -37t-32 -14q-21 0 -33 16t-12 45q0 38 16 80t47 85h38z" />
    <glyph glyph-name="a" unicode="a" horiz-adv-x="383" 
d="M361 0q-16 -4 -26 -5.5t-21 -1.5q-29 0 -44 19.5t-19 62.5q-20 -45 -43.5 -64.5t-60.5 -19.5q-50 0 -80 35.5t-30 92.5q0 78 59 119q32 23 66 36t79 20v71q0 89 -60 89q-27 0 -45 -16t-16 -39q1 -8 1 -15v-14q0 -42 -35 -42q-29 0 -29 34q0 24 10.5 46t28.5 38t41.5 25.5
t50.5 9.5q36 0 64.5 -16.5t42.5 -45.5q9 -17 12.5 -39.5t3.5 -58.5v-209q0 -51 6.5 -70t23.5 -19q5 0 8.5 0.5t11.5 2.5v-26zM241 268q-71 -16 -101.5 -49t-30.5 -93q0 -44 15.5 -68t44.5 -24q38 0 55 35.5t17 112.5v86z" />
    <glyph glyph-name="b" unicode="b" horiz-adv-x="415" 
d="M67 575q0 20 -1.5 31.5t-7 17.5t-16 8t-28.5 2v18q35 4 64 10t59 16v-271q19 40 41.5 57t54.5 17t59 -17.5t46 -50t29.5 -77.5t10.5 -100q0 -54 -11 -99.5t-30.5 -77.5t-47.5 -50t-61 -18q-37 0 -61 20.5t-41 65.5l-37 -88h-22v586zM224 453q-43 0 -65.5 -55t-22.5 -158
q0 -66 6 -108.5t19 -67.5q24 -45 60 -45q83 0 83 218q0 111 -19.5 163.5t-60.5 52.5z" />
    <glyph glyph-name="c" unicode="c" horiz-adv-x="359" 
d="M313 328h-19q-19 129 -88 129q-44 0 -68 -59.5t-24 -167.5q0 -103 22.5 -155.5t67.5 -52.5q71 0 85 132h32q-8 -81 -40 -123t-86 -42q-35 0 -64 17.5t-49.5 49.5t-32 77t-11.5 100q0 56 11.5 102t32.5 79t50 51.5t64 18.5q27 0 46 -9.5t36 -32.5l20 51h15v-165z" />
    <glyph glyph-name="d" unicode="d" horiz-adv-x="420" 
d="M401 16q-39 -6 -64.5 -12t-45.5 -14q-5 22 -7 39t-4 39q-32 -80 -97 -80q-32 0 -59 18t-46.5 50t-30 77.5t-10.5 99.5t10.5 99t29.5 77.5t45.5 50.5t58.5 18t53 -16.5t39 -55.5v169q0 20 -1.5 31.5t-7.5 17.5t-16.5 8t-28.5 2v18q35 4 64.5 10t59.5 16v-577q0 -21 2 -34
t7 -20.5t15 -10t26 -3.5h8v-17zM189 450q-78 0 -78 -216q0 -218 81 -218q39 0 60.5 52t21.5 148q0 234 -85 234z" />
    <glyph glyph-name="e" unicode="e" horiz-adv-x="377" 
d="M340 154q-8 -78 -44.5 -121t-96.5 -43q-37 0 -67 17t-51 49t-32.5 77.5t-11.5 102.5q0 55 11.5 100.5t32 77.5t49 50t63.5 18q69 0 106.5 -60.5t40.5 -174.5h-231q1 -33 2.5 -57.5t4 -43t6 -33.5t9.5 -30q11 -29 31 -44.5t46 -15.5q42 0 68 34t33 97h31zM270 283
q-6 173 -78 173q-69 0 -81 -173h159z" />
    <glyph glyph-name="f" unicode="f" horiz-adv-x="247" 
d="M240 472v-37h-89v-364q0 -32 10 -42t45 -12v-20q-32 4 -51 5t-39 1t-38.5 -1t-50.5 -5v20q17 1 27.5 3.5t16.5 8.5t8 16t2 26v364h-52v31q19 1 30 3t17 9t8 19t3 32q0 75 28 113.5t82 38.5q36 0 58 -20.5t22 -54.5q0 -37 -31 -37q-32 0 -32 29l1 10q2 8 2.5 11.5t0.5 8.5
q-1 28 -22 28q-9 0 -18 -5.5t-14 -15.5q-8 -12 -10.5 -30t-2.5 -54v-79h89z" />
    <glyph glyph-name="g" unicode="g" horiz-adv-x="404" 
d="M388 455v-40l-76 3q10 -20 14.5 -40t4.5 -44q0 -76 -47 -118q-14 -13 -28.5 -20.5t-47.5 -18.5l-23 -8q-41 -14 -54 -23t-13 -24q0 -18 15 -25t55 -8q14 -1 30 -3t31.5 -4.5t29 -6t21.5 -7.5q34 -14 52 -43.5t18 -70.5q0 -34 -12.5 -62t-35.5 -48t-55 -31t-71 -11
q-37 0 -68 10t-53 28t-34 43.5t-12 56.5q0 38 18.5 64t58.5 43q-22 12 -31 25t-9 33q0 55 84 82q-44 17 -68 53.5t-24 88.5q0 72 37.5 112t104.5 40q25 0 43.5 -6t38.5 -20h106zM196 456q-33 0 -52.5 -32.5t-19.5 -88.5q0 -60 19 -94.5t52 -34.5t51 33.5t18 95.5
q0 58 -18 89.5t-50 31.5zM188 17q-60 0 -92 -22t-32 -63q0 -21 10 -39.5t27 -31.5t41 -20.5t52 -7.5q57 0 90 25.5t33 70.5q0 41 -26 62q-15 11 -44 18.5t-59 7.5z" />
    <glyph glyph-name="h" unicode="h" horiz-adv-x="442" 
d="M23 652q33 4 62 10t61 16v-264q39 67 103 67q30 0 55 -15t41 -42q20 -38 20 -108v-245q0 -32 10 -42t44 -12v-20q-31 4 -49 5t-38 1t-38.5 -1t-48.5 -5v20q30 2 40 12t10 40v251q0 33 -3 52t-11 33q-17 31 -54 31q-20 0 -38 -11t-28 -29q-8 -16 -11.5 -33.5t-3.5 -46.5
v-247q0 -29 10 -39.5t39 -12.5v-20q-30 4 -48 5t-38 1t-38 -1t-49 -5v20q17 1 27.5 3.5t16.5 8.5t8 16t2 26v504q0 20 -1.5 31.5t-7 17.5t-16 8t-28.5 2v18z" />
    <glyph glyph-name="i" unicode="i" horiz-adv-x="233" 
d="M153 71q0 -32 10 -42t45 -12v-20q-33 4 -51.5 5t-38.5 1q-19 0 -38 -1t-51 -5v20q17 1 27.5 3.5t16.5 8.5t8 16t2 26v316q0 20 -1.5 31.5t-7 17.5t-16 8t-28.5 2v17q35 4 64 10t59 16v-418zM116 660q20 0 34 -14t14 -34t-14.5 -34.5t-34.5 -14.5t-34 14t-14 35
q0 20 14 34t35 14z" />
    <glyph glyph-name="j" unicode="j" horiz-adv-x="231" 
d="M28 463q35 4 64.5 10t59.5 16v-476q0 -68 -13 -109.5t-43 -67.5q-23 -20 -48 -29t-59 -10v26q25 5 42.5 16t29 28.5t16.5 43.5t5 61v415q0 19 -1.5 30.5t-7.5 17.5t-16.5 8.5t-28.5 2.5v17zM115 663q20 0 34 -14t14 -34q0 -21 -14 -35t-34 -14q-21 0 -35 14t-14 35
q0 20 14.5 34t34.5 14z" />
    <glyph glyph-name="k" unicode="k" horiz-adv-x="437" 
d="M352 71q9 -16 15.5 -26.5t14.5 -16.5t17.5 -8t24.5 -3v-20l-34 3t-22 1t-22.5 -1t-32.5 -3l-116 254l-52 -68v-112q0 -31 10 -41.5t44 -12.5v-20q-32 4 -50.5 5t-38.5 1t-38 -1t-50 -5v20q17 1 27.5 3.5t16.5 8.5t8 16t2 26v504q0 20 -1.5 31.5t-7 17.5t-16 8t-28.5 2v18
q33 4 62 10t61 16v-446l124 171q14 19 14 28q0 21 -44 24v20q24 -3 40 -4t36 -1t37 1t43 4v-20q-15 -1 -26 -3.5t-19.5 -8t-16.5 -13.5t-18 -22l-77 -103z" />
    <glyph glyph-name="l" unicode="l" horiz-adv-x="228" 
d="M151 71q0 -32 10 -42t45 -12v-20q-33 4 -51.5 5t-38.5 1q-19 0 -38 -1t-51 -5v20q17 1 27.5 3.5t16.5 8.5t8 16t2 26v505q0 19 -1.5 30.5t-7 17.5t-16 8t-28.5 2v18q64 7 123 26v-607z" />
    <glyph glyph-name="m" unicode="m" horiz-adv-x="647" 
d="M29 460q36 6 61 13t46 17q4 -23 5.5 -42l3.5 -43q22 41 47 58.5t61 17.5t59 -18.5t37 -59.5q22 42 47.5 60t63.5 18q57 0 83.5 -36t26.5 -116v-258q0 -32 10 -42t45 -12v-20q-31 4 -49.5 5t-38.5 1t-38.5 -1t-48.5 -5v20q30 2 40 12t10 40v263q0 57 -14 80t-49 23
q-37 0 -56.5 -29t-19.5 -83v-254q0 -30 10 -40t40 -12v-20q-32 4 -50 5t-35 1t-35 -1t-49 -5v20q29 2 39 12t10 40v261q0 57 -14 81t-47 24q-19 0 -36 -10t-26 -27t-12.5 -35.5t-3.5 -50.5v-243q0 -30 10 -40t40 -12v-20q-30 4 -48.5 5t-38.5 1t-38 -1t-49 -5v20
q17 1 27.5 3.5t16.5 8.5t8 16t2 26v309q0 22 -1 34t-5.5 18t-13 8t-23.5 2h-10v18z" />
    <glyph glyph-name="n" unicode="n" horiz-adv-x="448" 
d="M30 460q37 7 60.5 13t46.5 17q4 -19 5.5 -37t3.5 -50q21 41 47.5 59.5t61.5 18.5q31 0 56 -15t41 -42q20 -38 20 -108v-245q0 -32 10 -42t44 -12v-20q-31 4 -49 5t-38 1t-38.5 -1t-48.5 -5v20q30 2 40 12t10 40v251q0 33 -3 52t-11 33q-17 31 -54 31q-20 0 -38 -11
t-28 -29q-8 -16 -11.5 -33t-3.5 -47v-247q0 -29 10 -39.5t39 -12.5v-20q-30 4 -48 5t-38 1t-38 -1t-49 -5v20q17 1 27.5 3.5t16.5 8.5t8 16t2 26v309q0 21 -1 33t-5.5 18.5t-13 8.5t-23.5 2h-10v18z" />
    <glyph glyph-name="o" unicode="o" horiz-adv-x="361" 
d="M186 484q57 0 96 -49q26 -32 41 -85.5t15 -112.5q0 -54 -11.5 -99.5t-32.5 -78.5t-49.5 -51.5t-63.5 -18.5q-34 0 -62.5 18t-49 50.5t-32 78t-11.5 100.5t11.5 100.5t32.5 78.5t50.5 51t65.5 18zM183 458q-41 0 -62 -57t-21 -167q0 -219 81 -219q41 0 62 56t21 163
q0 224 -81 224z" />
    <glyph glyph-name="p" unicode="p" horiz-adv-x="425" 
d="M22 465q34 3 58 7t48 11q2 -9 3.5 -17t3 -17t2.5 -21t2 -29q19 43 42.5 62.5t57.5 19.5q33 0 60 -18t47 -50.5t31 -77.5t11 -99t-10.5 -99t-30 -77.5t-46.5 -50.5t-60 -18q-32 0 -53.5 16t-41.5 54v-187q0 -32 10 -42t44 -12v-20q-35 4 -54 5t-37 1t-36.5 -1t-50.5 -5v20
q17 1 27.5 3.5t16.5 8.5t8 16t2 26v513q0 45 -14 53q-5 4 -13 5t-27 2v18zM232 453q-42 0 -64.5 -54.5t-22.5 -157.5q0 -222 88 -222q81 0 81 214q0 220 -82 220z" />
    <glyph glyph-name="q" unicode="q" horiz-adv-x="425" 
d="M392 447q-26 -2 -34.5 -13.5t-8.5 -46.5v-513q0 -32 9.5 -42t43.5 -12v-20q-31 4 -49 5t-37 1q-18 0 -37 -1t-54 -5v20q17 1 27.5 3.5t16.5 8.5t8 16t2 26v187q-20 -38 -41.5 -54t-53.5 -16q-33 0 -60 18t-46.5 50.5t-30 77.5t-10.5 99t11 99t31 77.5t47 50.5t60 18
q34 0 58 -19.5t42 -62.5q2 32 4 49t7 35q25 -7 49 -11t57 -7v-18h-11zM194 453q-83 0 -83 -219q0 -215 82 -215q87 0 87 221q0 104 -22 158.5t-64 54.5z" />
    <glyph glyph-name="r" unicode="r" horiz-adv-x="313" 
d="M207 -3q-32 4 -51 5t-39 1t-38.5 -1t-50.5 -5v20q17 1 27.5 3.5t16.5 8.5t8 16t2 26v313q0 23 -1 33t-4 16q-5 8 -16 11.5t-25 2.5q-4 0 -7 -1v18q22 3 38 6t28 5.5t21.5 5.5t18.5 7q4 -25 5.5 -47t3.5 -48q11 44 36 67.5t57 23.5q30 0 49 -21.5t19 -56.5
q0 -24 -10 -37.5t-28 -13.5q-15 0 -24.5 9t-9.5 24q0 5 0.5 9t2.5 12q2 10 2 11q0 9 -6.5 15.5t-14.5 6.5q-30 0 -47.5 -43t-17.5 -119v-209q0 -32 11 -42.5t44 -11.5v-20z" />
    <glyph glyph-name="s" unicode="s" horiz-adv-x="351" 
d="M48 155h19q11 -69 35 -101.5t66 -32.5q33 0 56.5 25.5t23.5 61.5q0 29 -16.5 50t-56.5 42q-36 19 -59.5 35.5t-37.5 33t-19.5 35.5t-5.5 43q0 60 33.5 97t89.5 37q23 0 42 -7t37 -24l13 40h15v-155h-19q-5 61 -25 89.5t-57 28.5q-31 0 -51.5 -23t-20.5 -58
q0 -28 16.5 -48t56.5 -41q36 -19 60 -35t38.5 -33t20 -36t5.5 -43q0 -64 -36.5 -104.5t-94.5 -40.5q-28 0 -50.5 9.5t-44.5 31.5l-18 -44h-15v167z" />
    <glyph glyph-name="t" unicode="t" horiz-adv-x="258" 
d="M244 20q-23 -16 -40.5 -22.5t-36.5 -6.5q-26 0 -45 10.5t-30 30.5q-10 17 -14 40.5t-4 63.5v14l3 285h-49v31q38 1 62 37t35 112h22v-143h90v-37h-90v-294q0 -23 0.5 -38t1.5 -24.5t3.5 -16t5.5 -12.5q11 -20 35 -20q20 0 51 20v-30z" />
    <glyph glyph-name="u" unicode="u" horiz-adv-x="440" 
d="M18 463q33 4 62 10t61 16v-338q0 -62 16 -88t54 -26q80 0 80 127v223q0 37 -9.5 49t-38.5 10h-6v17q34 4 63 10t61 16v-400q0 -18 1.5 -28.5t6 -16.5t13.5 -8t24 -2h10v-18q-36 -5 -61 -10.5t-50 -15.5q-4 28 -5 42t-1 33v13q-19 -45 -45 -65.5t-65 -20.5
q-118 0 -118 160v235q0 37 -9 49t-38 10h-6v17z" />
    <glyph glyph-name="v" unicode="v" horiz-adv-x="398" 
d="M188 -12l-124 422q-4 14 -8.5 22t-10.5 13t-16 7t-25 3v20q59 -6 89 -6q16 0 32.5 1t51.5 5v-20q-43 0 -43 -22q0 -7 5 -24l80 -292l85 289q6 21 6 30q0 19 -40 19v20q20 -2 35.5 -3t26.5 -1q10 0 25.5 1t35.5 3v-20q-28 -2 -39 -11t-20 -38l-125 -418h-21z" />
    <glyph glyph-name="w" unicode="w" horiz-adv-x="576" 
d="M193 -12h-23l-102 416q-4 16 -8 25.5t-10 14.5t-15 7.5t-23 3.5v20q28 -3 46 -4t38 -1t37.5 1t45.5 4v-20q-21 0 -33.5 -5.5t-12.5 -16.5q0 -3 5 -25l65 -275l95 352h24l93 -354l67 276q2 8 3 14.5t1 11.5q0 22 -43 22v20q24 -2 38 -3t28 -1t26.5 1t32.5 3v-20
q-26 -2 -38 -12t-20 -36l-103 -419h-23l-95 362z" />
    <glyph glyph-name="x" unicode="x" horiz-adv-x="418" 
d="M279 408q10 20 10 28q0 18 -40 19v20q23 -2 37 -3t28 -1t28.5 1t37.5 3v-20q-28 -2 -40.5 -10t-27.5 -33l-78 -137l95 -206q8 -16 14.5 -26.5t14 -16t17.5 -7.5t25 -2v-20q-33 4 -52 5t-37 1t-36.5 -1t-50.5 -5v20q41 3 41 20q0 9 -8 27l-64 138l-73 -129
q-13 -24 -13 -36q0 -9 9.5 -13.5t32.5 -6.5v-20q-23 2 -37 3t-29 1q-14 0 -28 -1t-38 -3v20q14 1 23 3.5t17 8.5t16 17t18 29l88 157l-84 181q-12 24 -24.5 32.5t-38.5 9.5v20q28 -3 46 -4t39 -1q20 0 38 1t45 4v-20q-37 -3 -37 -18q0 -8 8 -26l49 -107z" />
    <glyph glyph-name="y" unicode="y" horiz-adv-x="409" 
d="M74 408q-4 14 -8.5 22.5t-11.5 13.5t-16.5 7.5t-24.5 3.5v20q27 -3 45.5 -4t39.5 -1t39 1t45 4v-20q-23 -2 -32.5 -6.5t-9.5 -13.5q0 -8 6 -28l79 -283l84 279l5 18.5t2 12.5q0 11 -10 15.5t-36 5.5v20q18 -2 31 -3t30 -1t32 1t38 3v-20q-27 -4 -40 -14.5t-21 -34.5
l-151 -489q-22 -73 -59 -97q-32 -19 -57 -16q-5 1 -6 1h-5v50h8q36 0 58.5 20t37.5 66l25 75z" />
    <glyph glyph-name="z" unicode="z" horiz-adv-x="368" 
d="M246 446h-85q-38 0 -58 -22.5t-35 -81.5h-18l18 130h266l-215 -446h91q21 0 35 4.5t25 17.5t20.5 36t19.5 60h18l-21 -144h-275z" />
    <glyph glyph-name="braceleft" unicode="{" horiz-adv-x="257" 
d="M197 -211q-54 0 -76 25.5t-22 87.5v263q0 35 -10 52.5t-37 30.5q28 13 37.5 30t9.5 53v240q0 62 21.5 87t76.5 25h14q-26 -8 -38 -29.5t-12 -59.5v-244q0 -21 -2.5 -36.5t-8.5 -26.5t-16.5 -20.5t-26.5 -18.5q16 -9 26.5 -18.5t16.5 -21t8.5 -26.5t2.5 -36v-268
q0 -38 12 -59t38 -30h-14z" />
    <glyph glyph-name="bar" unicode="|" horiz-adv-x="410" 
d="M224 667v-834h-38v834h38z" />
    <glyph glyph-name="braceright" unicode="}" horiz-adv-x="257" 
d="M61 683q54 0 75.5 -25t21.5 -87v-240q0 -36 10 -53.5t38 -29.5q-28 -12 -38 -29.5t-10 -53.5v-263q0 -63 -21.5 -88t-75.5 -25h-15q27 9 39 30t12 59v268q0 21 2.5 36t8.5 26.5t16 21t26 18.5q-16 9 -26 18.5t-16 20.5t-8.5 26.5t-2.5 36.5v244q0 38 -12 59t-39 30h15z
" />
    <glyph glyph-name="asciitilde" unicode="~" horiz-adv-x="543" 
d="M441 362q-19 -41 -49 -67t-59 -26q-11 0 -22 3t-30 11q-36 16 -56.5 22t-37.5 6q-21 0 -35.5 -11.5t-38.5 -47.5l-11 8q23 46 51 70.5t57 24.5t76 -22q20 -8 37 -13t30 -5q40 0 78 56z" />
    <glyph glyph-name="exclamdown" unicode="&#xa1;" horiz-adv-x="212" 
d="M141 -182h-69l14 454h40zM105 469q20 0 34 -14t14 -34t-14 -34.5t-34 -14.5t-34.5 14.5t-14.5 34.5t14.5 34t34.5 14z" />
    <glyph glyph-name="cent" unicode="&#xa2;" horiz-adv-x="430" 
d="M223 87q-34 3 -62 21.5t-48 50.5t-30.5 76t-10.5 97q0 66 17.5 120.5t49.5 87.5q18 18 37.5 27.5t46.5 11.5v75h27v-76q36 -7 61 -40l19 50h15v-164h-19q-16 115 -76 127v-429q29 6 48 39.5t24 89.5h31q-5 -67 -32.5 -109.5t-70.5 -51.5v-78h-27v75zM223 550
q-76 -22 -76 -222q0 -190 76 -206v428z" />
    <glyph glyph-name="sterling" unicode="&#xa3;" horiz-adv-x="429" 
d="M344 553q-5 48 -19 69t-43 21q-37 0 -59 -34q-7 -11 -12 -23.5t-9 -29t-7.5 -38.5t-6.5 -53l-10 -104h96v-37h-100l-11 -114q-5 -51 -21.5 -96.5t-42.5 -80.5q28 17 46 23.5t38 6.5q11 0 22 -2t31 -8q29 -8 48 -8q54 0 68 100h29q-4 -42 -12.5 -69.5t-23.5 -44.5
t-36.5 -24t-53.5 -7h-207q9 13 15 27t11 33.5t9 45.5t8 63l14 155h-57v37h61l8 82q11 115 52 175t107 60q91 0 99 -125h-31z" />
    <glyph glyph-name="yen" unicode="&#xa5;" horiz-adv-x="428" 
d="M47 402v37h85l-46 151q-9 29 -22.5 41t-42.5 15v24q32 -4 51.5 -5.5t39.5 -1.5q22 0 41 1.5t50 5.5v-24q-26 -3 -37.5 -9t-11.5 -17q0 -5 1.5 -13t5.5 -19l76 -254l77 255q3 11 5 19t2 13q0 11 -10.5 17t-36.5 8v24q24 -3 38.5 -4t28.5 -1t28.5 1t39.5 4v-24
q-16 -3 -26.5 -6.5t-18 -10t-13 -17t-10.5 -26.5l-44 -147h83v-37h-94l-23 -75h117v-37h-128v-202q0 -20 2 -32t8.5 -19t19 -10.5t32.5 -5.5v-24q-38 5 -59 6.5t-41 1.5q-19 0 -40 -1.5t-60 -6.5v24q21 2 33 5.5t19 10.5t9 19t2 32v202h-130v37h120l-23 75h-97z" />
    <glyph glyph-name="florin" unicode="&#x192;" horiz-adv-x="433" 
d="M348 435h-83l-44 -320q-9 -67 -21.5 -113t-29.5 -74.5t-39.5 -41.5t-52.5 -13q-36 0 -58.5 21t-22.5 56q0 20 9.5 32.5t25.5 12.5q14 0 22.5 -9t8.5 -23q0 -5 -0.5 -7.5t-4.5 -13.5q-1 -4 -1.5 -7.5t-0.5 -8.5q0 -22 22 -22q13 0 22.5 7t17 23t13.5 42t11 65l56 394h-56
l1 32h12q16 0 26 2t16 9t9.5 19t6.5 32q5 31 12.5 62.5t15.5 47.5q35 69 104 69q36 0 57 -20t21 -55q0 -44 -34 -44q-14 0 -23 8.5t-9 21.5q0 7 3 19q2 5 3 11t1 10q0 8 -6 13t-15 5q-23 0 -36 -23t-21 -74l-15 -108h79z" />
    <glyph glyph-name="section" unicode="&#xa7;" horiz-adv-x="429" 
d="M95 14q9 -120 102 -120q42 0 67.5 27t25.5 71q0 58 -51 95l-110 81q-64 48 -64 121q0 46 21 74t68 45q-22 18 -36.5 33t-23 30t-12 31t-3.5 36q0 30 10.5 56t28.5 44.5t43 29t55 10.5q62 0 99 -42t37 -111v-7h-28q-3 57 -29 87.5t-71 30.5q-38 0 -63 -24t-25 -62
q0 -29 14 -50t49 -46l95 -68q37 -26 53 -55t16 -68q0 -45 -18.5 -76t-60.5 -54q39 -31 54.5 -60t15.5 -70q0 -33 -10.5 -60.5t-30 -47.5t-46.5 -31t-59 -11q-31 0 -57.5 11.5t-45 31.5t-29 48.5t-10.5 62.5v7h29zM183 387q-38 -11 -54 -29.5t-16 -50.5q0 -26 11 -45.5
t36 -37.5l99 -74q30 18 44 39.5t14 50.5q0 27 -12 47t-39 40z" />
    <glyph glyph-name="quotesingle" unicode="'" horiz-adv-x="200" 
d="M79 399l-9 268h61l-9 -268h-43z" />
    <glyph glyph-name="quotedblleft" unicode="&#x201c;" horiz-adv-x="322" 
d="M273 671q-11 -12 -21.5 -28.5t-19 -34.5t-13.5 -35t-6 -31h3q6 2 7 2q15 1 26.5 -13.5t11.5 -34.5q0 -22 -12.5 -36.5t-31.5 -14.5q-21 0 -33.5 16.5t-12.5 44.5q0 37 16.5 80t46.5 85h39zM151 671q-11 -12 -21 -28.5t-18.5 -34t-14 -35t-6.5 -31.5h3q8 2 7 2
q16 1 27 -13t11 -35q0 -23 -12 -37t-32 -14q-21 0 -33 16t-12 45q0 38 16 80t47 85h38z" />
    <glyph glyph-name="guillemotleft" unicode="&#xab;" horiz-adv-x="329" 
d="M168 472l-66 -233l66 -239h-23l-97 239l97 233h23zM277 472l-66 -233l66 -239h-24l-96 239l96 233h24z" />
    <glyph glyph-name="endash" unicode="&#x2013;" horiz-adv-x="428" 
d="M72 289h284v-43h-284v43z" />
    <glyph glyph-name="dagger" unicode="&#x2020;" horiz-adv-x="428" 
d="M246 -119h-63l6 536l-128 -10v69l128 -10l-6 184h63l-6 -184l128 10v-69l-128 10z" />
    <glyph glyph-name="daggerdbl" unicode="&#x2021;" horiz-adv-x="430" 
d="M239 112l128 10v-69l-128 10l7 -182h-63l7 182l-127 -10v69l127 -10v317l-127 -10v69l127 -11l-7 173h63l-7 -173l128 11v-69l-128 10v-317z" />
    <glyph glyph-name="periodcentered" unicode="&#xb7;" 
d="M99 292q21 0 34.5 -13.5t13.5 -34.5q0 -20 -14 -34.5t-34 -14.5t-34.5 15t-14.5 35t14 33.5t35 13.5z" />
    <glyph glyph-name="paragraph" unicode="&#xb6;" horiz-adv-x="428" 
d="M397 643q-21 -2 -34 -5t-20 -10t-9.5 -19t-2.5 -32v-624q0 -20 2 -32t9 -19t20 -10t35 -5v-25l-39.5 3.5t-34.5 2.5t-34 1.5t-38 0.5t-38.5 -0.5t-34.5 -1.5t-34.5 -2.5l-39.5 -3.5v25q20 2 32.5 5t19 10t8.5 19t2 32v374q-124 22 -124 176q0 52 17 89.5t47 54.5
q22 11 46.5 15.5t64.5 4.5h180v-24zM284 569q0 21 -1 34.5t-5 20.5t-11 9.5t-18 2.5q-22 0 -29 -12.5t-7 -54.5v-603q0 -41 7 -54t29 -13t28.5 12.5t6.5 55.5v602z" />
    <glyph glyph-name="bullet" unicode="&#x2022;" horiz-adv-x="553" 
d="M279 466q26 0 49.5 -10t40.5 -27.5t27 -41t10 -50.5t-10 -50.5t-27.5 -41.5t-41 -28t-50.5 -10t-50.5 10t-41.5 28t-28 42t-10 51t10 50.5t28 40.5t42 27t52 10z" />
    <glyph glyph-name="quotesinglbase" unicode="&#x201a;" horiz-adv-x="200" 
d="M50 -134q23 29 40.5 66t19.5 64h-3q-6 -2 -7 -2q-17 0 -27.5 13.5t-10.5 33.5q0 23 12 37.5t32 14.5q21 0 33 -16t12 -45q0 -38 -15.5 -78t-47.5 -88h-38z" />
    <glyph glyph-name="quotedblbase" unicode="&#x201e;" horiz-adv-x="322" 
d="M50 -134q23 29 40.5 66t19.5 64h-3q-6 -2 -7 -2q-17 0 -27.5 13.5t-10.5 33.5q0 23 12 37.5t32 14.5q21 0 33 -16t12 -45q0 -38 -15.5 -78t-47.5 -88h-38zM171 -134q24 29 41 66t19 64h-3q-6 -2 -7 -2q-17 0 -27 13t-10 34q0 23 11.5 37.5t31.5 14.5q21 0 33.5 -16.5
t12.5 -44.5q0 -73 -63 -166h-39z" />
    <glyph glyph-name="quotedblright" unicode="&#x201d;" horiz-adv-x="322" 
d="M50 451q12 14 22.5 31t18.5 34.5t13 34t6 29.5h-3q-3 -1 -7 -1q-17 0 -27.5 13t-10.5 34q0 23 12 37.5t32 14.5q21 0 33 -16.5t12 -44.5q0 -38 -15.5 -78t-47.5 -88h-38zM171 451q12 14 22.5 31t18.5 34.5t13 34t6 29.5h-3q-3 -1 -6 -1q-17 0 -27.5 13t-10.5 34
q0 23 12 37.5t31 14.5q21 0 33.5 -16.5t12.5 -44.5q0 -73 -63 -166h-39z" />
    <glyph glyph-name="guillemotright" unicode="&#xbb;" horiz-adv-x="329" 
d="M281 239l-97 -239h-23l66 239l-66 233h23zM172 239l-96 -239h-24l66 239l-66 233h24z" />
    <glyph glyph-name="ellipsis" unicode="&#x2026;" horiz-adv-x="565" 
d="M97 90q21 0 34.5 -13.5t13.5 -34.5q0 -20 -14 -34.5t-34 -14.5t-34.5 15t-14.5 35t14 33.5t35 13.5zM285 90q21 0 34.5 -13.5t13.5 -34.5q0 -20 -14 -34.5t-34 -14.5t-34.5 15t-14.5 35t14 33.5t35 13.5zM468 90q20 0 33.5 -13.5t13.5 -34.5q0 -20 -14 -34.5t-34 -14.5
t-34.5 15t-14.5 35t14 33.5t36 13.5z" />
    <glyph glyph-name="perthousand" unicode="&#x2030;" horiz-adv-x="743" 
d="M138 673q23 0 41.5 -12t32.5 -33t21.5 -50t7.5 -64t-8 -64.5t-22 -51t-33 -33.5t-42 -12q-48 0 -76.5 45t-28.5 117q0 34 8 63t22.5 50t34 33t42.5 12zM137 649q-25 0 -39 -34t-14 -96q0 -142 52 -142q26 0 39 34.5t13 100.5q0 137 -51 137zM388 667h33l-313 -667h-33z
M362 314q46 0 74.5 -44t28.5 -115q0 -35 -8 -64.5t-22 -51t-33 -33.5t-42 -12t-42 12t-33 33.5t-22 51t-8 64.5t8 64t22.5 50t34 33t42.5 12zM361 290q-26 0 -39.5 -35.5t-13.5 -101.5t13 -100.5t39 -34.5q52 0 52 136t-51 136zM609 314q46 0 74.5 -44t28.5 -115
q0 -35 -8 -64.5t-22 -51t-33 -33.5t-42 -12t-42.5 12t-33.5 33.5t-21.5 51t-7.5 64.5q0 34 8 63t22.5 50.5t34 33.5t42.5 12zM608 290q-25 0 -39 -34.5t-14 -95.5q0 -142 52 -142t52 136t-51 136z" />
    <glyph glyph-name="questiondown" unicode="&#xbf;" horiz-adv-x="316" 
d="M200 281q2 -18 2.5 -29t0.5 -24q0 -26 -2 -44.5t-9 -36t-19.5 -37t-33.5 -47.5q-23 -31 -33 -56t-10 -52q0 -40 19 -63t52 -23q83 0 92 118h22q0 -85 -35 -130.5t-101 -45.5q-55 0 -88 39t-33 104q0 23 3.5 41.5t12 36.5t23 36t36.5 40q20 20 34 38t22 36t11 37.5t1 41.5
q-1 9 -1 11v9h34zM177 471q20 0 33.5 -14.5t13.5 -34.5q0 -21 -13.5 -34.5t-34.5 -13.5t-35 14t-14 35q0 20 14.5 34t35.5 14z" />
    <glyph glyph-name="grave" unicode="`" horiz-adv-x="410" 
d="M218 551l-131 147h89l78 -147h-36z" />
    <glyph glyph-name="acute" unicode="&#xb4;" horiz-adv-x="410" 
d="M256 698h89l-131 -147h-36z" />
    <glyph glyph-name="circumflex" unicode="&#x2c6;" horiz-adv-x="410" 
d="M186 698h39l105 -146h-38l-87 86l-86 -86h-38z" />
    <glyph glyph-name="tilde" unicode="&#x2dc;" horiz-adv-x="410" 
d="M81 585q12 54 29 76t46 22q8 0 14.5 -1t13.5 -5.5t17 -13l26 -22.5q17 -16 34 -16t27.5 11.5t19.5 40.5l21 -6q-6 -50 -26 -76.5t-50 -26.5q-14 0 -29 9t-36 29q-11 11 -19.5 15.5t-19.5 4.5q-16 0 -26.5 -11t-19.5 -38z" />
    <glyph glyph-name="macron" unicode="&#xaf;" horiz-adv-x="410" 
d="M83 654h244v-51h-244v51z" />
    <glyph glyph-name="breve" unicode="&#x2d8;" horiz-adv-x="408" 
d="M311 697q-4 -68 -32 -106t-76 -38q-47 0 -75.5 38t-31.5 106h27q23 -83 80 -83q58 0 81 83h27z" />
    <glyph glyph-name="dotaccent" unicode="&#x2d9;" horiz-adv-x="414" 
d="M209 666q18 0 31.5 -13.5t13.5 -32.5q0 -18 -13.5 -31.5t-32.5 -13.5t-32 13t-13 33q0 19 13.5 32t32.5 13z" />
    <glyph glyph-name="dieresis" unicode="&#xa8;" horiz-adv-x="413" 
d="M137 666q18 0 31.5 -13.5t13.5 -32.5q0 -18 -13.5 -31.5t-32.5 -13.5t-32 13t-13 33q0 19 13.5 32t32.5 13zM281 666q18 0 31.5 -14t13.5 -32t-13.5 -31.5t-32.5 -13.5t-32 13t-13 33q0 19 13 32t33 13z" />
    <glyph glyph-name="ring" unicode="&#x2da;" horiz-adv-x="423" 
d="M212 707q31 0 53 -22.5t22 -53.5q0 -32 -22 -54t-54 -22t-54 22t-22 54t22.5 54t54.5 22zM212 674q-18 0 -31 -13t-13 -30q0 -18 12.5 -30.5t30.5 -12.5t30.5 12.5t12.5 30.5q0 17 -12.5 30t-29.5 13z" />
    <glyph glyph-name="cedilla" unicode="&#xb8;" horiz-adv-x="415" 
d="M200 0h34l-24 -59q73 -9 73 -68q0 -32 -21.5 -53t-56.5 -21q-17 0 -30 3.5t-31 12.5v30q14 -5 22.5 -7t18.5 -2q18 0 29.5 11.5t11.5 30.5q0 22 -14 32t-46 12z" />
    <glyph glyph-name="hungarumlaut" unicode="&#x2dd;" horiz-adv-x="410" 
d="M205 698h69l-105 -147h-32zM316 698h69l-106 -147h-32z" />
    <glyph glyph-name="ogonek" unicode="&#x2db;" horiz-adv-x="410" 
d="M274 8q-37 -26 -50.5 -43.5t-13.5 -40.5q0 -19 12 -31.5t29 -12.5q7 0 11.5 1t12.5 4v-31q-14 -6 -25 -9t-24 -3q-31 0 -52 21.5t-21 53.5q0 62 95 96z" />
    <glyph glyph-name="caron" unicode="&#x2c7;" horiz-adv-x="410" 
d="M225 551h-39l-105 145h38l86 -86l87 86h38z" />
    <glyph glyph-name="emdash" unicode="&#x2014;" horiz-adv-x="479" 
d="M5 289h469v-43h-469v43z" />
    <glyph glyph-name="AE" unicode="&#xc6;" horiz-adv-x="727" 
d="M195 226l-68 -149q-8 -18 -8 -31t11.5 -17.5t43.5 -6.5v-25q-19 1 -31.5 2t-21 2t-15.5 1h-12h-14q-6 0 -14.5 -1t-21 -2t-31.5 -2v25q18 1 30 4.5t21.5 11t18 21t19.5 35.5l263 573h299l14 -150h-19q-8 36 -15.5 59.5t-18 36.5t-24.5 18t-35 5h-110v-274h109
q13 0 21 3.5t13.5 12.5t8 25t3.5 41h20v-196h-20q-1 25 -4 41t-8.5 25.5t-15 13t-23.5 3.5h-104v-241q0 -35 10.5 -47t42.5 -12h51q24 0 41 5.5t29 20.5t21 40t17 64h19l-19 -161h-352v25q21 2 34 5t20 10t9 19t2 32v135h-186zM381 634l-172 -377h172v377z" />
    <glyph glyph-name="ordfeminine" unicode="&#xaa;" horiz-adv-x="289" 
d="M254 378q-12 -3 -18.5 -4t-12.5 -1q-31 0 -40 46q-23 -47 -66 -47q-32 0 -52.5 23t-20.5 59q0 88 132 111v33q0 59 -40 59q-38 0 -38 -38v-4q1 -3 1 -8q1 -12 -6 -20t-18 -8q-19 0 -19 24q0 32 25 54.5t60 22.5q22 0 41 -11t29 -30q11 -18 11 -64v-125q0 -29 3.5 -40.5
t13.5 -11.5q2 0 4.5 0.5t10.5 2.5v-23zM176 542q-86 -19 -86 -84q0 -24 10.5 -38.5t28.5 -14.5q25 0 36 21t11 66v50zM264 319v-38h-230v38h230z" />
    <glyph glyph-name="Oslash" unicode="&#xd8;" horiz-adv-x="516" 
d="M427 564q22 -44 33.5 -102.5t11.5 -121.5q0 -80 -15 -145t-43 -111t-67.5 -71t-88.5 -25q-92 0 -152 84l-47 -72h-37l67 102q-22 46 -34 105.5t-12 123.5q0 79 15.5 143.5t43.5 110t67.5 70.5t88.5 25q45 0 84 -22t68 -64l48 73h36zM145 129q35 -113 113 -113
q66 0 101 87t35 248q0 87 -13 146zM371 537q-37 115 -112 115q-32 0 -58 -22.5t-44 -65t-27.5 -103t-9.5 -137.5q0 -82 15 -154z" />
    <glyph glyph-name="OE" unicode="&#x152;" horiz-adv-x="742" 
d="M398 95q-34 -58 -66 -82.5t-78 -24.5q-38 0 -73.5 18t-62.5 51q-17 20 -31 50.5t-24 66.5t-15.5 77t-5.5 82q0 78 15 141.5t42.5 109t66 70.5t85.5 25q46 0 83 -27t62 -78v93h282l14 -150h-19q-7 36 -15 59t-18.5 36.5t-24.5 18.5t-35 5h-117v-274h116q26 0 35 15.5
t11 66.5h20v-196h-20q-1 25 -4 41t-8.5 25.5t-14.5 13t-23 3.5h-112v-241q0 -35 11.5 -47t43.5 -12h57q24 0 40.5 6t28.5 20.5t21 39.5t17 64h19l-19 -161h-284v95zM259 650q-66 0 -102.5 -82.5t-36.5 -232.5q0 -152 37 -235t104 -83q32 0 57 21.5t42.5 61t27 96.5t9.5 128
q0 158 -35.5 242t-102.5 84z" />
    <glyph glyph-name="ordmasculine" unicode="&#xba;" horiz-adv-x="289" 
d="M146 680q45 0 72 -43t27 -114q0 -33 -7.5 -60.5t-21 -47.5t-32 -31.5t-40.5 -11.5q-45 0 -73 42.5t-28 111.5q0 33 7.5 61.5t21.5 49t33 32t41 11.5zM145 658q-23 0 -36 -34.5t-13 -98.5q0 -131 48 -131q23 0 36 33t13 91q0 68 -12.5 104t-35.5 36zM259 319v-38h-230v38
h230z" />
    <glyph glyph-name="ae" unicode="&#xe6;" horiz-adv-x="585" 
d="M549 154q-8 -78 -44.5 -120.5t-98.5 -42.5q-97 0 -141 111q-20 -61 -46.5 -86t-71.5 -25q-49 0 -80 35t-31 91q0 70 53 111.5t157 52.5v84q0 89 -65 89q-27 0 -44 -14.5t-17 -37.5v-13q1 -8 1 -13v-6q0 -42 -35 -42q-29 0 -29 34q0 24 10.5 46t28 38t41 25.5t50.5 9.5
q35 0 62 -15t44 -44q43 59 109 59q69 0 106 -60t40 -175h-231q0 -30 1.5 -53.5t3.5 -41.5t5.5 -32t7.5 -27q25 -68 81 -68q42 0 68 33.5t33 96.5h32zM478 283q-5 172 -77 172q-36 0 -55.5 -41t-27.5 -131h160zM246 251q-73 -11 -106 -41.5t-33 -87.5q0 -40 17 -63.5
t46 -23.5q40 0 58 34.5t18 112.5v69z" />
    <glyph glyph-name="dotlessi" unicode="&#x131;" horiz-adv-x="233" 
d="M153 71q0 -32 10 -42t45 -12v-20q-33 4 -51.5 5t-38.5 1q-19 0 -38 -1t-51 -5v20q17 1 27.5 3.5t16.5 8.5t8 16t2 26v316q0 20 -1.5 31.5t-7 17.5t-16 8t-28.5 2v17q35 4 64 10t59 16v-418z" />
    <glyph glyph-name="oslash" unicode="&#xf8;" horiz-adv-x="385" 
d="M70 74q-33 66 -33 160q0 54 12 99.5t33 78.5t50.5 51.5t64.5 18.5q59 0 100 -53l30 46h32l-46 -72q17 -34 26 -75.5t9 -87.5q0 -54 -11.5 -100t-32.5 -79.5t-50 -52t-63 -18.5q-60 0 -105 58l-32 -51h-33zM262 377q-18 77 -68 77q-41 0 -63.5 -58t-22.5 -164
q0 -25 1.5 -46t5.5 -45zM122 100q9 -38 28 -60t42 -22q41 0 63 59.5t22 166.5q0 28 -1.5 48.5t-6.5 43.5z" />
    <glyph glyph-name="oe" unicode="&#x153;" horiz-adv-x="614" 
d="M578 154q-8 -78 -45 -120.5t-97 -42.5q-80 0 -127 79q-47 -80 -117 -80q-34 0 -62.5 18t-49 50.5t-32 77.5t-11.5 99q0 55 11.5 100.5t32.5 78t50.5 50.5t65.5 18q71 0 113 -78q47 77 120 77q70 0 107.5 -63t39.5 -182h-231q2 -115 25 -163.5t74 -48.5q42 0 68 33.5
t33 96.5h32zM507 273q-3 95 -22 139.5t-56 44.5q-36 0 -56 -44.5t-26 -139.5h160zM195 456q-42 0 -63 -56.5t-21 -166.5q0 -217 81 -217q40 0 61.5 54.5t21.5 154.5q0 118 -19.5 174.5t-60.5 56.5z" />
    <glyph glyph-name="germandbls" unicode="&#xdf;" horiz-adv-x="422" 
d="M176 384q54 2 78 35t24 105q0 58 -16.5 89t-46.5 31q-15 0 -30 -9.5t-23 -23.5q-9 -16 -12.5 -36.5t-3.5 -52.5v-524q-17 2 -28.5 2.5t-27.5 0.5q-17 0 -31 -1t-37 -3v20q17 1 27.5 3.5t16.5 8.5t8 16t2 26v413q0 40 6.5 70t20.5 53q18 30 48.5 48t65.5 18q29 0 53 -11.5
t41 -32t27 -48.5t10 -61q0 -52 -21 -86.5t-70 -60.5q128 -40 128 -193q0 -39 -10 -73.5t-27 -59.5t-40.5 -39.5t-50.5 -14.5q-18 0 -33.5 6.5t-33.5 22.5v27q14 -8 22 -11t19 -3q38 0 60 38t22 101q0 84 -35.5 129.5t-101.5 49.5v31z" />
    <glyph glyph-name="logicalnot" unicode="&#xac;" horiz-adv-x="410" 
d="M301 0v230h-267v37h342v-267h-75z" />
    <glyph glyph-name="mu" unicode="&#xb5;" horiz-adv-x="362" 
d="M370 40l-66 -50q-1 0 -3 -1q-3 -1 -9.5 3t-11.5 9q-8 8 -13 27t-6 46q-21 -25 -38 -42.5t-31.5 -27.5t-28.5 -14.5t-29 -4.5q-63 0 -84 89q0 -54 1.5 -91.5t5.5 -78.5q2 -13 2.5 -24.5t0.5 -19.5q0 -21 -8 -35t-20 -14t-20.5 13t-8.5 31q0 10 1.5 26t3.5 34q5 35 9 80.5
t7 94.5t4.5 99t1.5 94v174h55v-286q0 -46 3.5 -68.5t13.5 -39.5q8 -16 23 -24.5t32 -8.5q29 0 52 18.5t49 63.5v345h50v-342q0 -45 6.5 -60.5t24.5 -15.5q7 0 14 3.5t17 12.5v-15z" />
    <glyph glyph-name="trademark" unicode="&#x2122;" horiz-adv-x="706" 
d="M269 570h-17q-8 41 -20.5 56.5t-37.5 15.5h-27v-320q0 -23 7.5 -29.5t33.5 -6.5v-21q-14 2 -31.5 3t-26.5 1q-5 0 -15 -0.5l-21 -1t-21 -1.5t-15 -1v21q26 1 33.5 7t7.5 29v320h-24q-26 0 -38.5 -15.5t-20.5 -56.5h-18l15 97h221zM364 322v-4q0 -19 8 -25.5t33 -6.5v-21
q-22 2 -32.5 2.5t-18.5 0.5q-18 0 -53 -3v21q26 1 33 7t8 29l10 290q0 22 -7 28t-34 8v21l12 -1.5t8 -0.5h9h14q16 0 26.5 0.5t23.5 2.5l90 -293l92 293q14 -2 25 -2.5t24 -0.5h13h9t8.5 0.5t11.5 1.5v-21q-27 -2 -34 -8t-7 -28l5 -290q0 -11 1.5 -18t6 -10.5t12.5 -5
t21 -2.5v-22q-22 3 -35 4t-30 1q-16 0 -29 -1t-35 -4v22q27 2 34 7.5t7 28.5l-4 288l-82 -263l-5 -15.5t-4.5 -13.5t-5 -16l-6.5 -24h-11q-4 12 -6 20t-4 15l-4.5 15l-6.5 21l-81 261z" />
    <glyph glyph-name="plusminus" unicode="&#xb1;" horiz-adv-x="428" 
d="M48 367h142v175h54v-175h137v-59h-137v-169h-54v169h-142v59zM48 86h333v-60h-333v60z" />
    <glyph glyph-name="divide" unicode="&#xf7;" horiz-adv-x="428" 
d="M48 366h333v-58h-333v58zM217 524q20 0 33.5 -14t13.5 -34q0 -21 -14 -35t-34 -14t-34.5 14.5t-14.5 34.5t14.5 34t35.5 14zM215 248q20 0 34 -14t14 -34t-14.5 -34.5t-34.5 -14.5t-34 14.5t-14 34.5q0 21 14 34.5t35 13.5z" />
    <glyph glyph-name="degree" unicode="&#xb0;" horiz-adv-x="429" 
d="M217 672q26 0 49 -10t40 -27.5t27 -41t10 -50.5t-10 -50t-27.5 -40.5t-41 -27.5t-50.5 -10t-50 10t-40.5 27.5t-27.5 41t-10 50.5t10 50t28 40.5t42 27.5t51 10zM216 632q-38 0 -64 -25.5t-26 -62.5q0 -38 25.5 -63.5t62.5 -25.5q38 0 63.5 25.5t25.5 62.5q0 18 -7 34.5
t-19 28.5t-27.5 19t-33.5 7z" />
    <glyph glyph-name="registered" unicode="&#xae;" horiz-adv-x="648" 
d="M276 188q0 -11 1 -17.5t4.5 -10t10.5 -5t19 -3.5v-21q-26 3 -39 4t-24 1q-12 0 -25 -1t-40 -4v21l8 1q21 2 27 8t6 27v288q0 11 -1 17.5t-5.5 10.5t-12.5 5.5t-22 2.5v21h135q51 0 80 -28.5t29 -78.5q0 -38 -19.5 -64t-54.5 -36q13 -7 19.5 -16.5t15.5 -32.5l34 -93
q8 -21 15 -26t26 -6v-21q-17 2 -24 2h-12h-14t-21 -2q-5 12 -7.5 18.5l-7.5 19.5l-38 106q-10 29 -19.5 37t-29.5 8h-14v-132zM309 345q66 0 66 83q0 80 -63 80h-36v-163h33zM324 640q64 0 120.5 -24t98.5 -66t66.5 -98.5t24.5 -120.5q0 -65 -24.5 -122t-66.5 -99t-99.5 -66
t-123.5 -24q-63 0 -118.5 24.5t-97 67t-66 99t-24.5 119.5q0 64 24.5 120.5t66.5 98.5t98.5 66.5t120.5 24.5zM324 609q-58 0 -108.5 -22t-88.5 -60t-60 -88.5t-22 -108.5q0 -57 22 -107.5t59.5 -89t87.5 -60.5t107 -22q59 0 110.5 21.5t89.5 59.5t60 89t22 110
q0 57 -22 108t-60 88.5t-88.5 59.5t-108.5 22z" />
    <glyph glyph-name="copyright" unicode="&#xa9;" horiz-adv-x="648" 
d="M431 273q-2 -69 -31.5 -108t-80.5 -39q-30 0 -55 15t-43 42t-28 65.5t-10 84.5q0 47 10 85.5t28 65.5t43.5 42t56.5 15q46 0 76 -34l17 33h13v-123h-16q-10 51 -30 74.5t-53 23.5q-36 0 -56 -27q-15 -20 -24.5 -60.5t-9.5 -87.5q0 -88 22.5 -134.5t66.5 -46.5
q36 0 57 29.5t24 84.5h23zM324 640q64 0 120.5 -24t98.5 -66t66.5 -98.5t24.5 -120.5q0 -65 -24.5 -122t-66.5 -99t-99.5 -66t-123.5 -24q-63 0 -118.5 24.5t-97 67t-66 99t-24.5 119.5q0 64 24.5 120.5t66.5 98.5t98.5 66.5t120.5 24.5zM324 609q-58 0 -108.5 -22
t-88.5 -60t-60 -88.5t-22 -108.5q0 -57 22 -107.5t59.5 -89t87.5 -60.5t107 -22q59 0 110.5 21.5t89.5 59.5t60 89t22 110q0 57 -22 108t-60 88.5t-88.5 59.5t-108.5 22z" />
    <glyph glyph-name="Aacute" unicode="&#xc1;" horiz-adv-x="524" 
d="M122 99q-4 -14 -6.5 -27t-2.5 -21q0 -15 11.5 -21.5t40.5 -8.5v-24q-24 3 -40.5 4t-35.5 1t-35 -1t-41 -4v24q18 2 29.5 4.5t19 10t13.5 20.5t13 35l184 597l166 -608q5 -17 10 -28t13 -17t19.5 -9t30.5 -5v-24q-34 5 -54.5 6.5t-42.5 1.5q-23 0 -43.5 -1.5t-54.5 -6.5
v24q26 3 37 9.5t11 20.5q0 11 -5 34l-27 108h-182zM324 224l-76 297l-89 -297h165zM333 861h97l-158 -137h-40z" />
    <glyph glyph-name="Acircumflex" unicode="&#xc2;" horiz-adv-x="524" 
d="M122 99q-4 -14 -6.5 -27t-2.5 -21q0 -15 11.5 -21.5t40.5 -8.5v-24q-24 3 -40.5 4t-35.5 1t-35 -1t-41 -4v24q18 2 29.5 4.5t19 10t13.5 20.5t13 35l184 597l166 -608q5 -17 10 -28t13 -17t19.5 -9t30.5 -5v-24q-34 5 -54.5 6.5t-42.5 1.5q-23 0 -43.5 -1.5t-54.5 -6.5
v24q26 3 37 9.5t11 20.5q0 11 -5 34l-27 108h-182zM324 224l-76 297l-89 -297h165zM251 861h44l114 -136h-40l-96 84l-96 -84h-40z" />
    <glyph glyph-name="Adieresis" unicode="&#xc4;" horiz-adv-x="524" 
d="M122 99q-4 -14 -6.5 -27t-2.5 -21q0 -15 11.5 -21.5t40.5 -8.5v-24q-24 3 -40.5 4t-35.5 1t-35 -1t-41 -4v24q18 2 29.5 4.5t19 10t13.5 20.5t13 35l184 597l166 -608q5 -17 10 -28t13 -17t19.5 -9t30.5 -5v-24q-34 5 -54.5 6.5t-42.5 1.5q-23 0 -43.5 -1.5t-54.5 -6.5
v24q26 3 37 9.5t11 20.5q0 11 -5 34l-27 108h-182zM324 224l-76 297l-89 -297h165zM203 842q20 0 33.5 -13.5t13.5 -34.5t-14 -35t-34 -14t-34.5 14.5t-14.5 34.5t14.5 34t35.5 14zM347 842q20 0 33.5 -13.5t13.5 -34.5q0 -20 -14 -34.5t-34 -14.5t-34.5 14.5t-14.5 34.5
t14.5 34t35.5 14z" />
    <glyph glyph-name="Agrave" unicode="&#xc0;" horiz-adv-x="524" 
d="M122 99q-4 -14 -6.5 -27t-2.5 -21q0 -15 11.5 -21.5t40.5 -8.5v-24q-24 3 -40.5 4t-35.5 1t-35 -1t-41 -4v24q18 2 29.5 4.5t19 10t13.5 20.5t13 35l184 597l166 -608q5 -17 10 -28t13 -17t19.5 -9t30.5 -5v-24q-34 5 -54.5 6.5t-42.5 1.5q-23 0 -43.5 -1.5t-54.5 -6.5
v24q26 3 37 9.5t11 20.5q0 11 -5 34l-27 108h-182zM324 224l-76 297l-89 -297h165zM281 724l-157 137h97l100 -137h-40z" />
    <glyph glyph-name="Aring" unicode="&#xc5;" horiz-adv-x="524" 
d="M272 873q31 0 53 -22t22 -54t-22 -54t-54 -22t-54 22.5t-22 54.5t22.5 53.5t54.5 21.5zM122 99q-4 -14 -6.5 -27t-2.5 -21q0 -15 11.5 -21.5t40.5 -8.5v-24q-24 3 -40.5 4t-35.5 1t-35 -1t-41 -4v24q18 2 29.5 4.5t19 10t13.5 20.5t13 35l184 597l166 -608q5 -17 10 -28
t13 -17t19.5 -9t30.5 -5v-24q-34 5 -54.5 6.5t-42.5 1.5q-23 0 -43.5 -1.5t-54.5 -6.5v24q26 3 37 9.5t11 20.5q0 11 -5 34l-27 108h-182zM324 224l-76 297l-89 -297h165zM271 839q-18 0 -30.5 -12t-12.5 -30t12.5 -30.5t30.5 -12.5q17 0 30 12.5t13 30.5q0 17 -12.5 29.5
t-30.5 12.5z" />
    <glyph glyph-name="Atilde" unicode="&#xc3;" horiz-adv-x="524" 
d="M122 99q-4 -14 -6.5 -27t-2.5 -21q0 -15 11.5 -21.5t40.5 -8.5v-24q-24 3 -40.5 4t-35.5 1t-35 -1t-41 -4v24q18 2 29.5 4.5t19 10t13.5 20.5t13 35l184 597l166 -608q5 -17 10 -28t13 -17t19.5 -9t30.5 -5v-24q-34 5 -54.5 6.5t-42.5 1.5q-23 0 -43.5 -1.5t-54.5 -6.5
v24q26 3 37 9.5t11 20.5q0 11 -5 34l-27 108h-182zM324 224l-76 297l-89 -297h165zM139 751q11 51 30 74.5t49 23.5q14 0 27.5 -6t30.5 -21q24 -21 32.5 -26t20.5 -5q19 0 30 12t19 40l23 -6q-3 -23 -7 -37.5t-12 -25.5q-25 -40 -61 -40q-15 0 -30 8.5t-38 29.5
q-13 11 -22 15.5t-20 4.5q-17 0 -28.5 -11.5t-19.5 -37.5z" />
    <glyph glyph-name="Ccedilla" unicode="&#xc7;" horiz-adv-x="490" 
d="M251 -58q76 -7 76 -72q0 -35 -22 -57t-57 -22q-17 0 -30.5 3.5t-33.5 12.5v33q14 -5 22.5 -7t18.5 -2q20 0 32 12.5t12 32.5q0 23 -14.5 33t-48.5 11l29 69q-43 7 -78 34t-60 71.5t-38 104.5t-13 132q0 80 15.5 144t43.5 109.5t68.5 70t89.5 24.5q40 0 69 -13.5t54 -44.5
l27 56h16v-196h-20q-17 86 -49.5 126t-86.5 40q-73 0 -109 -80q-18 -40 -28.5 -102t-10.5 -131q0 -145 38.5 -223.5t108.5 -78.5q60 0 94.5 50.5t39.5 142.5h29q-3 -106 -46.5 -168.5t-118.5 -68.5z" />
    <glyph glyph-name="Eacute" unicode="&#xc9;" horiz-adv-x="445" 
d="M383 0h-352v25q21 2 33 5t19 10t9 19t2 32v485q0 20 -2 32t-9 19t-19 10t-33 5v25h348l14 -150h-19q-7 36 -15 59t-18.5 36.5t-24.5 18.5t-35 5h-112v-274h111q26 0 35 15.5t11 66.5h20v-196h-20q-1 25 -4 41t-8.5 25.5t-14.5 13t-23 3.5h-107v-241q0 -35 10.5 -47
t41.5 -12h55q24 0 40.5 6t28.5 20.5t21 39.5t17 64h19zM275 861h97l-157 -137h-40z" />
    <glyph glyph-name="Ecircumflex" unicode="&#xca;" horiz-adv-x="445" 
d="M383 0h-352v25q21 2 33 5t19 10t9 19t2 32v485q0 20 -2 32t-9 19t-19 10t-33 5v25h348l14 -150h-19q-7 36 -15 59t-18.5 36.5t-24.5 18.5t-35 5h-112v-274h111q26 0 35 15.5t11 66.5h20v-196h-20q-1 25 -4 41t-8.5 25.5t-14.5 13t-23 3.5h-107v-241q0 -35 10.5 -47
t41.5 -12h55q24 0 40.5 6t28.5 20.5t21 39.5t17 64h19zM203 860h45l113 -135h-39l-97 83l-96 -83h-40z" />
    <glyph glyph-name="Edieresis" unicode="&#xcb;" horiz-adv-x="445" 
d="M383 0h-352v25q21 2 33 5t19 10t9 19t2 32v485q0 20 -2 32t-9 19t-19 10t-33 5v25h348l14 -150h-19q-7 36 -15 59t-18.5 36.5t-24.5 18.5t-35 5h-112v-274h111q26 0 35 15.5t11 66.5h20v-196h-20q-1 25 -4 41t-8.5 25.5t-14.5 13t-23 3.5h-107v-241q0 -35 10.5 -47
t41.5 -12h55q24 0 40.5 6t28.5 20.5t21 39.5t17 64h19zM145 842q20 0 34 -14t14 -34t-14 -34.5t-34 -14.5t-34.5 14.5t-14.5 34.5q0 21 14 34.5t35 13.5zM289 842q20 0 34 -14t14 -34t-14.5 -34.5t-34.5 -14.5t-34 14.5t-14 34.5q0 21 14 34.5t35 13.5z" />
    <glyph glyph-name="Egrave" unicode="&#xc8;" horiz-adv-x="445" 
d="M383 0h-352v25q21 2 33 5t19 10t9 19t2 32v485q0 20 -2 32t-9 19t-19 10t-33 5v25h348l14 -150h-19q-7 36 -15 59t-18.5 36.5t-24.5 18.5t-35 5h-112v-274h111q26 0 35 15.5t11 66.5h20v-196h-20q-1 25 -4 41t-8.5 25.5t-14.5 13t-23 3.5h-107v-241q0 -35 10.5 -47
t41.5 -12h55q24 0 40.5 6t28.5 20.5t21 39.5t17 64h19zM249 724l-158 137h97l101 -137h-40z" />
    <glyph glyph-name="Iacute" unicode="&#xcd;" horiz-adv-x="264" 
d="M231 -3q-39 5 -59.5 6.5t-39.5 1.5q-20 0 -40.5 -1.5t-60.5 -6.5v24q21 2 33.5 5.5t19 10.5t8.5 19t2 32v491q0 20 -2 32t-9 19t-19 10.5t-33 5.5v24q33 -4 54 -5.5t47 -1.5q25 0 45.5 1.5t53.5 5.5v-24q-20 -2 -32.5 -5.5t-19 -10.5t-8.5 -19t-2 -32v-491q0 -20 2 -32
t8.5 -19t18.5 -10.5t33 -5.5v-24zM180 861h95l-149 -137h-40z" />
    <glyph glyph-name="Icircumflex" unicode="&#xce;" horiz-adv-x="269" 
d="M234 -3q-39 5 -59.5 6.5t-39.5 1.5q-20 0 -40.5 -1.5t-60.5 -6.5v24q21 2 33.5 5.5t19 10.5t8.5 19t2 32v491q0 20 -2 32t-9 19t-19 10.5t-33 5.5v24q33 -4 54 -5.5t47 -1.5q25 0 45.5 1.5t53.5 5.5v-24q-20 -2 -32.5 -5.5t-19 -10.5t-8.5 -19t-2 -32v-491q0 -20 2 -32
t8.5 -19t18.5 -10.5t33 -5.5v-24zM112 860h45l107 -135h-39l-90 83l-90 -83h-40z" />
    <glyph glyph-name="Idieresis" unicode="&#xcf;" horiz-adv-x="265" 
d="M232 -3q-40 5 -60.5 6.5t-40.5 1.5q-19 0 -40 -1.5t-59 -6.5v24q21 2 33 5.5t18.5 10.5t8.5 19t2 32v491q0 20 -2 32t-8.5 19t-19 10.5t-32.5 5.5v24q33 -4 53.5 -5.5t45.5 -1.5q26 0 47 1.5t54 5.5v-24q-21 -2 -33 -5.5t-19 -10.5t-9 -19t-2 -32v-491q0 -20 2 -32
t8.5 -19t19 -10.5t33.5 -5.5v-24zM69 842q21 0 34.5 -14t13.5 -34t-14 -34.5t-34 -14.5t-34.5 14.5t-14.5 34.5q0 21 14 34.5t35 13.5zM199 842q20 0 33.5 -14t13.5 -34t-14 -34.5t-34 -14.5t-34.5 14.5t-14.5 34.5q0 21 14 34.5t36 13.5z" />
    <glyph glyph-name="Igrave" unicode="&#xcc;" horiz-adv-x="261" 
d="M230 -3q-39 5 -59.5 6.5t-39.5 1.5q-20 0 -40.5 -1.5t-60.5 -6.5v24q21 2 33.5 5.5t19 10.5t8.5 19t2 32v491q0 20 -2 32t-9 19t-19 10.5t-33 5.5v24q33 -4 54 -5.5t47 -1.5q25 0 45.5 1.5t53.5 5.5v-24q-20 -2 -32.5 -5.5t-19 -10.5t-8.5 -19t-2 -32v-491q0 -20 2 -32
t8.5 -19t18.5 -10.5t33 -5.5v-24zM141 724l-150 137h95l95 -137h-40z" />
    <glyph glyph-name="Ntilde" unicode="&#xd1;" horiz-adv-x="548" 
d="M442 -20l-9 17.5l-8 15.5l-9 18.5t-14 27.5l-21.5 40l-21.5 40l-234 438v-489q0 -20 2 -32t9 -19t19.5 -10.5t34.5 -5.5v-24q-18 1 -30 2t-21 2t-16 1h-14q-14 0 -30 -1t-48 -4v24q22 2 35 5.5t19.5 10.5t8.5 19t2 32v528q-11 15 -25 21.5t-41 8.5v24q19 -2 33 -2.5
t35 -0.5q20 0 31 0.5t28 2.5l268 -500v409q0 20 -2 32t-9 19t-19.5 10.5t-33.5 5.5v24q17 -1 29.5 -2t21.5 -2t16 -1h14q14 0 30 1t48 4v-24q-21 -2 -34 -5.5t-20 -10.5t-9 -19t-2 -32v-599h-13zM144 751q11 52 29.5 75t48.5 23q17 0 31.5 -7.5t37.5 -28.5q25 -22 44 -22
q18 0 29 12t19 40l23 -6q-4 -24 -7.5 -38t-11.5 -25q-25 -40 -61 -40q-15 0 -30.5 8.5t-38.5 29.5q-13 11 -21.5 15.5t-19.5 4.5q-17 0 -28.5 -11.5t-19.5 -37.5z" />
    <glyph glyph-name="Oacute" unicode="&#xd3;" horiz-adv-x="516" 
d="M257 680q43 0 81.5 -20.5t64.5 -57.5q35 -51 52 -118t17 -161q0 -46 -7.5 -91t-20.5 -83.5t-31.5 -69t-40.5 -49.5q-49 -42 -113 -42q-41 0 -77.5 17.5t-63.5 51.5q-34 42 -54.5 116.5t-20.5 158.5q0 79 15 143.5t43 110t67.5 70t88.5 24.5zM258 652q-31 0 -56.5 -21.5
t-43 -62t-27 -99t-9.5 -131.5q0 -154 36 -238t102 -84q63 0 97.5 82t34.5 234q0 88 -12 155.5t-34 104.5q-35 60 -88 60zM312 861h97l-157 -137h-40z" />
    <glyph glyph-name="Ocircumflex" unicode="&#xd4;" horiz-adv-x="516" 
d="M257 680q43 0 81.5 -20.5t64.5 -57.5q35 -51 52 -118t17 -161q0 -46 -7.5 -91t-20.5 -83.5t-31.5 -69t-40.5 -49.5q-49 -42 -113 -42q-41 0 -77.5 17.5t-63.5 51.5q-34 42 -54.5 116.5t-20.5 158.5q0 79 15 143.5t43 110t67.5 70t88.5 24.5zM258 652q-31 0 -56.5 -21.5
t-43 -62t-27 -99t-9.5 -131.5q0 -154 36 -238t102 -84q63 0 97.5 82t34.5 234q0 88 -12 155.5t-34 104.5q-35 60 -88 60zM236 860h45l113 -135h-39l-97 83l-96 -83h-40z" />
    <glyph glyph-name="Odieresis" unicode="&#xd6;" horiz-adv-x="516" 
d="M257 680q43 0 81.5 -20.5t64.5 -57.5q35 -51 52 -118t17 -161q0 -46 -7.5 -91t-20.5 -83.5t-31.5 -69t-40.5 -49.5q-49 -42 -113 -42q-41 0 -77.5 17.5t-63.5 51.5q-34 42 -54.5 116.5t-20.5 158.5q0 79 15 143.5t43 110t67.5 70t88.5 24.5zM258 652q-31 0 -56.5 -21.5
t-43 -62t-27 -99t-9.5 -131.5q0 -154 36 -238t102 -84q63 0 97.5 82t34.5 234q0 88 -12 155.5t-34 104.5q-35 60 -88 60zM186 842q21 0 34.5 -14t13.5 -34t-14 -34.5t-34 -14.5t-34.5 14.5t-14.5 34.5q0 21 14 34.5t35 13.5zM330 842q20 0 34 -14t14 -34t-14.5 -34.5
t-34.5 -14.5t-34 14.5t-14 34.5q0 21 14 34.5t35 13.5z" />
    <glyph glyph-name="Ograve" unicode="&#xd2;" horiz-adv-x="516" 
d="M257 680q43 0 81.5 -20.5t64.5 -57.5q35 -51 52 -118t17 -161q0 -46 -7.5 -91t-20.5 -83.5t-31.5 -69t-40.5 -49.5q-49 -42 -113 -42q-41 0 -77.5 17.5t-63.5 51.5q-34 42 -54.5 116.5t-20.5 158.5q0 79 15 143.5t43 110t67.5 70t88.5 24.5zM258 652q-31 0 -56.5 -21.5
t-43 -62t-27 -99t-9.5 -131.5q0 -154 36 -238t102 -84q63 0 97.5 82t34.5 234q0 88 -12 155.5t-34 104.5q-35 60 -88 60zM275 724l-157 137h97l100 -137h-40z" />
    <glyph glyph-name="Otilde" unicode="&#xd5;" horiz-adv-x="516" 
d="M257 680q43 0 81.5 -20.5t64.5 -57.5q35 -51 52 -118t17 -161q0 -46 -7.5 -91t-20.5 -83.5t-31.5 -69t-40.5 -49.5q-49 -42 -113 -42q-41 0 -77.5 17.5t-63.5 51.5q-34 42 -54.5 116.5t-20.5 158.5q0 79 15 143.5t43 110t67.5 70t88.5 24.5zM258 652q-31 0 -56.5 -21.5
t-43 -62t-27 -99t-9.5 -131.5q0 -154 36 -238t102 -84q63 0 97.5 82t34.5 234q0 88 -12 155.5t-34 104.5q-35 60 -88 60zM132 751q11 52 29.5 75t48.5 23q16 0 30.5 -7.5t37.5 -28.5q25 -22 44 -22q18 0 29 12t19 40l23 -6q-3 -23 -7 -37.5t-12 -25.5q-25 -40 -60 -40
q-16 0 -31 8.5t-38 29.5q-13 11 -22 15.5t-20 4.5q-17 0 -28.5 -11.5t-19.5 -37.5z" />
    <glyph glyph-name="Uacute" unicode="&#xda;" horiz-adv-x="542" 
d="M357 670q17 -1 29.5 -2t21.5 -2t16 -1h14q14 0 30 1t47 4v-24q-21 -2 -33.5 -5.5t-19.5 -10.5t-9 -19t-2 -32v-375q0 -46 -6 -76t-22 -57q-23 -40 -61.5 -61t-89.5 -21q-52 0 -93 22t-64 64q-14 25 -20 52.5t-6 72.5v379q0 20 -2 32t-9 19t-19 10.5t-33 5.5v24
q33 -4 54 -5.5t47 -1.5q25 0 45.5 1.5t53.5 5.5v-24q-20 -2 -32.5 -5.5t-19 -10.5t-8.5 -19t-2 -32v-387q0 -41 3.5 -63.5t12.5 -39.5q15 -27 43 -41.5t64 -14.5q31 0 58 11.5t44 31.5q15 17 23.5 49.5t8.5 72.5v381q0 20 -2 32t-9 19t-19.5 10.5t-33.5 5.5v24zM341 861h97
l-157 -137h-41z" />
    <glyph glyph-name="Ucircumflex" unicode="&#xdb;" horiz-adv-x="542" 
d="M357 670q17 -1 29.5 -2t21.5 -2t16 -1h14q14 0 30 1t47 4v-24q-21 -2 -33.5 -5.5t-19.5 -10.5t-9 -19t-2 -32v-375q0 -46 -6 -76t-22 -57q-23 -40 -61.5 -61t-89.5 -21q-52 0 -93 22t-64 64q-14 25 -20 52.5t-6 72.5v379q0 20 -2 32t-9 19t-19 10.5t-33 5.5v24
q33 -4 54 -5.5t47 -1.5q25 0 45.5 1.5t53.5 5.5v-24q-20 -2 -32.5 -5.5t-19 -10.5t-8.5 -19t-2 -32v-387q0 -41 3.5 -63.5t12.5 -39.5q15 -27 43 -41.5t64 -14.5q31 0 58 11.5t44 31.5q15 17 23.5 49.5t8.5 72.5v381q0 20 -2 32t-9 19t-19.5 10.5t-33.5 5.5v24zM269 860h45
l114 -135h-40l-96 83l-96 -83h-40z" />
    <glyph glyph-name="Udieresis" unicode="&#xdc;" horiz-adv-x="542" 
d="M357 670q17 -1 29.5 -2t21.5 -2t16 -1h14q14 0 30 1t47 4v-24q-21 -2 -33.5 -5.5t-19.5 -10.5t-9 -19t-2 -32v-375q0 -46 -6 -76t-22 -57q-23 -40 -61.5 -61t-89.5 -21q-52 0 -93 22t-64 64q-14 25 -20 52.5t-6 72.5v379q0 20 -2 32t-9 19t-19 10.5t-33 5.5v24
q33 -4 54 -5.5t47 -1.5q25 0 45.5 1.5t53.5 5.5v-24q-20 -2 -32.5 -5.5t-19 -10.5t-8.5 -19t-2 -32v-387q0 -41 3.5 -63.5t12.5 -39.5q15 -27 43 -41.5t64 -14.5q31 0 58 11.5t44 31.5q15 17 23.5 49.5t8.5 72.5v381q0 20 -2 32t-9 19t-19.5 10.5t-33.5 5.5v24zM222 842
q20 0 33.5 -13.5t13.5 -34.5q0 -20 -14 -34.5t-34 -14.5t-34.5 14.5t-14.5 34.5t14.5 34t35.5 14zM366 842q20 0 33.5 -13.5t13.5 -34.5q0 -20 -14 -34.5t-34 -14.5t-34.5 14.5t-14.5 34.5t14 34t36 14z" />
    <glyph glyph-name="Ugrave" unicode="&#xd9;" horiz-adv-x="542" 
d="M357 670q17 -1 29.5 -2t21.5 -2t16 -1h14q14 0 30 1t47 4v-24q-21 -2 -33.5 -5.5t-19.5 -10.5t-9 -19t-2 -32v-375q0 -46 -6 -76t-22 -57q-23 -40 -61.5 -61t-89.5 -21q-52 0 -93 22t-64 64q-14 25 -20 52.5t-6 72.5v379q0 20 -2 32t-9 19t-19 10.5t-33 5.5v24
q33 -4 54 -5.5t47 -1.5q25 0 45.5 1.5t53.5 5.5v-24q-20 -2 -32.5 -5.5t-19 -10.5t-8.5 -19t-2 -32v-387q0 -41 3.5 -63.5t12.5 -39.5q15 -27 43 -41.5t64 -14.5q31 0 58 11.5t44 31.5q15 17 23.5 49.5t8.5 72.5v381q0 20 -2 32t-9 19t-19.5 10.5t-33.5 5.5v24zM307 724
l-158 137h97l101 -137h-40z" />
    <glyph glyph-name="Ydieresis" unicode="&#x178;" horiz-adv-x="483" 
d="M89 591q-6 15 -12.5 25t-14.5 16t-19 9t-27 5v24q31 -4 52.5 -5.5t47.5 -1.5t47.5 1.5t52.5 5.5v-24q-32 -3 -43.5 -8.5t-11.5 -17.5q0 -13 7 -32l101 -256l98 257q8 21 8 31q0 12 -11.5 17.5t-42.5 8.5v24q26 -3 42 -4t33 -1t32.5 1t41.5 4v-24q-17 -3 -28 -6t-19 -9
t-13.5 -15t-11.5 -24l-117 -301v-203q0 -20 2 -32t8.5 -19t18.5 -10.5t33 -5.5v-24l-33.5 3.5t-26 2.5t-21 1.5t-19.5 0.5q-19 0 -39.5 -1.5t-60.5 -6.5v24q21 2 33.5 5.5t19 10.5t8.5 19t2 32v203zM193 842q20 0 33.5 -13.5t13.5 -34.5q0 -20 -14 -34.5t-34 -14.5
t-34.5 14.5t-14.5 34.5t14.5 34t35.5 14zM337 842q20 0 33.5 -13.5t13.5 -34.5q0 -20 -14 -34.5t-34 -14.5t-34.5 14.5t-14.5 34.5t14 34t36 14z" />
    <glyph glyph-name="aacute" unicode="&#xe1;" horiz-adv-x="383" 
d="M361 0q-15 -4 -25.5 -5.5t-21.5 -1.5q-29 0 -44 19.5t-19 62.5q-20 -45 -43.5 -64.5t-60.5 -19.5q-49 0 -79.5 35.5t-30.5 92.5q0 78 59 119q32 23 66 36t79 20v71q0 89 -60 89q-28 0 -44.5 -15t-16.5 -41v-6t1 -12v-11q0 -41 -35 -41q-29 0 -29 34q0 24 10.5 46t28.5 38
t41.5 25.5t50.5 9.5q35 0 64 -16.5t43 -45.5q9 -17 12.5 -39.5t3.5 -58.5v-209q0 -51 6.5 -70t23.5 -19q5 0 8.5 0.5t11.5 2.5v-26zM241 268q-71 -16 -102 -49.5t-31 -93.5q0 -42 16.5 -66.5t44.5 -24.5q38 0 55 35t17 113v86zM235 698h88l-131 -147h-36z" />
    <glyph glyph-name="acircumflex" unicode="&#xe2;" horiz-adv-x="383" 
d="M361 0q-15 -4 -25.5 -5.5t-21.5 -1.5q-29 0 -44 19.5t-19 62.5q-20 -45 -43.5 -64.5t-60.5 -19.5q-49 0 -79.5 35.5t-30.5 92.5q0 78 59 119q32 23 66 36t79 20v71q0 89 -60 89q-28 0 -44.5 -15t-16.5 -41v-6t1 -12v-11q0 -41 -35 -41q-29 0 -29 34q0 24 10.5 46t28.5 38
t41.5 25.5t50.5 9.5q35 0 64 -16.5t43 -45.5q9 -17 12.5 -39.5t3.5 -58.5v-209q0 -51 6.5 -70t23.5 -19q5 0 8.5 0.5t11.5 2.5v-26zM241 268q-71 -16 -102 -49.5t-31 -93.5q0 -42 16.5 -66.5t44.5 -24.5q38 0 55 35t17 113v86zM174 698h37l106 -146h-38l-87 86l-86 -86h-38z
" />
    <glyph glyph-name="adieresis" unicode="&#xe4;" horiz-adv-x="383" 
d="M120 666q18 0 31.5 -14t13.5 -32t-13.5 -31.5t-32.5 -13.5t-32 13t-13 33q0 19 13.5 32t32.5 13zM264 666q17 0 31 -14t14 -32t-13.5 -31.5t-32.5 -13.5t-32 13t-13 33q0 19 13 32t33 13zM361 0q-15 -4 -25.5 -5.5t-21.5 -1.5q-29 0 -44 19.5t-19 62.5
q-20 -45 -43.5 -64.5t-60.5 -19.5q-49 0 -79.5 35.5t-30.5 92.5q0 78 59 119q32 23 66 36t79 20v71q0 89 -60 89q-28 0 -44.5 -15t-16.5 -41v-6t1 -12v-11q0 -41 -35 -41q-29 0 -29 34q0 24 10.5 46t28.5 38t41.5 25.5t50.5 9.5q35 0 64 -16.5t43 -45.5q9 -17 12.5 -39.5
t3.5 -58.5v-209q0 -51 6.5 -70t23.5 -19q5 0 8.5 0.5t11.5 2.5v-26zM241 268q-71 -16 -102 -49.5t-31 -93.5q0 -42 16.5 -66.5t44.5 -24.5q38 0 55 35t17 113v86z" />
    <glyph glyph-name="agrave" unicode="&#xe0;" horiz-adv-x="383" 
d="M361 0q-15 -4 -25.5 -5.5t-21.5 -1.5q-29 0 -44 19.5t-19 62.5q-20 -45 -43.5 -64.5t-60.5 -19.5q-49 0 -79.5 35.5t-30.5 92.5q0 78 59 119q32 23 66 36t79 20v71q0 89 -60 89q-28 0 -44.5 -15t-16.5 -41v-6t1 -12v-11q0 -41 -35 -41q-29 0 -29 34q0 24 10.5 46t28.5 38
t41.5 25.5t50.5 9.5q35 0 64 -16.5t43 -45.5q9 -17 12.5 -39.5t3.5 -58.5v-209q0 -51 6.5 -70t23.5 -19q5 0 8.5 0.5t11.5 2.5v-26zM241 268q-71 -16 -102 -49.5t-31 -93.5q0 -42 16.5 -66.5t44.5 -24.5q38 0 55 35t17 113v86zM204 551l-132 147h89l78 -147h-35z" />
    <glyph glyph-name="aring" unicode="&#xe5;" horiz-adv-x="383" 
d="M361 0q-15 -4 -25.5 -5.5t-21.5 -1.5q-29 0 -44 19.5t-19 62.5q-20 -45 -43.5 -64.5t-60.5 -19.5q-49 0 -79.5 35.5t-30.5 92.5q0 78 59 119q32 23 66 36t79 20v71q0 89 -60 89q-28 0 -44.5 -15t-16.5 -41v-6t1 -12v-11q0 -41 -35 -41q-29 0 -29 34q0 24 10.5 46t28.5 38
t41.5 25.5t50.5 9.5q35 0 64 -16.5t43 -45.5q9 -17 12.5 -39.5t3.5 -58.5v-209q0 -51 6.5 -70t23.5 -19q5 0 8.5 0.5t11.5 2.5v-26zM241 268q-71 -16 -102 -49.5t-31 -93.5q0 -42 16.5 -66.5t44.5 -24.5q38 0 55 35t17 113v86zM200 707q30 0 52.5 -22.5t22.5 -53.5
q0 -32 -22 -54t-54 -22t-54.5 22t-22.5 54t23 54t55 22zM199 674q-17 0 -30.5 -13t-13.5 -30t13 -30t31 -13q17 0 30 13t13 30t-13 30t-30 13z" />
    <glyph glyph-name="atilde" unicode="&#xe3;" horiz-adv-x="383" 
d="M361 0q-15 -4 -25.5 -5.5t-21.5 -1.5q-29 0 -44 19.5t-19 62.5q-20 -45 -43.5 -64.5t-60.5 -19.5q-49 0 -79.5 35.5t-30.5 92.5q0 78 59 119q32 23 66 36t79 20v71q0 89 -60 89q-28 0 -44.5 -15t-16.5 -41v-6t1 -12v-11q0 -41 -35 -41q-29 0 -29 34q0 24 10.5 46t28.5 38
t41.5 25.5t50.5 9.5q35 0 64 -16.5t43 -45.5q9 -17 12.5 -39.5t3.5 -58.5v-209q0 -51 6.5 -70t23.5 -19q5 0 8.5 0.5t11.5 2.5v-26zM241 268q-71 -16 -102 -49.5t-31 -93.5q0 -42 16.5 -66.5t44.5 -24.5q38 0 55 35t17 113v86zM75 585q12 54 28.5 76t45.5 22q15 0 28.5 -7.5
t33.5 -25.5q14 -14 24 -19.5t20 -5.5q17 0 27.5 11.5t18.5 40.5l22 -6q-7 -50 -26.5 -76.5t-49.5 -26.5q-14 0 -29 9t-36 29q-12 11 -20 15.5t-19 4.5q-17 0 -27.5 -11.5t-18.5 -37.5z" />
    <glyph glyph-name="ccedilla" unicode="&#xe7;" horiz-adv-x="359" 
d="M321 154q-14 -149 -111 -164l-20 -49q38 -4 55 -20t17 -48q0 -34 -21.5 -54t-56.5 -20q-16 0 -29 3.5t-31 12.5v30q14 -5 22.5 -7t18.5 -2q40 0 40 43q0 22 -13 31.5t-46 11.5l30 68q-65 12 -101.5 76.5t-36.5 166.5q0 56 11.5 102t32.5 79t50 51.5t64 18.5q27 0 46 -9.5
t36 -32.5l20 51h15v-165h-19q-20 129 -88 129q-44 0 -68 -59.5t-24 -167.5q0 -103 22.5 -155.5t67.5 -52.5q71 0 85 132h32z" />
    <glyph glyph-name="eacute" unicode="&#xe9;" horiz-adv-x="377" 
d="M340 154q-8 -78 -44.5 -121t-96.5 -43q-37 0 -67 17t-51 49t-32.5 77.5t-11.5 102.5q0 55 11.5 100.5t32 77.5t49 50t63.5 18q69 0 106.5 -60.5t40.5 -174.5h-231q1 -33 2.5 -57.5t4 -43t6 -33.5t9.5 -30q11 -29 31 -44.5t46 -15.5q42 0 68 34t33 97h31zM270 283
q-6 173 -78 173q-69 0 -81 -173h159zM234 698h88l-131 -147h-36z" />
    <glyph glyph-name="ecircumflex" unicode="&#xea;" horiz-adv-x="377" 
d="M340 154q-8 -78 -44.5 -121t-96.5 -43q-37 0 -67 17t-51 49t-32.5 77.5t-11.5 102.5q0 55 11.5 100.5t32 77.5t49 50t63.5 18q69 0 106.5 -60.5t40.5 -174.5h-231q1 -33 2.5 -57.5t4 -43t6 -33.5t9.5 -30q11 -29 31 -44.5t46 -15.5q42 0 68 34t33 97h31zM270 283
q-6 173 -78 173q-69 0 -81 -173h159zM173 698h39l105 -146h-38l-86 86l-87 -86h-38z" />
    <glyph glyph-name="edieresis" unicode="&#xeb;" horiz-adv-x="377" 
d="M340 154q-8 -78 -44.5 -121t-96.5 -43q-37 0 -67 17t-51 49t-32.5 77.5t-11.5 102.5q0 55 11.5 100.5t32 77.5t49 50t63.5 18q69 0 106.5 -60.5t40.5 -174.5h-231q1 -33 2.5 -57.5t4 -43t6 -33.5t9.5 -30q11 -29 31 -44.5t46 -15.5q42 0 68 34t33 97h31zM270 283
q-6 173 -78 173q-69 0 -81 -173h159zM126 666q18 0 31.5 -13.5t13.5 -32.5t-13 -32t-32 -13t-32.5 13.5t-13.5 32.5q0 18 13.5 31.5t32.5 13.5zM270 666q18 0 31.5 -13.5t13.5 -32.5q0 -18 -13.5 -31.5t-32.5 -13.5t-32 13t-13 33q0 19 13.5 32t32.5 13z" />
    <glyph glyph-name="egrave" unicode="&#xe8;" horiz-adv-x="377" 
d="M340 154q-8 -78 -44.5 -121t-96.5 -43q-37 0 -67 17t-51 49t-32.5 77.5t-11.5 102.5q0 55 11.5 100.5t32 77.5t49 50t63.5 18q69 0 106.5 -60.5t40.5 -174.5h-231q1 -33 2.5 -57.5t4 -43t6 -33.5t9.5 -30q11 -29 31 -44.5t46 -15.5q42 0 68 34t33 97h31zM270 283
q-6 173 -78 173q-69 0 -81 -173h159zM204 551l-131 147h88l79 -147h-36z" />
    <glyph glyph-name="iacute" unicode="&#xed;" horiz-adv-x="239" 
d="M153 71q0 -32 10 -42t45 -12v-20q-32 4 -51 5t-39 1t-38.5 -1t-50.5 -5v20q17 1 27.5 3.5t16.5 8.5t8 16t2 26v316q0 20 -1.5 31.5t-7 17.5t-16 8t-28.5 2v17q34 4 63 10t60 16v-418zM153 698h88l-128 -147h-35z" />
    <glyph glyph-name="icircumflex" unicode="&#xee;" horiz-adv-x="246" 
d="M157 71q0 -32 10 -42t44 -12v-20q-31 4 -50 5t-39 1t-39 -1t-50 -5v20q17 2 27.5 4.5t16.5 8t8 15.5t2 26v316q0 20 -1.5 31.5t-7 17.5t-16.5 8t-29 2v17q34 4 63 10t61 16v-418zM99 698h38l95 -146h-36l-78 86l-79 -86h-36z" />
    <glyph glyph-name="idieresis" unicode="&#xef;" horiz-adv-x="236" 
d="M152 71q0 -32 10 -42t44 -12v-20q-31 4 -50 5t-39 1t-39 -1t-50 -5v20q17 2 27.5 4.5t16.5 8t8 15.5t2 26v316q0 20 -1.5 31.5t-7.5 17.5t-16.5 8t-28.5 2v17q65 7 124 26v-418zM56 666q18 0 31.5 -13.5t13.5 -32.5q0 -18 -13.5 -31.5t-32.5 -13.5t-32 13t-13 33
q0 19 13.5 32t32.5 13zM170 666q19 0 32 -13.5t13 -32.5t-13 -32t-32 -13t-32.5 13.5t-13.5 32.5q0 18 13.5 31.5t32.5 13.5z" />
    <glyph glyph-name="igrave" unicode="&#xec;" horiz-adv-x="229" 
d="M149 71q0 -32 10 -42t44 -12v-20q-32 4 -50.5 5t-38.5 1t-38.5 -1t-50.5 -5v20q17 1 27.5 3.5t16.5 8.5t8 16t2 26v316q0 20 -1.5 31.5t-7 17.5t-16 8t-28.5 2v17q64 7 123 26v-418zM118 551l-128 147h89l75 -147h-36z" />
    <glyph glyph-name="ntilde" unicode="&#xf1;" horiz-adv-x="448" 
d="M30 460q37 7 60.5 13t46.5 17q4 -19 5.5 -37t3.5 -50q21 41 47.5 59.5t61.5 18.5q31 0 56 -15t41 -42q20 -38 20 -108v-245q0 -32 10 -42t44 -12v-20q-31 4 -49 5t-38 1t-38.5 -1t-48.5 -5v20q30 2 40 12t10 40v251q0 33 -3 52t-11 33q-17 31 -54 31q-20 0 -38 -11
t-28 -29q-8 -16 -11.5 -33t-3.5 -47v-247q0 -29 10 -39.5t39 -12.5v-20q-30 4 -48 5t-38 1t-38 -1t-49 -5v20q17 1 27.5 3.5t16.5 8.5t8 16t2 26v309q0 21 -1 33t-5.5 18.5t-13 8.5t-23.5 2h-10v18zM105 585q12 54 28.5 76t45.5 22q15 0 29 -7.5t33 -25.5q14 -14 24 -19.5
t20 -5.5q17 0 27.5 11.5t18.5 40.5l22 -6q-7 -50 -26.5 -76.5t-49.5 -26.5q-14 0 -29 9t-36 29q-12 11 -20 15.5t-19 4.5q-17 0 -27.5 -11.5t-18.5 -37.5z" />
    <glyph glyph-name="oacute" unicode="&#xf3;" horiz-adv-x="385" 
d="M196 484q35 0 63 -18t48 -51.5t31 -80t11 -103.5q0 -66 -21 -124t-56 -87q-35 -31 -79 -31q-34 0 -63 18t-49.5 50.5t-32 78t-11.5 100.5t11.5 100.5t32.5 78.5t50.5 51t64.5 18zM194 458q-41 0 -62 -57t-21 -167q0 -219 81 -219q41 0 62 56t21 163q0 224 -81 224z
M235 698h88l-131 -147h-36z" />
    <glyph glyph-name="ocircumflex" unicode="&#xf4;" horiz-adv-x="385" 
d="M196 484q35 0 63 -18t48 -51.5t31 -80t11 -103.5q0 -66 -21 -124t-56 -87q-35 -31 -79 -31q-34 0 -63 18t-49.5 50.5t-32 78t-11.5 100.5t11.5 100.5t32.5 78.5t50.5 51t64.5 18zM194 458q-41 0 -62 -57t-21 -167q0 -219 81 -219q41 0 62 56t21 163q0 224 -81 224z
M174 698h38l105 -146h-38l-86 86l-86 -86h-38z" />
    <glyph glyph-name="odieresis" unicode="&#xf6;" horiz-adv-x="385" 
d="M196 484q35 0 63 -18t48 -51.5t31 -80t11 -103.5q0 -66 -21 -124t-56 -87q-35 -31 -79 -31q-34 0 -63 18t-49.5 50.5t-32 78t-11.5 100.5t11.5 100.5t32.5 78.5t50.5 51t64.5 18zM194 458q-41 0 -62 -57t-21 -167q0 -219 81 -219q41 0 62 56t21 163q0 224 -81 224z
M122 666q17 0 31 -14t14 -32t-14 -31.5t-32 -13.5q-19 0 -32 13t-13 33q0 19 13 32t33 13zM265 666q19 0 32 -13.5t13 -32.5t-13 -32t-32 -13t-32.5 13.5t-13.5 32.5q0 18 13.5 31.5t32.5 13.5z" />
    <glyph glyph-name="ograve" unicode="&#xf2;" horiz-adv-x="385" 
d="M196 484q35 0 63 -18t48 -51.5t31 -80t11 -103.5q0 -66 -21 -124t-56 -87q-35 -31 -79 -31q-34 0 -63 18t-49.5 50.5t-32 78t-11.5 100.5t11.5 100.5t32.5 78.5t50.5 51t64.5 18zM194 458q-41 0 -62 -57t-21 -167q0 -219 81 -219q41 0 62 56t21 163q0 224 -81 224z
M216 551l-131 147h89l78 -147h-36z" />
    <glyph glyph-name="otilde" unicode="&#xf5;" horiz-adv-x="385" 
d="M196 484q35 0 63 -18t48 -51.5t31 -80t11 -103.5q0 -66 -21 -124t-56 -87q-35 -31 -79 -31q-34 0 -63 18t-49.5 50.5t-32 78t-11.5 100.5t11.5 100.5t32.5 78.5t50.5 51t64.5 18zM194 458q-41 0 -62 -57t-21 -167q0 -219 81 -219q41 0 62 56t21 163q0 224 -81 224z
M74 585q13 54 29.5 76t45.5 22q15 0 28.5 -7.5t32.5 -25.5q14 -14 24.5 -19.5t20.5 -5.5q17 0 27.5 11.5t18.5 40.5l22 -6q-7 -50 -27 -76.5t-50 -26.5q-14 0 -28.5 9t-35.5 29q-12 11 -20.5 15.5t-18.5 4.5q-17 0 -27.5 -11.5t-18.5 -37.5z" />
    <glyph glyph-name="uacute" unicode="&#xfa;" horiz-adv-x="440" 
d="M18 463q33 4 62 10t61 16v-338q0 -62 16 -88t54 -26q80 0 80 127v223q0 18 -1.5 29.5t-6.5 18t-14 8.5t-23 2l-9 1v17q34 4 63 10t61 16v-400q0 -18 1.5 -28.5t6 -16.5t13.5 -8t24 -2h10v-18q-36 -5 -61 -10.5t-50 -15.5q-2 18 -3 30t-2 20t-1 14v13v11
q-19 -45 -45 -65.5t-65 -20.5q-118 0 -118 160v235q0 37 -8 47.5t-36 10.5l-9 1v17zM254 698h88l-131 -147h-36z" />
    <glyph glyph-name="ucircumflex" unicode="&#xfb;" horiz-adv-x="440" 
d="M18 463q33 4 62 10t61 16v-338q0 -62 16 -88t54 -26q80 0 80 127v223q0 18 -1.5 29.5t-6.5 18t-14 8.5t-23 2l-9 1v17q34 4 63 10t61 16v-400q0 -18 1.5 -28.5t6 -16.5t13.5 -8t24 -2h10v-18q-36 -5 -61 -10.5t-50 -15.5q-2 18 -3 30t-2 20t-1 14v13v11
q-19 -45 -45 -65.5t-65 -20.5q-118 0 -118 160v235q0 37 -8 47.5t-36 10.5l-9 1v17zM198 698h37l106 -146h-38l-87 86l-86 -86h-38z" />
    <glyph glyph-name="udieresis" unicode="&#xfc;" horiz-adv-x="440" 
d="M18 463q33 4 62 10t61 16v-338q0 -62 16 -88t54 -26q80 0 80 127v223q0 18 -1.5 29.5t-6.5 18t-14 8.5t-23 2l-9 1v17q34 4 63 10t61 16v-400q0 -18 1.5 -28.5t6 -16.5t13.5 -8t24 -2h10v-18q-36 -5 -61 -10.5t-50 -15.5q-2 18 -3 30t-2 20t-1 14v13v11
q-19 -45 -45 -65.5t-65 -20.5q-118 0 -118 160v235q0 37 -8 47.5t-36 10.5l-9 1v17zM146 666q17 0 31 -14t14 -32t-14 -31.5t-32 -13.5q-19 0 -32 13t-13 33q0 19 13 32t33 13zM289 666q19 0 32 -13.5t13 -32.5t-13 -32t-32 -13t-32.5 13.5t-13.5 32.5q0 18 13.5 31.5
t32.5 13.5z" />
    <glyph glyph-name="ugrave" unicode="&#xf9;" horiz-adv-x="440" 
d="M18 463q33 4 62 10t61 16v-338q0 -62 16 -88t54 -26q80 0 80 127v223q0 18 -1.5 29.5t-6.5 18t-14 8.5t-23 2l-9 1v17q34 4 63 10t61 16v-400q0 -18 1.5 -28.5t6 -16.5t13.5 -8t24 -2h10v-18q-36 -5 -61 -10.5t-50 -15.5q-2 18 -3 30t-2 20t-1 14v13v11
q-19 -45 -45 -65.5t-65 -20.5q-118 0 -118 160v235q0 37 -8 47.5t-36 10.5l-9 1v17zM231 551l-131 147h88l79 -147h-36z" />
    <glyph glyph-name="ydieresis" unicode="&#xff;" horiz-adv-x="409" 
d="M74 408q-4 14 -8.5 22.5t-11.5 13.5t-16.5 7.5t-24.5 3.5v20q27 -3 45.5 -4t39.5 -1t39 1t45 4v-20q-23 -2 -32.5 -6.5t-9.5 -13.5q0 -8 6 -28l79 -283l84 279l5 18.5t2 12.5q0 11 -10 15.5t-36 5.5v20q18 -2 31 -3t30 -1t32 1t38 3v-20q-27 -4 -40 -14.5t-21 -34.5
l-151 -489q-22 -73 -59 -97q-32 -19 -57 -16q-5 1 -6 1h-5v50h8q36 0 58.5 20t37.5 66l25 75zM148 666q18 0 31 -13.5t13 -32.5t-13 -32t-32 -13t-32.5 13.5t-13.5 32.5q0 18 14 31.5t33 13.5zM291 666q18 0 31.5 -13.5t13.5 -32.5t-13 -32t-32 -13t-32.5 13.5t-13.5 32.5
q0 18 13.5 31.5t32.5 13.5z" />
    <glyph glyph-name="Gbreve" unicode="&#x11e;" horiz-adv-x="515" 
d="M415 679h16v-198h-20q-19 88 -52.5 127.5t-87.5 39.5q-74 0 -111.5 -80.5t-37.5 -238.5q0 -153 37.5 -232t109.5 -79q26 0 49 8t52 26v173q0 14 -2 23t-8.5 14.5t-18 8t-30.5 4.5v24q32 -4 51.5 -5t39.5 -1t39.5 1t50.5 5v-24q-18 -2 -28.5 -4.5t-16 -8t-7 -14.5
t-1.5 -25v-165q-52 -37 -91.5 -53t-81.5 -16q-52 0 -93 24t-70 69t-44.5 109t-15.5 144q0 79 15.5 142.5t44 108.5t69 69t90.5 24q74 0 124 -57zM370 859q-5 -66 -32.5 -100.5t-74.5 -34.5t-74.5 34.5t-32.5 100.5h27q22 -74 80 -74t80 74h27z" />
    <glyph glyph-name="Idotaccent" unicode="&#x130;" horiz-adv-x="261" 
d="M231 -3q-39 5 -59.5 6.5t-39.5 1.5q-20 0 -40.5 -1.5t-60.5 -6.5v24q21 2 33.5 5.5t19 10.5t8.5 19t2 32v491q0 20 -2 32t-9 19t-19 10.5t-33 5.5v24q33 -4 54 -5.5t47 -1.5q25 0 45.5 1.5t53.5 5.5v-24q-20 -2 -32.5 -5.5t-19 -10.5t-8.5 -19t-2 -32v-491q0 -20 2 -32
t8.5 -19t18.5 -10.5t33 -5.5v-24zM132 842q20 0 33.5 -13.5t13.5 -34.5q0 -20 -14 -34.5t-34 -14.5t-34.5 14.5t-14.5 34.5t14.5 34t35.5 14z" />
    <glyph glyph-name="Scedilla" unicode="&#x15e;" horiz-adv-x="425" 
d="M210 -58q77 -6 77 -72q0 -34 -22.5 -56.5t-57.5 -22.5q-16 0 -30 3.5t-34 12.5v33q14 -5 23 -7t18 -2q19 0 32 13t13 32q0 22 -15 32t-49 12l31 73q-32 5 -55.5 17.5t-46.5 37.5l-27 -63h-15v217h20q11 -89 46.5 -134.5t92.5 -45.5q24 0 44 9.5t34.5 27t22.5 41.5t8 52
q0 25 -5 44.5t-18 36.5t-34 34t-53 36q-45 27 -74 49t-46 44.5t-23.5 47.5t-6.5 58q0 39 11 71t31.5 55t49 35.5t62.5 12.5q33 0 58 -12.5t46 -38.5l23 55h15v-184h-20q-14 78 -42 114t-74 36q-21 0 -39 -9t-31.5 -25t-21 -37.5t-7.5 -46.5q0 -22 5 -39t18.5 -33.5t37.5 -34
t63 -41.5q41 -25 67 -47t42 -44.5t22 -49t6 -60.5q0 -40 -10.5 -73.5t-30.5 -58t-47.5 -39t-62.5 -17.5z" />
    <glyph glyph-name="gbreve" unicode="&#x11f;" horiz-adv-x="404" 
d="M388 455v-40l-76 3q10 -20 14.5 -40t4.5 -44q0 -76 -47 -118q-14 -13 -28.5 -20.5t-47.5 -18.5l-23 -8q-41 -14 -54 -23t-13 -24q0 -18 15 -25t55 -8q14 -1 30 -3t31.5 -4.5t29 -6t21.5 -7.5q34 -14 52 -43.5t18 -70.5q0 -34 -12.5 -62t-35.5 -48t-55 -31t-71 -11
q-37 0 -68 10t-53 28t-34 43.5t-12 56.5q0 38 18.5 64t58.5 43q-22 12 -31 25t-9 33q0 55 84 82q-44 17 -68 53.5t-24 88.5q0 72 37.5 112t104.5 40q25 0 43.5 -6t38.5 -20h106zM196 456q-33 0 -52.5 -32.5t-19.5 -88.5q0 -60 19 -94.5t52 -34.5t51 33.5t18 95.5
q0 58 -18 89.5t-50 31.5zM188 17q-60 0 -92 -22t-32 -63q0 -21 10 -39.5t27 -31.5t41 -20.5t52 -7.5q57 0 90 25.5t33 70.5q0 41 -26 62q-15 11 -44 18.5t-59 7.5zM312 697q-3 -67 -31.5 -105.5t-75.5 -38.5q-48 0 -76 38t-32 106h27q23 -83 81 -83q57 0 80 83h27z" />
    <glyph glyph-name="scedilla" unicode="&#x15f;" horiz-adv-x="351" 
d="M172 -59q73 -9 73 -68q0 -33 -22 -53.5t-57 -20.5q-16 0 -29 3.5t-31 12.5v30q14 -5 22.5 -7t18.5 -2q19 0 30 11.5t11 30.5q0 22 -14 32t-46 12l30 70q-26 5 -44 14.5t-33 25.5l-18 -44h-15v167h19q11 -69 34.5 -101.5t65.5 -32.5q34 0 57.5 25t23.5 62q0 29 -16.5 50
t-56.5 42q-36 19 -59.5 35.5t-37.5 33t-19.5 35.5t-5.5 43q0 60 33.5 97t89.5 37q23 0 42 -7t37 -24l13 40h15v-155h-19q-10 118 -82 118q-31 0 -51.5 -23t-20.5 -58q0 -28 16.5 -48t56.5 -41q36 -19 60 -35t38.5 -33t20 -36t5.5 -43q0 -60 -31 -99t-83 -45z" />
    <glyph glyph-name="uni00A0" unicode="&#xa0;" horiz-adv-x="210" 
 />
    <glyph glyph-name="lozenge" unicode="&#x25ca;" horiz-adv-x="543" 
d="M479 334l-207 -360l-208 360l208 359zM114 334l158 -271l157 271l-157 270z" />
    <glyph glyph-name="Delta" unicode="&#x2206;" horiz-adv-x="543" 
d="M531 0h-518l246 683h25zM88 130q-5 -16 -8.5 -30t-3.5 -22q0 -31 37 -31h337l-194 550z" />
    <glyph glyph-name="notequal" unicode="&#x2260;" horiz-adv-x="446" 
d="M295 560l30 -16l-43 -106h139v-38h-154l-42 -102h196v-38h-212l-53 -132l-31 17l47 115h-147v38h163l41 102h-205v38h221z" />
    <glyph glyph-name="radical" unicode="&#x221a;" horiz-adv-x="543" 
d="M525 797h-96l-148 -797h-60l-69 361h-134v26h183l63 -337l145 773h116v-26z" />
    <glyph glyph-name="approxequal" unicode="&#x2248;" horiz-adv-x="446" 
d="M419 466q-26 -45 -59 -69.5t-68 -24.5q-12 0 -24.5 3t-33.5 11q-42 16 -65.5 22t-42.5 6q-26 0 -44 -12t-42 -47l-13 8q59 95 125 95q33 0 88 -22q23 -8 43 -13t34 -5q48 0 89 56zM419 312q-26 -45 -59 -69.5t-68 -24.5q-11 0 -23.5 3t-34.5 11q-42 16 -66.5 22.5
t-41.5 6.5q-23 0 -39 -10.5t-39 -39.5l-8 -10l-13 9q29 46 61 70.5t64 24.5q33 0 88 -22q23 -9 42.5 -14t34.5 -5q49 0 89 56z" />
    <glyph glyph-name="lessequal" unicode="&#x2264;" horiz-adv-x="410" 
d="M370 577l-256 -209l256 -213v-91l-330 275v6l330 267v-35zM370 32v-32h-330v32h330z" />
    <glyph glyph-name="greaterequal" unicode="&#x2265;" horiz-adv-x="410" 
d="M370 32v-32h-330v32h330zM40 98l256 209l-256 214v91l330 -277v-6l-330 -265v34z" />
    <glyph glyph-name="infinity" unicode="&#x221e;" horiz-adv-x="594" 
d="M284 295q-37 -64 -66.5 -88t-67.5 -24q-28 0 -52 11.5t-42 31.5t-28 46.5t-10 57.5q0 33 11 62t29.5 50.5t44 34t54.5 12.5q42 0 77 -27.5t70 -87.5q6 8 12 18q12 20 19.5 31.5t13 18.5t10 11.5t10.5 9.5q16 13 35.5 20t38.5 7q29 0 53.5 -12t43.5 -33t29.5 -48.5
t10.5 -59.5q0 -33 -11.5 -62t-31 -50.5t-46 -34t-56.5 -12.5q-42 0 -81 30t-70 87zM315 357q41 -68 76 -96.5t77 -28.5q19 0 35.5 8t28.5 21.5t19 32.5t7 40q0 48 -31.5 76.5t-83.5 28.5q-44 0 -72.5 -18.5t-55.5 -63.5zM272 314l-13 20l-8.5 14t-7 10.5l-8.5 10.5
q-26 34 -52 49.5t-58 15.5q-36 0 -60.5 -28.5t-24.5 -71.5q0 -46 29.5 -73.5t79.5 -27.5q41 0 68 17.5t55 63.5z" />
    <glyph glyph-name="product" unicode="&#x220f;" horiz-adv-x="593" 
d="M570 667v-18h-20q-19 0 -30.5 -2.5t-17.5 -11t-8 -24t-2 -42.5v-704q0 -26 2 -42t8 -24.5t17 -11t29 -2.5h22v-18h-220v18h19q20 0 31.5 2.5t17.5 11t8 24t2 42.5v704q0 27 -2 42.5t-8 24t-17.5 11t-31.5 2.5h-143q-19 0 -31 -2.5t-18 -11t-8 -24t-2 -42.5v-704
q0 -26 2 -42t8 -24.5t17 -11t30 -2.5h21v-18h-219v18h19q19 0 30.5 2.5t17.5 11t8 24t2 42.5v704q0 27 -2 42.5t-8 24t-17.5 11t-30.5 2.5h-22v18h547z" />
    <glyph glyph-name="summation" unicode="&#x2211;" horiz-adv-x="543" 
d="M460 667v-158h-15q-4 39 -12 64.5t-24 40.5t-40 21.5t-60 6.5h-180l165 -391l-190 -441h209q43 0 67 7.5t44 25.5q38 38 53 117h16l-27 -193h-414l194 449l-194 451h408z" />
    <glyph glyph-name="partialdiff" unicode="&#x2202;" horiz-adv-x="396" 
d="M133 681q27 -20 46 -36t34 -32t27.5 -34t27.5 -42q96 -157 96 -307q0 -53 -12.5 -97.5t-35 -77t-53 -50.5t-67.5 -18q-35 0 -65 18t-52.5 50t-35 75.5t-12.5 93.5q0 51 13 94t35.5 75t53.5 50t67 18q31 0 50 -12.5t39 -45.5q-22 54 -40 92.5t-37 68t-40.5 53t-50.5 48.5z
M200 437q-33 0 -56 -30q-10 -13 -18.5 -33.5t-15 -45.5t-10 -52.5t-3.5 -54.5q0 -30 4 -60t11.5 -55.5t17.5 -45.5t22 -31q21 -18 44 -18q22 0 40.5 16.5t32 46t21 70t7.5 89.5q0 45 -7 82.5t-19.5 64.5t-30.5 42t-40 15z" />
    <glyph glyph-name="uni03A9" unicode="&#x3a9;" 
d="M99 292q21 0 34.5 -13.5t13.5 -34.5q0 -20 -14 -34.5t-34 -14.5t-34.5 15t-14.5 35t14 33.5t35 13.5z" />
    <glyph glyph-name="pi" unicode="&#x3c0;" 
d="M99 292q21 0 34.5 -13.5t13.5 -34.5q0 -20 -14 -34.5t-34 -14.5t-34.5 15t-14.5 35t14 33.5t35 13.5z" />
    <glyph glyph-name="quotedbl" unicode="&#x22;" horiz-adv-x="312" 
d="M79 399l-9 268h61l-9 -268h-43zM190 399l-8 268h61l-9 -268h-44z" />
    <glyph glyph-name="exclam" unicode="!" horiz-adv-x="212" 
d="M72 654h69l-15 -454h-40zM108 90q21 0 34.5 -13.5t13.5 -34.5q0 -20 -14 -34.5t-34 -14.5t-34.5 15t-14.5 35t14 33.5t35 13.5z" />
    <glyph glyph-name=".null" horiz-adv-x="0" 
 />
    <glyph glyph-name="nonmarkingreturn" horiz-adv-x="210" 
 />
    <glyph glyph-name="fraction" unicode="&#x2044;" horiz-adv-x="51" 
d="M162 652h34l-306 -652h-34z" />
    <glyph glyph-name="currency" unicode="&#xa4;" horiz-adv-x="553" 
d="M124 165q-20 28 -29.5 55t-9.5 59q0 61 39 113l-76 75l38 38l75 -75q56 40 115 40q32 0 59 -9t56 -31l76 75l38 -38l-75 -75q21 -29 30 -55.5t9 -58.5q0 -60 -39 -113l76 -75l-38 -38l-76 75q-28 -21 -55 -30t-59 -9q-60 0 -115 39l-75 -75l-38 38zM279 412
q-28 0 -52.5 -10.5t-42.5 -28.5t-28.5 -42.5t-10.5 -52.5q0 -27 10.5 -51t28.5 -42t42 -28.5t51 -10.5t51 10.5t42 28.5t28.5 42t10.5 51t-10.5 51.5t-28.5 43t-41.5 29t-49.5 10.5z" />
    <glyph glyph-name="guilsinglleft" unicode="&#x2039;" horiz-adv-x="220" 
d="M171 472l-66 -233l66 -239h-26l-97 239l97 233h26z" />
    <glyph glyph-name="guilsinglright" unicode="&#x203a;" horiz-adv-x="223" 
d="M175 239l-97 -239h-26l66 239l-66 233h26z" />
    <glyph glyph-name="Lslash" unicode="&#x141;" horiz-adv-x="414" 
d="M94 579q0 20 -2 32t-9 19t-19 10.5t-33 5.5v24q33 -4 54 -5.5t47 -1.5q25 0 45.5 1.5t53.5 5.5v-24q-20 -2 -32.5 -5.5t-19 -10.5t-8.5 -19t-2 -32v-198l108 78v-42l-108 -78v-246q0 -35 10.5 -47t39.5 -12h55q24 0 41 5.5t29.5 20t21.5 39t17 62.5h18l-18 -161h-352v25
q21 2 33 5t19 10t9 19.5t2 31.5v201l-63 -46v42l63 46v245z" />
    <glyph glyph-name="lslash" unicode="&#x142;" horiz-adv-x="228" 
d="M151 71q0 -32 10 -42t45 -12v-20q-32 4 -51 5t-39 1t-38.5 -1t-50.5 -5v20q17 1 27.5 3.5t16.5 8.5t8 16t2 26v239l-54 -41v42l54 41v224q0 19 -1.5 30.5t-7 17.5t-16 8t-28.5 2v18q35 4 64 10t59 16v-278l54 41v-42l-54 -41v-287z" />
    <glyph glyph-name="onesuperior" unicode="&#xb9;" horiz-adv-x="283" 
d="M170 316q0 -22 6 -28t33 -8v-21q-9 1 -16 1.5l-14 1t-15 0.5h-20q-22 0 -33.5 -0.5t-29.5 -2.5v21q26 2 32 8t6 28v267h-53v21q32 2 54 19.5t30 46.5h20v-354z" />
    <glyph glyph-name="Eth" unicode="&#xd0;" horiz-adv-x="518" 
d="M27 331v37h63v208q0 20 -2 32t-9 19t-19 10t-33 5v25h194q72 0 119.5 -26.5t80.5 -86.5q26 -47 40 -103t14 -118q0 -43 -7 -85t-20.5 -78.5t-32 -67t-41.5 -50.5q-60 -52 -154 -52h-193v24q21 2 33 5.5t19 10.5t9 19t2 32v240h-63zM165 81q0 -33 9 -42.5t39 -9.5
q97 0 138 75q46 82 46 230q0 145 -46 228q-41 74 -134 74h-52v-268h118v-37h-118v-250z" />
    <glyph glyph-name="onehalf" unicode="&#xbd;" horiz-adv-x="595" 
d="M433 652h34l-306 -652h-34zM169 316q0 -22 6 -28t33 -8v-21q-19 2 -31 3t-33 1t-32.5 -1t-30.5 -3v21q26 2 32 8t6 28v268h-53v20q32 2 54 19.5t30 46.5h19v-354zM542 0h-190v38l8 11q95 129 129 214q6 14 6 36q0 26 -14.5 42t-37.5 16q-28 0 -43.5 -19.5t-20.5 -62.5
h-21q4 63 26.5 92t69.5 29q40 0 65 -25.5t25 -67.5q0 -18 -5 -36t-21 -45.5t-44.5 -68.5l-75.5 -105h150z" />
    <glyph glyph-name="Thorn" unicode="&#xde;" horiz-adv-x="446" 
d="M236 561q98 0 141 -53q20 -25 31 -59.5t11 -70.5q0 -85 -46.5 -133.5t-127.5 -48.5h-76v-108q0 -20 2 -32t8.5 -19t18.5 -10.5t33 -5.5v-24q-38 5 -59 6.5t-40 1.5q-20 0 -40.5 -1.5t-60.5 -6.5v24q21 2 33.5 5.5t19 10.5t8.5 19t2 32v491q0 20 -2 32t-9 19t-19 10.5
t-33 5.5v24q33 -4 54 -5.5t47 -1.5q25 0 45.5 1.5t53.5 5.5v-24q-20 -2 -32.5 -5.5t-19 -10.5t-8.5 -19t-2 -32v-18h67zM221 227q37 0 60.5 12t39.5 39q23 41 23 104q0 41 -11.5 75.5t-30.5 50.5q-27 22 -76 22h-57v-303h52z" />
    <glyph glyph-name="onequarter" unicode="&#xbc;" horiz-adv-x="595" 
d="M433 652h34l-306 -652h-33zM471 102h-136l138 300h49v-256h50v-44h-50v-111h-51v111zM472 351l-92 -205h92v205zM170 316q0 -22 6 -28t32 -8v-21q-19 2 -30.5 3t-33.5 1q-21 0 -32.5 -1t-30.5 -3v21q26 2 32 8t6 28v268h-53v20q32 2 54 19.5t30 46.5h20v-354z" />
    <glyph glyph-name="brokenbar" unicode="&#xa6;" horiz-adv-x="410" 
d="M224 667v-332h-38v332h38zM224 153v-320h-38v320h38z" />
    <glyph glyph-name="thorn" unicode="&#xfe;" horiz-adv-x="425" 
d="M147 413q34 68 93 68q33 0 60 -18t47 -50.5t31 -77.5t11 -99t-10.5 -99t-30 -77.5t-46.5 -50.5t-60 -18q-32 0 -53.5 16t-41.5 54v-187q0 -32 10 -42t44 -12v-20q-37 4 -55.5 5t-35.5 1t-35.5 -1t-51.5 -5v20q17 1 27.5 3.5t16.5 8.5t8 16t2 26v701q0 20 -1.5 31.5
t-7.5 17.5t-16.5 8t-28.5 2v18q35 4 64.5 10t59.5 16v-265zM233 453q-43 0 -65 -54t-22 -157q0 -223 88 -223q81 0 81 216q0 218 -82 218z" />
    <glyph glyph-name="threequarters" unicode="&#xbe;" horiz-adv-x="595" 
d="M434 652h33l-306 -652h-33zM471 102h-136l138 300h49v-256h50v-44h-50v-111h-51v111zM472 351l-92 -205h92v205zM59 376q3 -45 18.5 -65t44.5 -20q30 0 48.5 23t18.5 61q0 81 -75 81h-9v27h9q30 0 47 19t17 54q0 30 -14 47.5t-37 17.5q-49 0 -61 -73h-20q9 110 93 110
q40 0 64.5 -26.5t24.5 -69.5q0 -32 -13.5 -53t-43.5 -36q70 -25 70 -100q0 -51 -30 -84.5t-77 -33.5q-92 0 -97 121h22z" />
    <glyph glyph-name="twosuperior" unicode="&#xb2;" horiz-adv-x="283" 
d="M231 260h-190v38l8 11q48 65 80 118t49 95q6 15 6 38q0 25 -14.5 42t-37.5 17q-54 0 -64 -83h-21q2 31 6 48.5t14 33.5q11 18 31.5 29t44.5 11q39 0 64.5 -26t25.5 -67q0 -18 -5.5 -36.5t-21 -46.5t-44 -69l-75.5 -105h150z" />
    <glyph glyph-name="minus" unicode="&#x2212;" horiz-adv-x="428" 
d="M48 367h333v-59h-333v59z" />
    <glyph glyph-name="eth" unicode="&#xf0;" horiz-adv-x="385" 
d="M176 558l-59 -46l-15 28l59 47l-43 76l19 15l50 -70l62 49l15 -29l-59 -47l66 -104q22 -34 37 -63.5t24 -58t13 -58t4 -63.5q0 -53 -11.5 -98t-32 -77.5t-49 -50.5t-62.5 -18t-63 18t-50 51t-32.5 78.5t-11.5 100.5q0 53 11.5 97.5t32 77t49 51t62.5 18.5q11 0 17 -2
t15 -7zM193 456q-41 0 -61.5 -53.5t-20.5 -158.5q0 -228 83 -228q81 0 81 215q0 110 -21 167.5t-61 57.5z" />
    <glyph glyph-name="multiply" unicode="&#xd7;" horiz-adv-x="428" 
d="M99 525l116 -146l116 144l32 -40l-115 -145l116 -145l-34 -44l-117 146l-115 -144l-33 41l116 144l-117 146z" />
    <glyph glyph-name="threesuperior" unicode="&#xb3;" horiz-adv-x="283" 
d="M59 377q4 -45 19 -65t44 -20q31 0 48.5 22.5t17.5 61.5q0 42 -18 61t-57 19h-8v27h8q32 0 48.5 19t16.5 54q0 30 -14 47.5t-37 17.5q-49 0 -61 -73h-20q9 110 93 110q40 0 65 -27t25 -69q0 -62 -57 -89q69 -22 69 -99q0 -52 -30 -85t-77 -33q-92 0 -97 121h22z" />
    <glyph glyph-name="Scaron" unicode="&#x160;" horiz-adv-x="425" 
d="M72 202q11 -89 46.5 -134.5t92.5 -45.5q48 0 78.5 36.5t30.5 93.5q0 25 -5 44.5t-18 36.5t-34 34t-53 36q-45 27 -74 49t-46 44.5t-23.5 47.5t-6.5 58q0 39 11.5 71t31.5 55t48.5 35.5t62.5 12.5q33 0 58 -12.5t46 -38.5l23 55h15v-184h-20q-14 78 -42 114t-74 36
q-21 0 -39 -9t-31.5 -25t-21 -37.5t-7.5 -46.5q0 -22 5 -39t18.5 -33.5t38 -34.5t62.5 -41q40 -25 66.5 -46.5t42 -44.5t22 -49.5t6.5 -61.5q0 -41 -12 -75.5t-33 -59t-50.5 -38.5t-65.5 -14q-37 0 -67 13.5t-59 43.5l-28 -63h-15v217h20zM240 723h-44l-114 136h40l96 -83
l96 83h40z" />
    <glyph glyph-name="Yacute" unicode="&#xdd;" horiz-adv-x="483" 
d="M89 591q-6 15 -12.5 25t-14.5 16t-19 9t-27 5v24q31 -4 52.5 -5.5t47.5 -1.5t47.5 1.5t52.5 5.5v-24q-32 -3 -43.5 -8.5t-11.5 -17.5q0 -13 7 -32l101 -256l98 257q8 21 8 31q0 12 -11.5 17.5t-42.5 8.5v24q26 -3 42 -4t33 -1t32.5 1t41.5 4v-24q-17 -3 -28 -6t-19 -9
t-13.5 -15t-11.5 -24l-117 -301v-203q0 -20 2 -32t8.5 -19t18.5 -10.5t33 -5.5v-24l-33.5 3.5t-26 2.5t-21 1.5t-19.5 0.5q-19 0 -39.5 -1.5t-60.5 -6.5v24q21 2 33.5 5.5t19 10.5t8.5 19t2 32v203zM316 861h96l-157 -137h-40z" />
    <glyph glyph-name="Zcaron" unicode="&#x17d;" horiz-adv-x="440" 
d="M316 636h-130q-22 0 -38.5 -5.5t-28 -19t-20 -36t-16.5 -56.5h-21l21 148h326l-286 -636h147q30 0 45.5 5t26.5 18q8 10 14 20t11.5 22.5t11 28.5t11.5 37h20l-23 -162h-357zM270 724h-45l-114 135h40l96 -83l97 83h40z" />
    <glyph glyph-name="scaron" unicode="&#x161;" horiz-adv-x="351" 
d="M48 155h19q11 -69 35 -101.5t66 -32.5q33 0 56.5 25.5t23.5 61.5q0 29 -16.5 50t-56.5 42q-36 19 -59.5 35.5t-37.5 33t-19.5 35.5t-5.5 43q0 60 33.5 97t89.5 37q23 0 42 -7t37 -24l13 40h15v-155h-19q-5 61 -25 89.5t-57 28.5q-31 0 -51.5 -23t-20.5 -58
q0 -28 16.5 -48t56.5 -41q36 -19 60 -35t38.5 -33t20 -36t5.5 -43q0 -64 -36.5 -104.5t-94.5 -40.5q-28 0 -50.5 9.5t-44.5 31.5l-18 -44h-15v167zM195 550h-38l-105 146h38l86 -86l87 86h38z" />
    <glyph glyph-name="yacute" unicode="&#xfd;" horiz-adv-x="409" 
d="M74 408q-4 14 -8.5 22.5t-11.5 13.5t-16.5 7.5t-24.5 3.5v20q27 -3 45.5 -4t39.5 -1t39 1t45 4v-20q-23 -2 -32.5 -6.5t-9.5 -13.5q0 -8 6 -28l79 -283l84 279l5 18.5t2 12.5q0 11 -10 15.5t-36 5.5v20q18 -2 31 -3t30 -1t32 1t38 3v-20q-27 -4 -40 -14.5t-21 -34.5
l-151 -489q-22 -73 -59 -97q-32 -19 -57 -16q-5 1 -6 1h-5v50h8q36 0 58.5 20t37.5 66l25 75zM255 698h89l-131 -147h-36z" />
    <glyph glyph-name="zcaron" unicode="&#x17e;" horiz-adv-x="368" 
d="M246 446h-85q-18 0 -31 -4t-23 -13.5t-18 -26.5t-16 -43q-4 -9 -5 -17h-18l18 130h266l-215 -446h91q21 0 35 4.5t25 17.5t20.5 36t19.5 60h18l-21 -144h-275zM220 546h-38l-105 150h38l86 -86l86 86h38z" />
    <glyph glyph-name="figuredash" unicode="&#x2012;" horiz-adv-x="428" 
d="M72 289h284v-43h-284v43z" />
    <glyph glyph-name="uni01CD" unicode="&#x1cd;" horiz-adv-x="524" 
d="M122 99q-4 -14 -6.5 -27t-2.5 -21q0 -15 11.5 -21.5t40.5 -8.5v-24q-24 3 -40.5 4t-35.5 1t-35 -1t-41 -4v24q18 2 29.5 4.5t19 10t13.5 20.5t13 35l184 597l166 -608q5 -17 10 -28t13 -17t19.5 -9t30.5 -5v-24q-34 5 -54.5 6.5t-42.5 1.5q-23 0 -43.5 -1.5t-54.5 -6.5
v24q26 3 37 9.5t11 20.5q0 11 -5 34l-27 108h-182zM324 224l-76 297l-89 -297h165zM293 723h-44l-114 136h40l96 -83l97 83h39z" />
    <glyph glyph-name="Abreve" unicode="&#x102;" horiz-adv-x="524" 
d="M122 99q-4 -14 -6.5 -27t-2.5 -21q0 -15 11.5 -21.5t40.5 -8.5v-24q-24 3 -40.5 4t-35.5 1t-35 -1t-41 -4v24q18 2 29.5 4.5t19 10t13.5 20.5t13 35l184 597l166 -608q5 -17 10 -28t13 -17t19.5 -9t30.5 -5v-24q-34 5 -54.5 6.5t-42.5 1.5q-23 0 -43.5 -1.5t-54.5 -6.5
v24q26 3 37 9.5t11 20.5q0 11 -5 34l-27 108h-182zM324 224l-76 297l-89 -297h165zM377 859q-5 -66 -32.5 -100.5t-74.5 -34.5q-48 0 -75.5 34.5t-32.5 100.5h27q22 -74 81 -74q58 0 80 74h27z" />
    <glyph glyph-name="Aogonek" unicode="&#x104;" horiz-adv-x="524" 
d="M512 -153q-38 -16 -66 -16q-35 0 -57 22t-22 56q0 44 48 75q7 5 14 8t29 11l-29.5 1.5t-15.5 0.5q-22 0 -42 -1.5t-55 -6.5v24q26 3 37 9.5t11 20.5q0 11 -5 34l-27 108h-182l-28 -94q-4 -14 -6.5 -27t-2.5 -21q0 -15 11.5 -21.5t40.5 -8.5v-24q-24 3 -40.5 4t-35.5 1
t-35 -1t-41 -4v24q18 2 29.5 4.5t19 10t13.5 20.5t13 35l184 597l166 -608q5 -17 10 -28t13 -17t19.5 -9t30.5 -5v-23h-5q-11 -3 -24 -10t-27 -20q-28 -22 -28 -51q0 -20 12.5 -33.5t32.5 -13.5q8 0 17 2t23 7v-32zM324 224l-76 297l-89 -297h165z" />
    <glyph glyph-name="Cacute" unicode="&#x106;" horiz-adv-x="490" 
d="M435 225q-4 -111 -51 -174.5t-125 -63.5q-48 0 -87.5 25t-67 70t-43 108.5t-15.5 141.5q0 79 15.5 143t43.5 109.5t68.5 70t89.5 24.5q40 0 69 -13.5t54 -44.5l27 56h16v-196h-20q-17 85 -49.5 125.5t-86.5 40.5q-72 0 -110 -80.5t-38 -232.5q0 -145 38 -223.5t109 -78.5
q59 0 94 50.5t40 142.5h29zM310 861h97l-158 -137h-40z" />
    <glyph glyph-name="Ccaron" unicode="&#x10c;" horiz-adv-x="490" 
d="M435 225q-4 -111 -51 -174.5t-125 -63.5q-48 0 -87.5 25t-67 70t-43 108.5t-15.5 141.5q0 79 15.5 143t43.5 109.5t68.5 70t89.5 24.5q40 0 69 -13.5t54 -44.5l27 56h16v-196h-20q-17 85 -49.5 125.5t-86.5 40.5q-72 0 -110 -80.5t-38 -232.5q0 -145 38 -223.5t109 -78.5
q59 0 94 50.5t40 142.5h29zM287 723h-45l-114 136h40l96 -83l97 83h39z" />
    <glyph glyph-name="Cdotaccent" unicode="&#x10a;" horiz-adv-x="490" 
d="M435 225q-4 -111 -51 -174.5t-125 -63.5q-48 0 -87.5 25t-67 70t-43 108.5t-15.5 141.5q0 79 15.5 143t43.5 109.5t68.5 70t89.5 24.5q40 0 69 -13.5t54 -44.5l27 56h16v-196h-20q-17 85 -49.5 125.5t-86.5 40.5q-72 0 -110 -80.5t-38 -232.5q0 -145 38 -223.5t109 -78.5
q59 0 94 50.5t40 142.5h29zM260 842q20 0 34 -14t14 -34t-14.5 -34.5t-34.5 -14.5t-34 14.5t-14 34.5q0 21 14 34.5t35 13.5z" />
    <glyph glyph-name="Dcaron" unicode="&#x10e;" horiz-adv-x="518" 
d="M27 667h194q72 0 119.5 -26.5t81.5 -86.5q26 -47 40 -103t14 -117q0 -43 -7 -85t-20.5 -79t-32 -67t-41.5 -50q-59 -53 -154 -53h-194v24q21 2 33 5.5t19 10.5t9 19t2 32v485q0 20 -2 32t-9 19t-19 10t-33 5v25zM165 81q0 -33 9 -42.5t39 -9.5q98 0 139 75q46 82 46 231
q0 145 -46 227q-41 74 -134 74h-53v-555zM255 724h-45l-114 135h40l96 -83l97 83h39z" />
    <glyph glyph-name="Dcroat" unicode="&#x110;" horiz-adv-x="518" 
d="M27 331v37h63v208q0 20 -2 32t-9 19t-19 10t-33 5v25h194q72 0 119.5 -26.5t80.5 -86.5q26 -47 40 -103t14 -118q0 -43 -7 -85t-20.5 -78.5t-32 -67t-41.5 -50.5q-60 -52 -154 -52h-193v24q21 2 33 5.5t19 10.5t9 19t2 32v240h-63zM165 81q0 -33 9 -42.5t39 -9.5
q97 0 138 75q46 82 46 230q0 145 -46 228q-41 74 -134 74h-52v-268h118v-37h-118v-250z" />
    <glyph glyph-name="Ecaron" unicode="&#x11a;" horiz-adv-x="445" 
d="M383 0h-352v25q21 2 33 5t19 10t9 19t2 32v485q0 20 -2 32t-9 19t-19 10t-33 5v25h348l14 -150h-19q-7 36 -15 59t-18.5 36.5t-24.5 18.5t-35 5h-112v-274h111q26 0 35 15.5t11 66.5h20v-196h-20q-1 25 -4 41t-8.5 25.5t-14.5 13t-23 3.5h-107v-241q0 -35 10.5 -47
t41.5 -12h55q24 0 40.5 6t28.5 20.5t21 39.5t17 64h19zM250 724h-45l-113 135h40l96 -83l96 83h40z" />
    <glyph glyph-name="Edotaccent" unicode="&#x116;" horiz-adv-x="445" 
d="M383 0h-352v25q21 2 33 5t19 10t9 19t2 32v485q0 20 -2 32t-9 19t-19 10t-33 5v25h348l14 -150h-19q-7 36 -15 59t-18.5 36.5t-24.5 18.5t-35 5h-112v-274h111q26 0 35 15.5t11 66.5h20v-196h-20q-1 25 -4 41t-8.5 25.5t-14.5 13t-23 3.5h-107v-241q0 -35 10.5 -47
t41.5 -12h55q24 0 40.5 6t28.5 20.5t21 39.5t17 64h19zM230 842q21 0 34.5 -14t13.5 -34t-14 -34.5t-34 -14.5t-34.5 14.5t-14.5 34.5q0 21 14 34.5t35 13.5z" />
    <glyph glyph-name="Eogonek" unicode="&#x118;" horiz-adv-x="445" 
d="M384 -153q-19 -8 -34 -12t-32 -4q-34 0 -56 22t-22 55q0 60 82 92h-291v25q21 2 33 5t19 10t9 19t2 32v485q0 20 -2 32t-9 19t-19 10t-33 5v25h348l15 -150h-19q-8 36 -16 59t-18.5 36.5t-24.5 18.5t-35 5h-112v-274h111q26 0 35 15.5t11 66.5h20v-196h-20
q-2 49 -11.5 66t-35.5 17h-110v-241q0 -35 10.5 -47t41.5 -12h55q24 0 40.5 6t28.5 20.5t21 39.5t17 64h19l-18 -161q-84 -30 -84 -83q0 -21 12 -34t32 -13q9 0 17.5 2t22.5 7v-32z" />
    <glyph glyph-name="Gcaron" unicode="&#x1e6;" horiz-adv-x="515" 
d="M415 679h16v-198h-20q-19 88 -52.5 127.5t-87.5 39.5q-74 0 -111.5 -80.5t-37.5 -238.5q0 -153 37.5 -232t109.5 -79q26 0 49 8t52 26v173q0 14 -2 23t-8.5 14.5t-18 8t-30.5 4.5v24q32 -4 51.5 -5t39.5 -1t39.5 1t50.5 5v-24q-18 -2 -28.5 -4.5t-16 -8t-7 -14.5
t-1.5 -25v-165q-52 -37 -91.5 -53t-81.5 -16q-52 0 -93 24t-70 69t-44.5 109t-15.5 144q0 79 15.5 142.5t44 108.5t69 69t90.5 24q74 0 124 -57zM287 724h-45l-113 135h39l97 -83l96 83h40z" />
    <glyph glyph-name="Gdotaccent" unicode="&#x120;" horiz-adv-x="515" 
d="M415 679h16v-198h-20q-19 88 -52.5 127.5t-87.5 39.5q-74 0 -111.5 -80.5t-37.5 -238.5q0 -153 37.5 -232t109.5 -79q26 0 49 8t52 26v173q0 14 -2 23t-8.5 14.5t-18 8t-30.5 4.5v24q32 -4 51.5 -5t39.5 -1t39.5 1t50.5 5v-24q-18 -2 -28.5 -4.5t-16 -8t-7 -14.5
t-1.5 -25v-165q-52 -37 -91.5 -53t-81.5 -16q-52 0 -93 24t-70 69t-44.5 109t-15.5 144q0 79 15.5 142.5t44 108.5t69 69t90.5 24q74 0 124 -57zM269 842q20 0 33.5 -14t13.5 -34t-14 -34.5t-34 -14.5t-34.5 14.5t-14.5 34.5q0 21 14 34.5t36 13.5z" />
    <glyph glyph-name="Lacute" unicode="&#x139;" horiz-adv-x="414" 
d="M384 0h-353v25q21 2 33 5t19 10t9 19.5t2 31.5v488q0 20 -2 32t-9 19t-19 10.5t-33 5.5v24q33 -4 54 -5.5t47 -1.5q25 0 45.5 1.5t53.5 5.5v-24q-20 -2 -32.5 -5.5t-19 -10.5t-8.5 -19t-2 -32v-486q0 -35 10.5 -47t39.5 -12h56q24 0 41 5.5t29 20t21 39t17 62.5h19z
M197 861h97l-157 -137h-40z" />
    <glyph glyph-name="Lcaron" unicode="&#x13d;" horiz-adv-x="414" 
d="M384 0h-353v25q21 2 33 5t19 10t9 19.5t2 31.5v488q0 20 -2 32t-9 19t-19 10.5t-33 5.5v24q33 -4 54 -5.5t47 -1.5q25 0 45.5 1.5t53.5 5.5v-24q-20 -2 -32.5 -5.5t-19 -10.5t-8.5 -19t-2 -32v-486q0 -35 10.5 -47t39.5 -12h56q24 0 41 5.5t29 20t21 39t17 62.5h19z
M267 484q22 23 35 50.5t14 50.5h-4q-3 -1 -7 -1q-17 0 -27 12.5t-10 33.5q0 23 11.5 36.5t31.5 13.5t32 -17t12 -46q0 -34 -12 -65.5t-38 -67.5h-38z" />
    <glyph glyph-name="Nacute" unicode="&#x143;" horiz-adv-x="548" 
d="M442 -20l-9 17.5l-8 15.5l-9 18.5t-14 27.5l-21.5 40l-21.5 40l-234 438v-489q0 -20 2 -32t9 -19t19.5 -10.5t34.5 -5.5v-24q-18 1 -30 2t-21 2t-16 1h-14q-14 0 -30 -1t-48 -4v24q22 2 35 5.5t19.5 10.5t8.5 19t2 32v528q-11 15 -25 21.5t-41 8.5v24q19 -2 33 -2.5
t35 -0.5q20 0 31 0.5t28 2.5l268 -500v409q0 20 -2 32t-9 19t-19.5 10.5t-33.5 5.5v24q17 -1 29.5 -2t21.5 -2t16 -1h14q14 0 30 1t48 4v-24q-21 -2 -34 -5.5t-20 -10.5t-9 -19t-2 -32v-599h-13zM329 861h97l-158 -137h-40z" />
    <glyph glyph-name="Ncaron" unicode="&#x147;" horiz-adv-x="548" 
d="M442 -20l-9 17.5l-8 15.5l-9 18.5t-14 27.5l-21.5 40l-21.5 40l-234 438v-489q0 -20 2 -32t9 -19t19.5 -10.5t34.5 -5.5v-24q-18 1 -30 2t-21 2t-16 1h-14q-14 0 -30 -1t-48 -4v24q22 2 35 5.5t19.5 10.5t8.5 19t2 32v528q-11 15 -25 21.5t-41 8.5v24q19 -2 33 -2.5
t35 -0.5q20 0 31 0.5t28 2.5l268 -500v409q0 20 -2 32t-9 19t-19.5 10.5t-33.5 5.5v24q17 -1 29.5 -2t21.5 -2t16 -1h14q14 0 30 1t48 4v-24q-21 -2 -34 -5.5t-20 -10.5t-9 -19t-2 -32v-599h-13zM295 724h-45l-113 135h39l97 -83l96 83h40z" />
    <glyph glyph-name="Ohungarumlaut" unicode="&#x150;" horiz-adv-x="516" 
d="M257 680q43 0 81.5 -20.5t64.5 -57.5q35 -51 52 -118t17 -161q0 -46 -7.5 -91t-20.5 -83.5t-31.5 -69t-40.5 -49.5q-49 -42 -113 -42q-41 0 -77.5 17.5t-63.5 51.5q-34 42 -54.5 116.5t-20.5 158.5q0 79 15 143.5t43 110t67.5 70t88.5 24.5zM258 652q-31 0 -56.5 -21.5
t-43 -62t-27 -99t-9.5 -131.5q0 -154 36 -238t102 -84q63 0 97.5 82t34.5 234q0 88 -12 155.5t-34 104.5q-35 60 -88 60zM379 861h77l-127 -137h-37zM253 861h77l-126 -137h-37z" />
    <glyph glyph-name="Racute" unicode="&#x154;" horiz-adv-x="487" 
d="M168 88q0 -19 2 -31.5t8.5 -19.5t19 -10.5t32.5 -5.5v-24q-38 5 -58 6.5t-40 1.5t-41 -1.5t-60 -6.5v24q21 2 33.5 5.5t19 10.5t8.5 19t2 32v488q0 20 -2 32t-9 19t-19 10t-33 5v25h209q94 0 137 -54q18 -23 28.5 -55t10.5 -66q0 -135 -134 -169q14 -4 24.5 -10.5t19 -16
t16 -24.5t14.5 -36l53 -157q6 -18 11.5 -29t12.5 -17t16.5 -8.5t24.5 -3.5v-24q-18 2 -30 2.5t-26 0.5q-13 0 -25 -0.5t-30 -2.5q-6 15 -11.5 30.5l-10.5 30.5l-59 179q-15 47 -33 63.5t-53 16.5h-28v-229zM226 348q58 0 85 35q14 18 22 49t8 63q0 141 -111 141h-61v-288h57
zM271 861h97l-157 -137h-41z" />
    <glyph glyph-name="Rcaron" unicode="&#x158;" horiz-adv-x="487" 
d="M168 88q0 -19 2 -31.5t8.5 -19.5t19 -10.5t32.5 -5.5v-24q-38 5 -58 6.5t-40 1.5t-41 -1.5t-60 -6.5v24q21 2 33.5 5.5t19 10.5t8.5 19t2 32v488q0 20 -2 32t-9 19t-19 10t-33 5v25h209q94 0 137 -54q18 -23 28.5 -55t10.5 -66q0 -135 -134 -169q14 -4 24.5 -10.5t19 -16
t16 -24.5t14.5 -36l53 -157q6 -18 11.5 -29t12.5 -17t16.5 -8.5t24.5 -3.5v-24q-18 2 -30 2.5t-26 0.5q-13 0 -25 -0.5t-30 -2.5q-6 15 -11.5 30.5l-10.5 30.5l-59 179q-15 47 -33 63.5t-53 16.5h-28v-229zM226 348q58 0 85 35q14 18 22 49t8 63q0 141 -111 141h-61v-288h57
zM245 724h-46l-113 135h40l96 -83l96 83h40z" />
    <glyph glyph-name="Sacute" unicode="&#x15a;" horiz-adv-x="425" 
d="M72 202q11 -89 46.5 -134.5t92.5 -45.5q48 0 78.5 36.5t30.5 93.5q0 25 -5 44.5t-18 36.5t-34 34t-53 36q-45 27 -74 49t-46 44.5t-23.5 47.5t-6.5 58q0 39 11.5 71t31.5 55t48.5 35.5t62.5 12.5q33 0 58 -12.5t46 -38.5l23 55h15v-184h-20q-14 78 -42 114t-74 36
q-21 0 -39 -9t-31.5 -25t-21 -37.5t-7.5 -46.5q0 -22 5 -39t18.5 -33.5t38 -34.5t62.5 -41q40 -25 66.5 -46.5t42 -44.5t22 -49.5t6.5 -61.5q0 -41 -12 -75.5t-33 -59t-50.5 -38.5t-65.5 -14q-37 0 -67 13.5t-59 43.5l-28 -63h-15v217h20zM267 861h97l-157 -137h-41z" />
    <glyph glyph-name="Tcaron" unicode="&#x164;" horiz-adv-x="433" 
d="M394 514q-9 38 -17 61.5t-18.5 37t-24.5 18.5t-34 5h-46v-548q0 -20 2 -32t8.5 -19t18.5 -10.5t33 -5.5v-24q-37 5 -58 6.5t-41 1.5t-41.5 -1.5t-59.5 -6.5v24q21 2 33.5 5.5t19 10.5t8.5 19t2 32v548h-41q-21 0 -35.5 -5t-25.5 -18.5t-19.5 -37.5t-17.5 -61h-20l22 153
h350l22 -153h-20zM241 724h-45l-113 135h39l97 -83l96 83h40z" />
    <glyph glyph-name="Uring" unicode="&#x16e;" horiz-adv-x="542" 
d="M357 670q17 -1 29.5 -2t21.5 -2t16 -1h14q14 0 30 1t47 4v-24q-21 -2 -33.5 -5.5t-19.5 -10.5t-9 -19t-2 -32v-375q0 -46 -6 -76t-22 -57q-23 -40 -61.5 -61t-89.5 -21q-52 0 -93 22t-64 64q-14 25 -20 52.5t-6 72.5v379q0 20 -2 32t-9 19t-19 10.5t-33 5.5v24
q33 -4 54 -5.5t47 -1.5q25 0 45.5 1.5t53.5 5.5v-24q-20 -2 -32.5 -5.5t-19 -10.5t-8.5 -19t-2 -32v-387q0 -41 3.5 -63.5t12.5 -39.5q15 -27 43 -41.5t64 -14.5q31 0 58 11.5t44 31.5q15 17 23.5 49.5t8.5 72.5v381q0 20 -2 32t-9 19t-19.5 10.5t-33.5 5.5v24zM290 873
q31 0 52.5 -22t21.5 -54t-22 -54t-54 -22t-54 22.5t-22 54.5q0 31 23 53t55 22zM289 840q-17 0 -30.5 -13t-13.5 -30t13 -30t30 -13q18 0 30.5 12.5t12.5 30.5q0 17 -12.5 30t-29.5 13z" />
    <glyph glyph-name="Uhungarumlaut" unicode="&#x170;" horiz-adv-x="542" 
d="M357 670q17 -1 29.5 -2t21.5 -2t16 -1h14q14 0 30 1t47 4v-24q-21 -2 -33.5 -5.5t-19.5 -10.5t-9 -19t-2 -32v-375q0 -46 -6 -76t-22 -57q-23 -40 -61.5 -61t-89.5 -21q-52 0 -93 22t-64 64q-14 25 -20 52.5t-6 72.5v379q0 20 -2 32t-9 19t-19 10.5t-33 5.5v24
q33 -4 54 -5.5t47 -1.5q25 0 45.5 1.5t53.5 5.5v-24q-20 -2 -32.5 -5.5t-19 -10.5t-8.5 -19t-2 -32v-387q0 -41 3.5 -63.5t12.5 -39.5q15 -27 43 -41.5t64 -14.5q31 0 58 11.5t44 31.5q15 17 23.5 49.5t8.5 72.5v381q0 20 -2 32t-9 19t-19.5 10.5t-33.5 5.5v24zM402 861h77
l-127 -137h-37zM276 861h77l-126 -137h-37z" />
    <glyph glyph-name="Zacute" unicode="&#x179;" horiz-adv-x="440" 
d="M316 636h-130q-22 0 -38.5 -5.5t-28 -19t-20 -36t-16.5 -56.5h-21l21 148h326l-286 -636h147q30 0 45.5 5t26.5 18q8 10 14 20t11.5 22.5t11 28.5t11.5 37h20l-23 -162h-357zM292 861h97l-157 -137h-40z" />
    <glyph glyph-name="Zdotaccent" unicode="&#x17b;" horiz-adv-x="440" 
d="M316 636h-130q-22 0 -38.5 -5.5t-28 -19t-20 -36t-16.5 -56.5h-21l21 148h326l-286 -636h147q30 0 45.5 5t26.5 18q8 10 14 20t11.5 22.5t11 28.5t11.5 37h20l-23 -162h-357zM248 842q20 0 33.5 -14t13.5 -34t-14 -34.5t-34 -14.5t-34.5 14.5t-14.5 34.5q0 21 14 34.5
t36 13.5z" />
    <glyph glyph-name="Amacron" unicode="&#x100;" horiz-adv-x="524" 
d="M122 99q-4 -14 -6.5 -27t-2.5 -21q0 -15 11.5 -21.5t40.5 -8.5v-24q-24 3 -40.5 4t-35.5 1t-35 -1t-41 -4v24q18 2 29.5 4.5t19 10t13.5 20.5t13 35l184 597l166 -608q5 -17 10 -28t13 -17t19.5 -9t30.5 -5v-24q-34 5 -54.5 6.5t-42.5 1.5q-23 0 -43.5 -1.5t-54.5 -6.5
v24q26 3 37 9.5t11 20.5q0 11 -5 34l-27 108h-182zM324 224l-76 297l-89 -297h165zM143 812h257v-51h-257v51z" />
    <glyph glyph-name="Tcommaaccent" unicode="&#x162;" horiz-adv-x="433" 
d="M394 514q-9 38 -17 61.5t-18.5 37t-24.5 18.5t-34 5h-46v-548q0 -20 2 -32t8.5 -19t18.5 -10.5t33 -5.5v-24q-37 5 -58 6.5t-41 1.5t-41.5 -1.5t-59.5 -6.5v24q21 2 33.5 5.5t19 10.5t8.5 19t2 32v548h-41q-21 0 -35.5 -5t-25.5 -18.5t-19.5 -37.5t-17.5 -61h-20l22 153
h350l22 -153h-20zM176 -241q20 21 33 46t15 48h-3q-3 -1 -7 -1q-17 0 -27 12t-10 33q0 22 11 34.5t31 12.5q21 0 33 -15.5t12 -42.5q0 -58 -51 -127h-37z" />
    <glyph glyph-name="Ccircumflex" unicode="&#x108;" horiz-adv-x="490" 
d="M435 225q-4 -111 -51 -174.5t-125 -63.5q-48 0 -87.5 25t-67 70t-43 108.5t-15.5 141.5q0 79 15.5 143t43.5 109.5t68.5 70t89.5 24.5q40 0 69 -13.5t54 -44.5l27 56h16v-196h-20q-17 85 -49.5 125.5t-86.5 40.5q-72 0 -110 -80.5t-38 -232.5q0 -145 38 -223.5t109 -78.5
q59 0 94 50.5t40 142.5h29zM245 861h45l113 -136h-39l-97 84l-96 -84h-40z" />
    <glyph glyph-name="Wcircumflex" unicode="&#x174;" horiz-adv-x="712" 
d="M215 -12l-130 599q-4 17 -9 27.5t-12 17.5t-17.5 10t-26.5 4v24q27 -5 46.5 -6t48.5 -1q14 0 25.5 0.5l22 1t22 2t24.5 3.5v-24q-30 -4 -41.5 -10t-11.5 -20q0 -5 1 -13t3 -17l87 -410l122 506h18l120 -507l89 408q5 23 5 35q0 14 -10.5 20t-39.5 8v24q21 -3 36 -4t35 -1
q21 0 36 1t36 4v-24q-16 -1 -27 -4t-18 -9t-11.5 -15.5t-8.5 -24.5l-136 -604h-16l-123 523l-123 -524h-16zM355 860h45l113 -135h-39l-97 83l-96 -83h-40z" />
    <glyph glyph-name="Wdieresis" unicode="&#x1e84;" horiz-adv-x="712" 
d="M215 -12l-130 599q-4 17 -9 27.5t-12 17.5t-17.5 10t-26.5 4v24q27 -5 46.5 -6t48.5 -1q14 0 25.5 0.5l22 1t22 2t24.5 3.5v-24q-30 -4 -41.5 -10t-11.5 -20q0 -5 1 -13t3 -17l87 -410l122 506h18l120 -507l89 408q5 23 5 35q0 14 -10.5 20t-39.5 8v24q21 -3 36 -4t35 -1
q21 0 36 1t36 4v-24q-16 -1 -27 -4t-18 -9t-11.5 -15.5t-8.5 -24.5l-136 -604h-16l-123 523l-123 -524h-16zM307 842q20 0 33.5 -14t13.5 -34t-14 -34.5t-34 -14.5t-34.5 14.5t-14.5 34.5q0 21 14 34.5t36 13.5zM450 842q20 0 34 -14t14 -34t-14 -34.5t-34 -14.5t-34.5 14.5
t-14.5 34.5q0 21 14 34.5t35 13.5z" />
    <glyph glyph-name="Ycircumflex" unicode="&#x176;" horiz-adv-x="483" 
d="M89 591q-6 15 -12.5 25t-14.5 16t-19 9t-27 5v24q31 -4 52.5 -5.5t47.5 -1.5t47.5 1.5t52.5 5.5v-24q-32 -3 -43.5 -8.5t-11.5 -17.5q0 -13 7 -32l101 -256l98 257q8 21 8 31q0 12 -11.5 17.5t-42.5 8.5v24q26 -3 42 -4t33 -1t32.5 1t41.5 4v-24q-17 -3 -28 -6t-19 -9
t-13.5 -15t-11.5 -24l-117 -301v-203q0 -20 2 -32t8.5 -19t18.5 -10.5t33 -5.5v-24l-33.5 3.5t-26 2.5t-21 1.5t-19.5 0.5q-19 0 -39.5 -1.5t-60.5 -6.5v24q21 2 33.5 5.5t19 10.5t8.5 19t2 32v203zM236 860h45l114 -135h-40l-96 83l-97 -83h-39z" />
    <glyph glyph-name="Hbar" unicode="&#x126;" horiz-adv-x="552" 
d="M385 579q0 20 -2 32t-8.5 19t-19 10.5t-32.5 5.5v24q33 -4 54 -5.5t46 -1.5q13 0 24 0.5l22 1t24 2l29 3.5v-24q-21 -2 -33 -5.5t-19 -10.5t-9 -19t-2 -32v-58h63v-37h-63v-396q0 -20 2 -32t8.5 -19t19 -10.5t33.5 -5.5v-24l-33.5 3.5t-25.5 2.5t-20.5 1.5t-19.5 0.5
q-20 0 -41 -1.5t-59 -6.5v24q21 2 33 5.5t18.5 10.5t8.5 19t2 32v244h-217v-244q0 -20 2 -32t8.5 -19t18.5 -10.5t33 -5.5v-24q-38 5 -59 6.5t-41 1.5q-19 0 -40 -1.5t-59 -6.5v24q21 2 33.5 5.5t19 10.5t8.5 19t2 32v396h-63v37h63v58q0 20 -2 32t-9 19t-19 10.5t-33 5.5
v24q32 -4 53 -5.5t46 -1.5q13 0 24 0.5l22.5 1t24.5 2l29 3.5v-24q-20 -2 -32.5 -5.5t-19 -10.5t-8.5 -19t-2 -32v-58h217v58zM168 484v-121h217v121h-217z" />
    <glyph glyph-name="Emacron" unicode="&#x112;" horiz-adv-x="445" 
d="M383 0h-352v25q21 2 33 5t19 10t9 19t2 32v485q0 20 -2 32t-9 19t-19 10t-33 5v25h348l14 -150h-19q-7 36 -15 59t-18.5 36.5t-24.5 18.5t-35 5h-112v-274h111q26 0 35 15.5t11 66.5h20v-196h-20q-1 25 -4 41t-8.5 25.5t-14.5 13t-23 3.5h-107v-241q0 -35 10.5 -47
t41.5 -12h55q24 0 40.5 6t28.5 20.5t21 39.5t17 64h19zM95 812h257v-51h-257v51z" />
    <glyph glyph-name="Gcircumflex" unicode="&#x11c;" horiz-adv-x="515" 
d="M415 679h16v-198h-20q-19 88 -52.5 127.5t-87.5 39.5q-74 0 -111.5 -80.5t-37.5 -238.5q0 -153 37.5 -232t109.5 -79q26 0 49 8t52 26v173q0 14 -2 23t-8.5 14.5t-18 8t-30.5 4.5v24q32 -4 51.5 -5t39.5 -1t39.5 1t50.5 5v-24q-18 -2 -28.5 -4.5t-16 -8t-7 -14.5
t-1.5 -25v-165q-52 -37 -91.5 -53t-81.5 -16q-52 0 -93 24t-70 69t-44.5 109t-15.5 144q0 79 15.5 142.5t44 108.5t69 69t90.5 24q74 0 124 -57zM243 860h45l113 -135h-39l-97 83l-96 -83h-40z" />
    <glyph glyph-name="Hcircumflex" unicode="&#x124;" horiz-adv-x="552" 
d="M385 363v216q0 20 -2 32t-8.5 19t-18.5 10.5t-33 5.5v24q33 -4 54 -5.5t46 -1.5q13 0 24 0.5l22 1t24 2l29 3.5v-24q-21 -2 -33.5 -5.5t-19 -10.5t-8.5 -19t-2 -32v-491q0 -20 2 -32t8.5 -19t19 -10.5t33.5 -5.5v-24l-33.5 3.5t-25.5 2.5t-20.5 1.5t-19.5 0.5
q-20 0 -41 -1.5t-59 -6.5v24q21 2 33 5.5t18.5 10.5t8.5 19t2 32v244h-217v-244q0 -20 2 -32t8.5 -19t18.5 -10.5t33 -5.5v-24q-38 5 -59 6.5t-41 1.5q-19 0 -40 -1.5t-59 -6.5v24q21 2 33.5 5.5t19 10.5t8.5 19t2 32v491q0 20 -2 32t-8.5 19t-19 10.5t-33.5 5.5v24
q32 -4 53 -5.5t46 -1.5q13 0 24 0.5l22.5 1t24.5 2l29 3.5v-24q-21 -2 -33 -5.5t-18.5 -10.5t-8.5 -19t-2 -32v-216h217zM255 860h45l113 -135h-40l-96 83l-96 -83h-40z" />
    <glyph glyph-name="Imacron" unicode="&#x12a;" horiz-adv-x="261" 
d="M230 -3l-33.5 3.5t-26 2.5t-21 1.5t-19.5 0.5q-19 0 -39.5 -1.5t-59.5 -6.5v24q21 2 33 5.5t18.5 10.5t8.5 19t2 32v491q0 20 -2 32t-8.5 19t-19 10.5t-32.5 5.5v24q33 -4 53.5 -5.5t45.5 -1.5q13 0 24 0.5l22.5 1t24.5 2l29 3.5v-24q-20 -2 -32.5 -5.5t-19 -10.5
t-8.5 -19t-2 -32v-491q0 -20 2 -32t8.5 -19t18.5 -10.5t33 -5.5v-24zM23 812h215v-51h-215v51z" />
    <glyph glyph-name="Iogonek" unicode="&#x12e;" horiz-adv-x="258" 
d="M235 -153q-18 -9 -33 -12.5t-32 -3.5q-35 0 -57 22t-22 55q0 32 21 54t69 40q-29 2 -39 2.5t-15 0.5q-9 0 -17 -0.5t-18.5 -1t-25 -2t-35.5 -4.5v24q21 2 33.5 5.5t19 10.5t8.5 19t2 32v491q0 20 -2 32t-9 19t-19 10.5t-33 5.5v24q33 -4 54 -5.5t47 -1.5q25 0 45.5 1.5
t53.5 5.5v-24q-20 -2 -32.5 -5.5t-19 -10.5t-8.5 -19t-2 -32v-491q0 -20 2 -32t8.5 -19t18.5 -10.5t33 -5.5v-23q-36 -11 -58 -33t-22 -48q0 -20 13 -33.5t32 -13.5q9 0 17.5 2t21.5 7v-32z" />
    <glyph glyph-name="Kcommaaccent" unicode="&#x136;" horiz-adv-x="520" 
d="M417 86q11 -19 20 -31t18.5 -19t21.5 -10.5t28 -4.5v-24q-35 5 -57.5 6.5t-46.5 1.5q-23 0 -46 -1.5t-58 -6.5v24l13 2q42 5 42 24q0 7 -2 12t-12 24l-140 263l-32 -45v-213q0 -20 2 -32t8 -19t18 -10.5t32 -5.5v-24q-32 5 -52.5 6.5t-41.5 1.5q-20 0 -41.5 -1.5
t-59.5 -6.5v24q21 2 33 5.5t19 10.5t9 19t2 32v491q0 20 -2 32t-9 19.5t-19 10.5t-33 5v24q33 -4 54 -5.5t47 -1.5t45.5 1.5t50.5 5.5v-24q-20 -2 -32.5 -5.5t-19 -10.5t-8.5 -19t-2 -32v-231l179 251q10 14 10 26q0 17 -35 20l-14 1v24q29 -3 46.5 -4t35.5 -1q17 0 35 1
t47 4v-24q-18 -1 -30.5 -4t-23 -9t-20 -15.5t-20.5 -24.5l-135 -189zM219 -241q20 21 33 45.5t16 48.5h-3q-4 -1 -7 -1q-17 0 -27.5 12.5t-10.5 32.5q0 21 11.5 34t31.5 13t32 -15.5t12 -41.5q0 -32 -12 -62.5t-38 -65.5h-38z" />
    <glyph glyph-name="Lcommaaccent" unicode="&#x13b;" horiz-adv-x="414" 
d="M384 0h-353v25q21 2 33 5t19 10t9 19.5t2 31.5v488q0 20 -2 32t-9 19t-19 10.5t-33 5.5v24q33 -4 54 -5.5t47 -1.5q25 0 45.5 1.5t53.5 5.5v-24q-20 -2 -32.5 -5.5t-19 -10.5t-8.5 -19t-2 -32v-486q0 -35 10.5 -47t39.5 -12h56q24 0 41 5.5t29 20t21 39t17 62.5h19z
M169 -241q43 44 49 94h-3q-3 -1 -7 -1q-17 0 -27.5 12.5t-10.5 32.5q0 21 11.5 34t31.5 13q21 0 32.5 -15t11.5 -42q0 -32 -12 -62.5t-38 -65.5h-38z" />
    <glyph glyph-name="Ncommaaccent" unicode="&#x145;" horiz-adv-x="548" 
d="M442 -20l-9 17.5l-8 15.5l-9 18.5t-14 27.5l-21.5 40l-21.5 40l-234 438v-489q0 -20 2 -32t9 -19t19.5 -10.5t34.5 -5.5v-24q-18 1 -30 2t-21 2t-16 1h-14q-14 0 -30 -1t-48 -4v24q22 2 35 5.5t19.5 10.5t8.5 19t2 32v528q-11 15 -25 21.5t-41 8.5v24q19 -2 33 -2.5
t35 -0.5q20 0 31 0.5t28 2.5l268 -500v409q0 20 -2 32t-9 19t-19.5 10.5t-33.5 5.5v24q17 -1 29.5 -2t21.5 -2t16 -1h14q14 0 30 1t48 4v-24q-21 -2 -34 -5.5t-20 -10.5t-9 -19t-2 -32v-599h-13zM232 -241q41 43 49 94h-4q-3 -1 -7 -1q-17 0 -27 12.5t-10 32.5
q0 22 11.5 34.5t31.5 12.5t32 -15.5t12 -41.5q0 -62 -50 -128h-38z" />
    <glyph glyph-name="Omacron" unicode="&#x14c;" horiz-adv-x="516" 
d="M257 680q43 0 81.5 -20.5t64.5 -57.5q35 -51 52 -118t17 -161q0 -46 -7.5 -91t-20.5 -83.5t-31.5 -69t-40.5 -49.5q-49 -42 -113 -42q-41 0 -77.5 17.5t-63.5 51.5q-34 42 -54.5 116.5t-20.5 158.5q0 79 15 143.5t43 110t67.5 70t88.5 24.5zM258 652q-31 0 -56.5 -21.5
t-43 -62t-27 -99t-9.5 -131.5q0 -154 36 -238t102 -84q63 0 97.5 82t34.5 234q0 88 -12 155.5t-34 104.5q-35 60 -88 60zM129 812h257v-51h-257v51z" />
    <glyph glyph-name="Rcommaaccent" unicode="&#x156;" horiz-adv-x="487" 
d="M168 88q0 -19 2 -31.5t8.5 -19.5t19 -10.5t32.5 -5.5v-24q-38 5 -58 6.5t-40 1.5t-41 -1.5t-60 -6.5v24q21 2 33.5 5.5t19 10.5t8.5 19t2 32v488q0 20 -2 32t-9 19t-19 10t-33 5v25h209q94 0 137 -54q18 -23 28.5 -55t10.5 -66q0 -135 -134 -169q14 -4 24.5 -10.5t19 -16
t16 -24.5t14.5 -36l53 -157q6 -18 11.5 -29t12.5 -17t16.5 -8.5t24.5 -3.5v-24q-18 2 -30 2.5t-26 0.5q-13 0 -25 -0.5t-30 -2.5q-6 15 -11.5 30.5l-10.5 30.5l-59 179q-15 47 -33 63.5t-53 16.5h-28v-229zM226 348q58 0 85 35q14 18 22 49t8 63q0 141 -111 141h-61v-288h57
zM213 -241q41 44 49 94h-4q-3 -1 -7 -1q-17 0 -27 12t-10 33q0 22 11.5 34.5t31.5 12.5t32 -15.5t12 -41.5q0 -60 -50 -128h-38z" />
    <glyph glyph-name="Scircumflex" unicode="&#x15c;" horiz-adv-x="425" 
d="M72 202q11 -89 46.5 -134.5t92.5 -45.5q48 0 78.5 36.5t30.5 93.5q0 25 -5 44.5t-18 36.5t-34 34t-53 36q-45 27 -74 49t-46 44.5t-23.5 47.5t-6.5 58q0 39 11.5 71t31.5 55t48.5 35.5t62.5 12.5q33 0 58 -12.5t46 -38.5l23 55h15v-184h-20q-14 78 -42 114t-74 36
q-21 0 -39 -9t-31.5 -25t-21 -37.5t-7.5 -46.5q0 -22 5 -39t18.5 -33.5t38 -34.5t62.5 -41q40 -25 66.5 -46.5t42 -44.5t22 -49.5t6.5 -61.5q0 -41 -12 -75.5t-33 -59t-50.5 -38.5t-65.5 -14q-37 0 -67 13.5t-59 43.5l-28 -63h-15v217h20zM197 861h44l114 -136h-39l-97 84
l-96 -84h-40z" />
    <glyph glyph-name="Gcommaaccent" unicode="&#x122;" horiz-adv-x="515" 
d="M415 679h16v-198h-20q-19 88 -52.5 127.5t-87.5 39.5q-74 0 -111.5 -80.5t-37.5 -238.5q0 -153 37.5 -232t109.5 -79q26 0 49 8t52 26v173q0 14 -2 23t-8.5 14.5t-18 8t-30.5 4.5v24q32 -4 51.5 -5t39.5 -1t39.5 1t50.5 5v-24q-18 -2 -28.5 -4.5t-16 -8t-7 -14.5
t-1.5 -25v-165q-52 -37 -91.5 -53t-81.5 -16q-52 0 -93 24t-70 69t-44.5 109t-15.5 144q0 79 15.5 142.5t44 108.5t69 69t90.5 24q74 0 124 -57zM223 -241q20 21 33 45.5t16 48.5h-3q-4 -1 -7 -1q-17 0 -27.5 12.5t-10.5 32.5q0 21 11.5 34t31.5 13q21 0 32.5 -15t11.5 -42
q0 -32 -12 -62.5t-38 -65.5h-38z" />
    <glyph glyph-name="uni01D3" unicode="&#x1d3;" horiz-adv-x="542" 
d="M357 670q17 -1 29.5 -2t21.5 -2t16 -1h14q14 0 30 1t47 4v-24q-21 -2 -33.5 -5.5t-19.5 -10.5t-9 -19t-2 -32v-375q0 -46 -6 -76t-22 -57q-23 -40 -61.5 -61t-89.5 -21q-52 0 -93 22t-64 64q-14 25 -20 52.5t-6 72.5v379q0 20 -2 32t-9 19t-19 10.5t-33 5.5v24
q33 -4 54 -5.5t47 -1.5q25 0 45.5 1.5t53.5 5.5v-24q-20 -2 -32.5 -5.5t-19 -10.5t-8.5 -19t-2 -32v-387q0 -41 3.5 -63.5t12.5 -39.5q15 -27 43 -41.5t64 -14.5q31 0 58 11.5t44 31.5q15 17 23.5 49.5t8.5 72.5v381q0 20 -2 32t-9 19t-19.5 10.5t-33.5 5.5v24zM310 724h-46
l-113 135h40l96 -83l96 83h40z" />
    <glyph glyph-name="Umacron" unicode="&#x16a;" horiz-adv-x="542" 
d="M357 670q17 -1 29.5 -2t21.5 -2t16 -1h14q14 0 30 1t47 4v-24q-21 -2 -33.5 -5.5t-19.5 -10.5t-9 -19t-2 -32v-375q0 -46 -6 -76t-22 -57q-23 -40 -61.5 -61t-89.5 -21q-52 0 -93 22t-64 64q-14 25 -20 52.5t-6 72.5v379q0 20 -2 32t-9 19t-19 10.5t-33 5.5v24
q33 -4 54 -5.5t47 -1.5q25 0 45.5 1.5t53.5 5.5v-24q-20 -2 -32.5 -5.5t-19 -10.5t-8.5 -19t-2 -32v-387q0 -41 3.5 -63.5t12.5 -39.5q15 -27 43 -41.5t64 -14.5q31 0 58 11.5t44 31.5q15 17 23.5 49.5t8.5 72.5v381q0 20 -2 32t-9 19t-19.5 10.5t-33.5 5.5v24zM157 812h258
v-51h-258v51z" />
    <glyph glyph-name="Uogonek" unicode="&#x172;" horiz-adv-x="542" 
d="M515 646q-21 -2 -33.5 -5.5t-19.5 -10.5t-9 -19t-2 -32v-375q0 -54 -9.5 -89.5t-32.5 -64.5q-16 -22 -17 -23l-9 -12q-44 -59 -44 -96q0 -20 12.5 -33.5t32.5 -13.5q9 0 17 2t22 7v-32q-36 -16 -65 -16q-34 0 -56.5 22t-22.5 55q0 51 57 89q-18 -6 -30.5 -8t-30.5 -2
q-112 0 -160 86q-14 25 -20 52.5t-6 72.5v379q0 20 -2 32t-9 19t-19 10.5t-33 5.5v24q33 -4 54 -5.5t47 -1.5q25 0 45.5 1.5t53.5 5.5v-24q-20 -2 -32.5 -5.5t-19 -10.5t-8.5 -19t-2 -32v-387q0 -41 3.5 -63.5t12.5 -39.5q15 -27 43 -41.5t64 -14.5q31 0 58 11.5t44 31.5
q15 17 23.5 49.5t8.5 72.5v381q0 20 -2 32t-9 19t-19.5 10.5t-33.5 5.5v24q17 -1 29.5 -2t21.5 -2t16 -1h14q14 0 30 1t47 4v-24z" />
    <glyph glyph-name="Ebreve" unicode="&#x114;" horiz-adv-x="445" 
d="M383 0h-352v25q21 2 33 5t19 10t9 19t2 32v485q0 20 -2 32t-9 19t-19 10t-33 5v25h348l14 -150h-19q-7 36 -15 59t-18.5 36.5t-24.5 18.5t-35 5h-112v-274h111q26 0 35 15.5t11 66.5h20v-196h-20q-1 25 -4 41t-8.5 25.5t-14.5 13t-23 3.5h-107v-241q0 -35 10.5 -47
t41.5 -12h55q24 0 40.5 6t28.5 20.5t21 39.5t17 64h19zM336 859q-5 -66 -32.5 -100.5t-74.5 -34.5q-48 0 -75.5 34.5t-32.5 100.5h28q21 -74 80 -74q57 0 80 74h27z" />
    <glyph glyph-name="uni01CE" unicode="&#x1ce;" horiz-adv-x="383" 
d="M361 0q-15 -4 -25.5 -5.5t-21.5 -1.5q-29 0 -44 19.5t-19 62.5q-20 -45 -43.5 -64.5t-60.5 -19.5q-49 0 -79.5 35.5t-30.5 92.5q0 78 59 119q32 23 66 36t79 20v71q0 89 -60 89q-28 0 -44.5 -15t-16.5 -41v-6t1 -12v-11q0 -41 -35 -41q-29 0 -29 34q0 24 10.5 46t28.5 38
t41.5 25.5t50.5 9.5q35 0 64 -16.5t43 -45.5q9 -17 12.5 -39.5t3.5 -58.5v-209q0 -51 6.5 -70t23.5 -19q5 0 8.5 0.5t11.5 2.5v-26zM241 268q-71 -16 -102 -49.5t-31 -93.5q0 -42 16.5 -66.5t44.5 -24.5q38 0 55 35t17 113v86zM211 550h-37l-106 146h38l86 -86l87 86h38z
" />
    <glyph glyph-name="abreve" unicode="&#x103;" horiz-adv-x="383" 
d="M361 0q-15 -4 -25.5 -5.5t-21.5 -1.5q-29 0 -44 19.5t-19 62.5q-20 -45 -43.5 -64.5t-60.5 -19.5q-49 0 -79.5 35.5t-30.5 92.5q0 78 59 119q32 23 66 36t79 20v71q0 89 -60 89q-28 0 -44.5 -15t-16.5 -41v-6t1 -12v-11q0 -41 -35 -41q-29 0 -29 34q0 24 10.5 46t28.5 38
t41.5 25.5t50.5 9.5q35 0 64 -16.5t43 -45.5q9 -17 12.5 -39.5t3.5 -58.5v-209q0 -51 6.5 -70t23.5 -19q5 0 8.5 0.5t11.5 2.5v-26zM241 268q-71 -16 -102 -49.5t-31 -93.5q0 -42 16.5 -66.5t44.5 -24.5q38 0 55 35t17 113v86zM301 697q-4 -67 -32 -105.5t-76 -38.5
q-47 0 -75.5 38.5t-31.5 105.5h27q23 -83 80 -83q58 0 81 83h27z" />
    <glyph glyph-name="aogonek" unicode="&#x105;" horiz-adv-x="376" 
d="M371 -148q-14 -7 -25 -9.5t-24 -2.5q-31 0 -51.5 21t-20.5 52q0 25 13.5 46.5t38.5 35.5q-45 5 -51 80q-20 -45 -43.5 -64.5t-60.5 -19.5q-49 0 -79.5 35.5t-30.5 92.5q0 78 59 119q32 23 66 36t79 20v71q0 89 -60 89q-27 0 -45 -16t-16 -39q1 -8 1 -15v-14
q0 -42 -35 -42q-29 0 -29 34q0 24 10.5 46t28.5 38t41.5 25.5t50.5 9.5q35 0 64 -16.5t43 -45.5q9 -17 12.5 -39.5t3.5 -58.5v-209q0 -51 6.5 -70t23.5 -19q5 0 8.5 0.5t11.5 2.5v-26q-25 -11 -39.5 -32.5t-14.5 -47.5q0 -18 11 -30t28 -12q14 0 25 5v-31zM241 268
q-71 -16 -102 -49.5t-31 -93.5q0 -42 16.5 -66.5t44.5 -24.5q38 0 55 35t17 113v86z" />
    <glyph glyph-name="cacute" unicode="&#x107;" horiz-adv-x="359" 
d="M313 328h-19q-19 129 -88 129q-44 0 -68 -59.5t-24 -167.5q0 -103 22.5 -155.5t67.5 -52.5q71 0 85 132h32q-8 -81 -40 -123t-86 -42q-35 0 -64 17.5t-49.5 49.5t-32 77t-11.5 100q0 56 11.5 102t32.5 79t50 51.5t64 18.5q27 0 46 -9.5t36 -32.5l20 51h15v-165zM231 698
h89l-132 -147h-35z" />
    <glyph glyph-name="ccaron" unicode="&#x10d;" horiz-adv-x="359" 
d="M313 328h-19q-19 129 -88 129q-44 0 -68 -59.5t-24 -167.5q0 -103 22.5 -155.5t67.5 -52.5q71 0 85 132h32q-8 -81 -40 -123t-86 -42q-35 0 -64 17.5t-49.5 49.5t-32 77t-11.5 100q0 56 11.5 102t32.5 79t50 51.5t64 18.5q27 0 46 -9.5t36 -32.5l20 51h15v-165zM215 550
h-38l-105 146h38l86 -86l86 86h38z" />
    <glyph glyph-name="cdotaccent" unicode="&#x10b;" horiz-adv-x="359" 
d="M313 328h-19q-19 129 -88 129q-44 0 -68 -59.5t-24 -167.5q0 -103 22.5 -155.5t67.5 -52.5q71 0 85 132h32q-8 -81 -40 -123t-86 -42q-35 0 -64 17.5t-49.5 49.5t-32 77t-11.5 100q0 56 11.5 102t32.5 79t50 51.5t64 18.5q27 0 46 -9.5t36 -32.5l20 51h15v-165zM198 666
q18 0 31.5 -13.5t13.5 -32.5q0 -18 -13.5 -31.5t-32.5 -13.5t-32 13t-13 33q0 19 13.5 32t32.5 13z" />
    <glyph glyph-name="dcaron" unicode="&#x10f;" horiz-adv-x="493" 
d="M401 16q-39 -6 -64.5 -12t-45.5 -14q-5 22 -7 39t-4 39q-32 -80 -97 -80q-32 0 -59 18t-46.5 50t-30 77.5t-10.5 99.5t10.5 99t29.5 77.5t45.5 50.5t58.5 18t53 -16.5t39 -55.5v169q0 20 -1.5 31.5t-7.5 17.5t-16.5 8t-28.5 2v18q35 4 64.5 10t59.5 16v-577q0 -21 2 -34
t7 -20.5t15 -10t26 -3.5h8v-17zM189 450q-78 0 -78 -216q0 -218 81 -218q39 0 60.5 52t21.5 148q0 234 -85 234zM379 484q22 23 35 50.5t14 50.5h-3q-4 -1 -7 -1q-17 0 -27.5 12.5t-10.5 33.5q0 22 12 35.5t31 13.5q20 0 32 -16t12 -45q0 -16 -2.5 -31t-8 -30t-14 -31
t-21.5 -35l-4 -7h-38z" />
    <glyph glyph-name="dcroat" unicode="&#x111;" horiz-adv-x="421" 
d="M273 577q0 19 -1.5 30t-7.5 17t-16.5 8t-28.5 2v18q35 4 64.5 10t59.5 16v-111h55v-37h-55v-433q0 -20 2 -32.5t7.5 -19.5t15.5 -10t27 -4h5v-17q-38 -5 -63 -10t-46 -12q-5 20 -7 37t-4 39q-32 -80 -96 -80q-32 0 -59 18t-46.5 50.5t-30.5 77.5t-11 99t10.5 99t30 77.5
t46 50.5t58.5 18q31 0 52 -16.5t39 -55.5v124h-88v37h88v10zM190 450q-79 0 -79 -216q0 -107 20.5 -162.5t61.5 -55.5q38 0 59.5 52t21.5 148q0 234 -84 234z" />
    <glyph glyph-name="ecaron" unicode="&#x11b;" horiz-adv-x="377" 
d="M340 154q-8 -78 -44.5 -121t-96.5 -43q-37 0 -67 17t-51 49t-32.5 77.5t-11.5 102.5q0 55 11.5 100.5t32 77.5t49 50t63.5 18q69 0 106.5 -60.5t40.5 -174.5h-231q1 -33 2.5 -57.5t4 -43t6 -33.5t9.5 -30q11 -29 31 -44.5t46 -15.5q42 0 68 34t33 97h31zM270 283
q-6 173 -78 173q-69 0 -81 -173h159zM213 551h-39l-105 145h38l87 -86l86 86h38z" />
    <glyph glyph-name="edotaccent" unicode="&#x117;" horiz-adv-x="377" 
d="M340 154q-8 -78 -44.5 -121t-96.5 -43q-37 0 -67 17t-51 49t-32.5 77.5t-11.5 102.5q0 55 11.5 100.5t32 77.5t49 50t63.5 18q69 0 106.5 -60.5t40.5 -174.5h-231q1 -33 2.5 -57.5t4 -43t6 -33.5t9.5 -30q11 -29 31 -44.5t46 -15.5q42 0 68 34t33 97h31zM270 283
q-6 173 -78 173q-69 0 -81 -173h159zM198 666q18 0 31.5 -13.5t13.5 -32.5q0 -18 -13.5 -31.5t-31.5 -13.5q-19 0 -32.5 13.5t-13.5 32.5q0 18 13.5 31.5t32.5 13.5z" />
    <glyph glyph-name="eogonek" unicode="&#x119;" horiz-adv-x="377" 
d="M318 -146q-14 -6 -25 -9t-24 -3q-31 0 -52 21.5t-21 52.5q0 21 14 44t36 37q-16 -5 -26 -6.5t-21 -1.5q-76 0 -119 65.5t-43 180.5q0 57 11 102.5t31.5 78t49 50t64.5 17.5q70 0 107.5 -60.5t38.5 -174.5h-230q1 -68 7 -110t20 -68q26 -48 72 -48q41 0 67 34.5t33 97.5
h32q-4 -37 -15 -68t-34 -67q-17 -29 -27.5 -54.5t-10.5 -39.5q0 -20 11.5 -32.5t29.5 -12.5q7 0 11.5 1t12.5 4v-31zM269 284q-3 90 -22 131.5t-55 41.5q-69 0 -81 -173h158z" />
    <glyph glyph-name="gcaron" unicode="&#x1e7;" horiz-adv-x="404" 
d="M388 455v-40l-76 3q10 -20 14.5 -40t4.5 -44q0 -76 -47 -118q-14 -13 -28.5 -20.5t-47.5 -18.5l-23 -8q-41 -14 -54 -23t-13 -24q0 -18 15 -25t55 -8q14 -1 30 -3t31.5 -4.5t29 -6t21.5 -7.5q34 -14 52 -43.5t18 -70.5q0 -34 -12.5 -62t-35.5 -48t-55 -31t-71 -11
q-37 0 -68 10t-53 28t-34 43.5t-12 56.5q0 38 18.5 64t58.5 43q-22 12 -31 25t-9 33q0 55 84 82q-44 17 -68 53.5t-24 88.5q0 72 37.5 112t104.5 40q25 0 43.5 -6t38.5 -20h106zM196 456q-33 0 -52.5 -32.5t-19.5 -88.5q0 -60 19 -94.5t52 -34.5t51 33.5t18 95.5
q0 58 -18 89.5t-50 31.5zM188 17q-60 0 -92 -22t-32 -63q0 -21 10 -39.5t27 -31.5t41 -20.5t52 -7.5q57 0 90 25.5t33 70.5q0 41 -26 62q-15 11 -44 18.5t-59 7.5zM222 550h-38l-105 146h38l86 -86l86 86h38z" />
    <glyph glyph-name="gdotaccent" unicode="&#x121;" horiz-adv-x="404" 
d="M388 455v-40l-76 3q10 -20 14.5 -40t4.5 -44q0 -76 -47 -118q-14 -13 -28.5 -20.5t-47.5 -18.5l-23 -8q-41 -14 -54 -23t-13 -24q0 -18 15 -25t55 -8q14 -1 30 -3t31.5 -4.5t29 -6t21.5 -7.5q34 -14 52 -43.5t18 -70.5q0 -34 -12.5 -62t-35.5 -48t-55 -31t-71 -11
q-37 0 -68 10t-53 28t-34 43.5t-12 56.5q0 38 18.5 64t58.5 43q-22 12 -31 25t-9 33q0 55 84 82q-44 17 -68 53.5t-24 88.5q0 72 37.5 112t104.5 40q25 0 43.5 -6t38.5 -20h106zM196 456q-33 0 -52.5 -32.5t-19.5 -88.5q0 -60 19 -94.5t52 -34.5t51 33.5t18 95.5
q0 58 -18 89.5t-50 31.5zM188 17q-60 0 -92 -22t-32 -63q0 -21 10 -39.5t27 -31.5t41 -20.5t52 -7.5q57 0 90 25.5t33 70.5q0 41 -26 62q-15 11 -44 18.5t-59 7.5zM209 666q18 0 31.5 -13.5t13.5 -32.5q0 -18 -13.5 -31.5t-32.5 -13.5t-32 13t-13 33q0 19 13.5 32t32.5 13z
" />
    <glyph glyph-name="lacute" unicode="&#x13a;" horiz-adv-x="238" 
d="M151 71q0 -32 10 -42t45 -12v-20q-33 4 -51.5 5t-38.5 1q-19 0 -38 -1t-51 -5v20q17 1 27.5 3.5t16.5 8.5t8 16t2 26v505q0 19 -1.5 30.5t-7 17.5t-16 8t-28.5 2v18q64 7 123 26v-607zM154 861h96l-147 -137h-40z" />
    <glyph glyph-name="lcaron" unicode="&#x13e;" horiz-adv-x="300" 
d="M151 71q0 -32 10 -42t45 -12v-20q-33 4 -51.5 5t-38.5 1q-19 0 -38 -1t-51 -5v20q17 1 27.5 3.5t16.5 8.5t8 16t2 26v505q0 19 -1.5 30.5t-7 17.5t-16 8t-28.5 2v18q64 7 123 26v-607zM186 484q22 23 34.5 50.5t13.5 50.5h-3q-3 -1 -7 -1q-17 0 -27 12.5t-10 33.5
q0 23 11.5 36t30.5 13q21 0 33 -16.5t12 -44.5q0 -32 -10.5 -61t-35.5 -66l-5 -7h-37z" />
    <glyph glyph-name="nacute" unicode="&#x144;" horiz-adv-x="448" 
d="M30 460q37 7 60.5 13t46.5 17q4 -19 5.5 -37t3.5 -50q21 41 47.5 59.5t61.5 18.5q31 0 56 -15t41 -42q20 -38 20 -108v-245q0 -32 10 -42t44 -12v-20q-31 4 -49 5t-38 1t-38.5 -1t-48.5 -5v20q30 2 40 12t10 40v251q0 33 -3 52t-11 33q-17 31 -54 31q-20 0 -38 -11
t-28 -29q-8 -16 -11.5 -33t-3.5 -47v-247q0 -29 10 -39.5t39 -12.5v-20q-30 4 -48 5t-38 1t-38 -1t-49 -5v20q17 1 27.5 3.5t16.5 8.5t8 16t2 26v309q0 21 -1 33t-5.5 18.5t-13 8.5t-23.5 2h-10v18zM262 698h89l-132 -147h-36z" />
    <glyph glyph-name="ncaron" unicode="&#x148;" horiz-adv-x="448" 
d="M30 460q37 7 60.5 13t46.5 17q4 -19 5.5 -37t3.5 -50q21 41 47.5 59.5t61.5 18.5q31 0 56 -15t41 -42q20 -38 20 -108v-245q0 -32 10 -42t44 -12v-20q-31 4 -49 5t-38 1t-38.5 -1t-48.5 -5v20q30 2 40 12t10 40v251q0 33 -3 52t-11 33q-17 31 -54 31q-20 0 -38 -11
t-28 -29q-8 -16 -11.5 -33t-3.5 -47v-247q0 -29 10 -39.5t39 -12.5v-20q-30 4 -48 5t-38 1t-38 -1t-49 -5v20q17 1 27.5 3.5t16.5 8.5t8 16t2 26v309q0 21 -1 33t-5.5 18.5t-13 8.5t-23.5 2h-10v18zM243 551h-39l-105 145h38l86 -86l87 86h38z" />
    <glyph glyph-name="ohungarumlaut" unicode="&#x151;" horiz-adv-x="389" 
d="M196 484q35 0 63 -18t48 -51.5t31 -80t11 -103.5q0 -66 -21 -124t-56 -87q-35 -31 -79 -31q-34 0 -63 18t-49.5 50.5t-32 78t-11.5 100.5t11.5 100.5t32.5 78.5t50.5 51t64.5 18zM194 458q-41 0 -62 -57t-21 -167q0 -219 81 -219q41 0 62 56t21 163q0 224 -81 224z
M187 698h69l-105 -147h-32zM298 698h69l-106 -147h-32z" />
    <glyph glyph-name="racute" unicode="&#x155;" horiz-adv-x="313" 
d="M207 -3q-32 4 -51 5t-39 1t-38.5 -1t-50.5 -5v20q17 1 27.5 3.5t16.5 8.5t8 16t2 26v313q0 21 -1 33t-5.5 18.5t-13 8.5t-23.5 2h-10v18q5 1 9 1.5t14 2.5q26 4 44.5 8t38.5 12q4 -25 5.5 -47t3.5 -48q11 44 36 67.5t57 23.5q30 0 49 -21.5t19 -56.5q0 -24 -10 -37.5
t-28 -13.5q-15 0 -24.5 9t-9.5 24q0 5 0.5 9t2.5 12q2 10 2 11q0 9 -6.5 15.5t-14.5 6.5q-30 0 -47.5 -43t-17.5 -119v-209q0 -32 10 -42t45 -12v-20zM213 698h88l-131 -147h-36z" />
    <glyph glyph-name="sacute" unicode="&#x15b;" horiz-adv-x="352" 
d="M48 155h19q11 -69 35 -101.5t66 -32.5q33 0 56.5 25.5t23.5 61.5q0 29 -16.5 50t-56.5 42q-36 19 -59.5 35.5t-37.5 33t-19.5 35.5t-5.5 43q0 60 33.5 97t89.5 37q23 0 42 -7t37 -24l13 40h15v-155h-19q-5 61 -25 89.5t-57 28.5q-31 0 -51.5 -23t-20.5 -58
q0 -28 16.5 -48t56.5 -41q36 -19 60 -35t38.5 -33t20 -36t5.5 -43q0 -64 -36.5 -104.5t-94.5 -40.5q-28 0 -50.5 9.5t-44.5 31.5l-18 -44h-15v167zM215 698h89l-132 -147h-35z" />
    <glyph glyph-name="scircumflex" unicode="&#x15d;" horiz-adv-x="353" 
d="M48 155h19q11 -69 35 -101.5t66 -32.5q33 0 56.5 25.5t23.5 61.5q0 29 -16.5 50t-56.5 42q-36 19 -59.5 35.5t-37.5 33t-19.5 35.5t-5.5 43q0 60 33.5 97t89.5 37q23 0 42 -7t37 -24l13 40h15v-155h-19q-5 61 -25 89.5t-57 28.5q-31 0 -51.5 -23t-20.5 -58
q0 -28 16.5 -48t56.5 -41q36 -19 60 -35t38.5 -33t20 -36t5.5 -43q0 -64 -36.5 -104.5t-94.5 -40.5q-28 0 -50.5 9.5t-44.5 31.5l-18 -44h-15v167zM163 698h38l106 -146h-38l-87 86l-86 -86h-38z" />
    <glyph glyph-name="scommaaccent" unicode="&#x219;" horiz-adv-x="351" 
d="M48 155h19q11 -69 35 -101.5t66 -32.5q33 0 56.5 25.5t23.5 61.5q0 29 -16.5 50t-56.5 42q-36 19 -59.5 35.5t-37.5 33t-19.5 35.5t-5.5 43q0 60 33.5 97t89.5 37q23 0 42 -7t37 -24l13 40h15v-155h-19q-5 61 -25 89.5t-57 28.5q-31 0 -51.5 -23t-20.5 -58
q0 -28 16.5 -48t56.5 -41q36 -19 60 -35t38.5 -33t20 -36t5.5 -43q0 -64 -36.5 -104.5t-94.5 -40.5q-28 0 -50.5 9.5t-44.5 31.5l-18 -44h-15v167zM131 -241q20 21 33 46t15 48h-3q-3 -1 -7 -1q-17 0 -27 12t-10 33q0 22 11.5 34.5t31.5 12.5t32 -15.5t12 -41.5
q0 -62 -50 -128h-38z" />
    <glyph glyph-name="tcaron" unicode="&#x165;" horiz-adv-x="294" 
d="M244 20q-23 -16 -40.5 -22.5t-36.5 -6.5q-26 0 -45 10.5t-30 30.5q-10 17 -14 40.5t-4 63.5v14l3 285h-49v31q38 1 62 37t35 112h22v-143h90v-37h-90v-294q0 -23 0.5 -38t1.5 -24.5t3.5 -16t5.5 -12.5q11 -20 35 -20q20 0 51 20v-30zM180 523q22 23 35 50.5t14 50.5h-4
q-3 -1 -7 -1q-17 0 -27 12.5t-10 33.5q0 22 11.5 35t31.5 13q21 0 32.5 -15.5t11.5 -44.5q0 -59 -39 -118l-7 -9l-4 -7h-38z" />
    <glyph glyph-name="uring" unicode="&#x16f;" horiz-adv-x="440" 
d="M18 463q33 4 62 10t61 16v-338q0 -62 16 -88t54 -26q80 0 80 127v223q0 18 -1.5 29.5t-6.5 18t-14 8.5t-23 2l-9 1v17q34 4 63 10t61 16v-400q0 -18 1.5 -28.5t6 -16.5t13.5 -8t24 -2h10v-18q-36 -5 -61 -10.5t-50 -15.5q-2 18 -3 30t-2 20t-1 14v13v11
q-19 -45 -45 -65.5t-65 -20.5q-118 0 -118 160v235q0 37 -8 47.5t-36 10.5l-9 1v17zM218 707q30 0 52.5 -22.5t22.5 -53.5q0 -32 -22 -54t-54 -22t-54 22t-22 54t22.5 54t54.5 22zM217 674q-17 0 -30 -13t-13 -30q0 -18 12.5 -30.5t30.5 -12.5q17 0 30 13t13 30t-13 30
t-30 13z" />
    <glyph glyph-name="uhungarumlaut" unicode="&#x171;" horiz-adv-x="440" 
d="M18 463q33 4 62 10t61 16v-338q0 -62 16 -88t54 -26q80 0 80 127v223q0 18 -1.5 29.5t-6.5 18t-14 8.5t-23 2l-9 1v17q34 4 63 10t61 16v-400q0 -18 1.5 -28.5t6 -16.5t13.5 -8t24 -2h10v-18q-36 -5 -61 -10.5t-50 -15.5q-2 18 -3 30t-2 20t-1 14v13v11
q-19 -45 -45 -65.5t-65 -20.5q-118 0 -118 160v235q0 37 -8 47.5t-36 10.5l-9 1v17zM202 698h70l-105 -147h-33zM313 698h70l-106 -147h-33z" />
    <glyph glyph-name="zacute" unicode="&#x17a;" horiz-adv-x="368" 
d="M246 446h-85q-18 0 -31 -4t-23 -13.5t-18 -26.5t-16 -43q-4 -9 -5 -17h-18l18 130h266l-215 -446h91q21 0 35 4.5t25 17.5t20.5 36t19.5 60h18l-21 -144h-275zM233 698h89l-131 -147h-36z" />
    <glyph glyph-name="zdotaccent" unicode="&#x17c;" horiz-adv-x="368" 
d="M246 446h-85q-18 0 -31 -4t-23 -13.5t-18 -26.5t-16 -43q-4 -9 -5 -17h-18l18 130h266l-215 -446h91q21 0 35 4.5t25 17.5t20.5 36t19.5 60h18l-21 -144h-275zM201 666q19 0 32 -13.5t13 -32.5t-13 -32t-32 -13t-32.5 13.5t-13.5 32.5q0 18 13.5 31.5t32.5 13.5z" />
    <glyph glyph-name="hbar" unicode="&#x127;" horiz-adv-x="442" 
d="M249 568v-37h-103v-117q39 67 102 67q31 0 56 -15t41 -42q20 -38 20 -108v-245q0 -32 10 -42t44 -12v-20q-30 4 -48.5 5t-38.5 1t-38.5 -1t-48.5 -5v20q30 2 40 12t10 40v251q0 33 -3 52t-11 33q-9 14 -23 22.5t-31 8.5q-20 0 -38 -11t-28 -29q-8 -16 -11.5 -33.5
t-3.5 -46.5v-247q0 -29 10 -39.5t39 -12.5v-20q-30 4 -48 5t-38 1t-38 -1t-49 -5v20q17 1 27.5 3.5t16.5 8.5t8 16t2 26v460h-54v37h54v11q0 18 -1.5 29t-7 17t-16 7.5t-28.5 1.5v18q35 4 64 10t59 16v-110h103z" />
    <glyph glyph-name="tcommaaccent" unicode="&#x163;" horiz-adv-x="258" 
d="M244 20q-23 -16 -40.5 -22.5t-36.5 -6.5q-26 0 -45 10.5t-30 30.5q-10 17 -14 40.5t-4 63.5v14l3 285h-49v31q38 1 62 37t35 112h22v-143h90v-37h-90v-294q0 -23 0.5 -38t1.5 -24.5t3.5 -16t5.5 -12.5q11 -20 35 -20q20 0 51 20v-30zM105 -241q20 21 33 46t15 48h-3
q-3 -1 -7 -1q-17 0 -27 12t-10 32q0 23 11.5 35.5t31.5 12.5t32 -15.5t12 -42.5q0 -61 -50 -127h-38z" />
    <glyph glyph-name="amacron" unicode="&#x101;" horiz-adv-x="383" 
d="M361 0q-15 -4 -25.5 -5.5t-21.5 -1.5q-29 0 -44 19.5t-19 62.5q-20 -45 -43.5 -64.5t-60.5 -19.5q-49 0 -79.5 35.5t-30.5 92.5q0 78 59 119q32 23 66 36t79 20v71q0 89 -60 89q-28 0 -44.5 -15t-16.5 -41v-6t1 -12v-11q0 -41 -35 -41q-29 0 -29 34q0 24 10.5 46t28.5 38
t41.5 25.5t50.5 9.5q35 0 64 -16.5t43 -45.5q9 -17 12.5 -39.5t3.5 -58.5v-209q0 -51 6.5 -70t23.5 -19q5 0 8.5 0.5t11.5 2.5v-26zM241 268q-71 -16 -102 -49.5t-31 -93.5q0 -42 16.5 -66.5t44.5 -24.5q38 0 55 35t17 113v86zM70 654h244v-51h-244v51z" />
    <glyph glyph-name="ycircumflex" unicode="&#x177;" horiz-adv-x="409" 
d="M74 408q-4 14 -8.5 22.5t-11.5 13.5t-16.5 7.5t-24.5 3.5v20q27 -3 45.5 -4t39.5 -1t39 1t45 4v-20q-23 -2 -32.5 -6.5t-9.5 -13.5q0 -8 6 -28l79 -283l84 279l5 18.5t2 12.5q0 11 -10 15.5t-36 5.5v20q18 -2 31 -3t30 -1t32 1t38 3v-20q-27 -4 -40 -14.5t-21 -34.5
l-151 -489q-22 -73 -59 -97q-32 -19 -57 -16q-5 1 -6 1h-5v50h8q36 0 58.5 20t37.5 66l25 75zM196 698h38l105 -146h-38l-86 86l-86 -86h-38z" />
    <glyph glyph-name="emacron" unicode="&#x113;" horiz-adv-x="377" 
d="M340 154q-8 -78 -44.5 -121t-96.5 -43q-37 0 -67 17t-51 49t-32.5 77.5t-11.5 102.5q0 55 11.5 100.5t32 77.5t49 50t63.5 18q69 0 106.5 -60.5t40.5 -174.5h-231q1 -33 2.5 -57.5t4 -43t6 -33.5t9.5 -30q11 -29 31 -44.5t46 -15.5q42 0 68 34t33 97h31zM270 283
q-6 173 -78 173q-69 0 -81 -173h159zM72 654h244v-51h-244v51z" />
    <glyph glyph-name="gcircumflex" unicode="&#x11d;" horiz-adv-x="404" 
d="M388 455v-40l-76 3q10 -20 14.5 -40t4.5 -44q0 -76 -47 -118q-14 -13 -28.5 -20.5t-47.5 -18.5l-23 -8q-41 -14 -54 -23t-13 -24q0 -18 15 -25t55 -8q14 -1 30 -3t31.5 -4.5t29 -6t21.5 -7.5q34 -14 52 -43.5t18 -70.5q0 -34 -12.5 -62t-35.5 -48t-55 -31t-71 -11
q-37 0 -68 10t-53 28t-34 43.5t-12 56.5q0 38 18.5 64t58.5 43q-22 12 -31 25t-9 33q0 55 84 82q-44 17 -68 53.5t-24 88.5q0 72 37.5 112t104.5 40q25 0 43.5 -6t38.5 -20h106zM196 456q-33 0 -52.5 -32.5t-19.5 -88.5q0 -60 19 -94.5t52 -34.5t51 33.5t18 95.5
q0 58 -18 89.5t-50 31.5zM188 17q-60 0 -92 -22t-32 -63q0 -21 10 -39.5t27 -31.5t41 -20.5t52 -7.5q57 0 90 25.5t33 70.5q0 41 -26 62q-15 11 -44 18.5t-59 7.5zM183 698h38l106 -146h-39l-86 86l-86 -86h-38z" />
    <glyph glyph-name="ibreve" unicode="&#x12d;" horiz-adv-x="233" 
d="M150 71q0 -32 10 -42t44 -12v-20q-31 4 -50 5t-39 1t-39 -1t-50 -5v20q17 2 27.5 4.5t16.5 8t8 15.5t2 26v316q0 20 -1.5 31.5t-7 17.5t-16.5 8t-29 2v17q65 7 124 26v-418zM217 697q-4 -69 -31.5 -106.5t-74.5 -37.5q-48 0 -75 37.5t-31 106.5h27q20 -83 79 -83
q57 0 78 83h28z" />
    <glyph glyph-name="imacron" unicode="&#x12b;" horiz-adv-x="234" 
d="M154 71q0 -32 10 -42t45 -12v-20q-33 4 -52 5t-38 1t-38 -1t-51 -5v20q17 1 27.5 3.5t16.5 8.5t8 16t2 26v316q0 20 -1.5 31.5t-7 17.5t-16 8t-28.5 2v17q35 4 64 10t59 16v-418zM16 654h188v-51h-188v51z" />
    <glyph glyph-name="kcommaaccent" unicode="&#x137;" horiz-adv-x="437" 
d="M352 71q9 -16 15.5 -26.5t14.5 -16.5t17.5 -8t24.5 -3v-20q-18 2 -31 3t-29 1t-27 -1t-28 -3l-112 254l-52 -68v-112q0 -16 2 -26.5t7.5 -16t16 -8t28.5 -3.5v-20q-31 4 -50 5t-39 1t-38.5 -1t-49.5 -5v20q17 1 27.5 3.5t16.5 8.5t8 16t2 26v504q0 20 -1.5 31.5t-7 17.5
t-16 8t-28.5 2v18q36 4 64.5 10t57.5 16v-446l124 169q15 21 15 31q0 20 -44 23v20q23 -3 39.5 -4t36.5 -1t37 1t43 4v-20q-15 -1 -25.5 -3.5t-19.5 -8t-17 -13.5t-18 -22l-77 -103zM179 -241q22 23 33 45.5t15 48.5h-3q-3 -1 -7 -1q-17 0 -27 12.5t-10 32.5q0 21 11.5 34
t31.5 13t32 -15.5t12 -42.5q0 -59 -50 -127h-38z" />
    <glyph glyph-name="lcommaaccent" unicode="&#x13c;" horiz-adv-x="228" 
d="M151 71q0 -32 10 -42t45 -12v-20q-32 4 -51 5t-39 1t-38.5 -1t-50.5 -5v20q17 1 27.5 3.5t16.5 8.5t8 16t2 26v505q0 19 -1.5 30.5t-7 17.5t-16 8t-28.5 2v18q35 4 64 10t59 16v-607zM74 -241q22 23 33.5 45.5t15.5 48.5h-4q-3 -1 -6 -1q-17 0 -27.5 12.5t-10.5 32.5
q0 21 11.5 34t31.5 13q21 0 32.5 -15.5t11.5 -42.5q0 -32 -12 -62t-38 -65h-38z" />
    <glyph glyph-name="ncommaaccent" unicode="&#x146;" horiz-adv-x="448" 
d="M30 460q37 7 60.5 13t46.5 17q4 -19 5.5 -37t3.5 -50q21 41 47.5 59.5t61.5 18.5q31 0 56 -15t41 -42q20 -38 20 -108v-245q0 -32 10 -42t44 -12v-20q-31 4 -49 5t-38 1t-38.5 -1t-48.5 -5v20q30 2 40 12t10 40v251q0 33 -3 52t-11 33q-17 31 -54 31q-20 0 -38 -11
t-28 -29q-8 -16 -11.5 -33t-3.5 -47v-247q0 -29 10 -39.5t39 -12.5v-20q-30 4 -48 5t-38 1t-38 -1t-49 -5v20q17 1 27.5 3.5t16.5 8.5t8 16t2 26v309q0 21 -1 33t-5.5 18.5t-13 8.5t-23.5 2h-10v18zM182 -241q43 44 49 94h-4q-3 -1 -7 -1q-17 0 -27 12t-10 33
q0 22 11.5 34.5t31.5 12.5t32 -15.5t12 -41.5q0 -60 -50 -128h-38z" />
    <glyph glyph-name="omacron" unicode="&#x14d;" horiz-adv-x="385" 
d="M196 484q35 0 63 -18t48 -51.5t31 -80t11 -103.5q0 -66 -21 -124t-56 -87q-35 -31 -79 -31q-34 0 -63 18t-49.5 50.5t-32 78t-11.5 100.5t11.5 100.5t32.5 78.5t50.5 51t64.5 18zM194 458q-41 0 -62 -57t-21 -167q0 -219 81 -219q41 0 62 56t21 163q0 224 -81 224z
M71 654h244v-51h-244v51z" />
    <glyph glyph-name="rcommaaccent" unicode="&#x157;" horiz-adv-x="313" 
d="M207 -3q-32 4 -51 5t-39 1t-38.5 -1t-50.5 -5v20q17 1 27.5 3.5t16.5 8.5t8 16t2 26v313q0 21 -1 33t-5.5 18.5t-13 8.5t-23.5 2h-10v18q5 1 9 1.5t14 2.5q26 4 44.5 8t38.5 12q4 -25 5.5 -47t3.5 -48q11 44 36 67.5t57 23.5q30 0 49 -21.5t19 -56.5q0 -24 -10 -37.5
t-28 -13.5q-15 0 -24.5 9t-9.5 24q0 5 0.5 9t2.5 12q2 10 2 11q0 9 -6.5 15.5t-14.5 6.5q-30 0 -47.5 -43t-17.5 -119v-209q0 -32 10 -42t45 -12v-20zM76 -241q20 21 32.5 45.5t15.5 48.5h-3q-3 -1 -7 -1q-17 0 -27 12t-10 33q0 22 11 34.5t31 12.5q21 0 33 -15.5t12 -41.5
q0 -61 -51 -128h-37z" />
    <glyph glyph-name="ubreve" unicode="&#x16d;" horiz-adv-x="440" 
d="M18 463q33 4 62 10t61 16v-338q0 -62 16 -88t54 -26q80 0 80 127v223q0 18 -1.5 29.5t-6.5 18t-14 8.5t-23 2l-9 1v17q34 4 63 10t61 16v-400q0 -18 1.5 -28.5t6 -16.5t13.5 -8t24 -2h10v-18q-36 -5 -61 -10.5t-50 -15.5q-2 18 -3 30t-2 20t-1 14v13v11
q-19 -45 -45 -65.5t-65 -20.5q-118 0 -118 160v235q0 37 -8 47.5t-36 10.5l-9 1v17zM326 697q-4 -68 -32 -106t-75 -38t-75 38t-32 106h27q22 -83 80 -83q57 0 80 83h27z" />
    <glyph glyph-name="umacron" unicode="&#x16b;" horiz-adv-x="440" 
d="M18 463q33 4 62 10t61 16v-338q0 -62 16 -88t54 -26q80 0 80 127v223q0 18 -1.5 29.5t-6.5 18t-14 8.5t-23 2l-9 1v17q34 4 63 10t61 16v-400q0 -18 1.5 -28.5t6 -16.5t13.5 -8t24 -2h10v-18q-36 -5 -61 -10.5t-50 -15.5q-4 28 -5 42t-1 33v13q-19 -45 -45 -65.5
t-65 -20.5q-118 0 -118 160v235q0 37 -8 47.5t-36 10.5l-9 1v17zM91 654h244v-51h-244v51z" />
    <glyph glyph-name="uogonek" unicode="&#x173;" horiz-adv-x="433" 
d="M425 -146q-13 -7 -23.5 -9.5t-23.5 -2.5q-30 0 -51 21t-21 52q0 29 15.5 50.5t51.5 44.5q-24 -5 -37.5 -9.5l-30.5 -10.5q-4 28 -5 42t-1 33v13q-19 -45 -45 -65.5t-65 -20.5q-118 0 -118 160v235q0 37 -8 47.5t-36 10.5l-9 1v17q33 4 62 10t61 16v-338q0 -62 16 -88
t54 -26q80 0 80 127v223q0 18 -1.5 29.5t-6.5 18t-14 8.5t-23 2l-9 1v17q34 4 63 10t61 16v-400q0 -18 1.5 -28.5t6 -16.5t13.5 -8t24 -2h10v-18q-25 -18 -39 -42.5t-14 -50.5q0 -18 11.5 -31t27.5 -13q8 0 23 6v-31z" />
    <glyph glyph-name="rcaron" unicode="&#x159;" horiz-adv-x="313" 
d="M207 -3q-32 4 -51 5t-39 1t-38.5 -1t-50.5 -5v20q17 1 27.5 3.5t16.5 8.5t8 16t2 26v313q0 21 -1 33t-5.5 18.5t-13 8.5t-23.5 2h-10v18q5 1 9 1.5t14 2.5q26 4 44.5 8t38.5 12q4 -25 5.5 -47t3.5 -48q11 44 36 67.5t57 23.5q30 0 49 -21.5t19 -56.5q0 -24 -10 -37.5
t-28 -13.5q-15 0 -24.5 9t-9.5 24q0 5 0.5 9t2.5 12q2 10 2 11q0 9 -6.5 15.5t-14.5 6.5q-30 0 -47.5 -43t-17.5 -119v-209q0 -32 10 -42t45 -12v-20zM188 551h-39l-105 145h38l86 -86l87 86h38z" />
    <glyph glyph-name="gcommaaccent" unicode="&#x123;" horiz-adv-x="404" 
d="M388 455v-40l-76 3q10 -20 14.5 -40t4.5 -44q0 -76 -47 -118q-14 -13 -28.5 -20.5t-47.5 -18.5l-23 -8q-41 -14 -54 -23t-13 -24q0 -18 15 -25t55 -8q14 -1 30 -3t31.5 -4.5t29 -6t21.5 -7.5q34 -14 52 -43.5t18 -70.5q0 -34 -12.5 -62t-35.5 -48t-55 -31t-71 -11
q-37 0 -68 10t-53 28t-34 43.5t-12 56.5q0 38 18.5 64t58.5 43q-22 12 -31 25t-9 33q0 55 84 82q-44 17 -68 53.5t-24 88.5q0 72 37.5 112t104.5 40q25 0 43.5 -6t38.5 -20h106zM196 456q-33 0 -52.5 -32.5t-19.5 -88.5q0 -60 19 -94.5t52 -34.5t51 33.5t18 95.5
q0 58 -18 89.5t-50 31.5zM188 17q-60 0 -92 -22t-32 -63q0 -21 10 -39.5t27 -31.5t41 -20.5t52 -7.5q57 0 90 25.5t33 70.5q0 41 -26 62q-15 11 -44 18.5t-59 7.5zM243 739q-42 -47 -48 -96h3q3 1 7 1q17 0 27 -12.5t10 -33.5q0 -22 -11.5 -35.5t-31.5 -13.5t-32 16.5
t-12 43.5q0 30 12.5 62.5t38.5 67.5h37z" />
    <glyph glyph-name="Euro" unicode="&#x20ac;" horiz-adv-x="428" 
d="M415 59q-27 -37 -60 -54t-76 -17q-81 0 -131 68t-62 196h-85l22 44h60v25v23q0 7 1 17h-67l21 44h50q16 125 64.5 190.5t124.5 65.5q35 0 58.5 -13t43.5 -43l20 55h16v-195h-20q-13 82 -39 120t-69 38q-25 0 -42.5 -10.5t-33.5 -34.5q-18 -27 -28.5 -66t-17.5 -107h201
l-16 -44h-188l-1 -10l1 -20v-25v-10h165l-16 -44h-147q18 -220 128 -220q14 0 25 2.5t21.5 8.5t21.5 16.5t25 26.5q11 11 17 20.5t13 23.5v-71z" />
    <glyph glyph-name="uniEA71" unicode="&#xea71;" horiz-adv-x="437" 
d="M25 463v37h62v70q0 20 -2 32t-8.5 19t-19 10t-32.5 5v24h200q84 0 126.5 -38t53.5 -122h44v-37h-44q-5 -79 -49.5 -122t-122.5 -43h-72v-211q0 -19 2 -31t8.5 -19t19 -10.5t32.5 -5.5v-24q-40 5 -60 6.5t-39 1.5t-39.5 -1.5t-59.5 -6.5v24q20 2 32.5 5.5t19 10.5t8.5 19
t2 31v376h-62zM161 328h49q57 0 86.5 33t34.5 102h-170v-135zM331 500q-6 69 -33 99.5t-84 30.5h-53v-130h170z" />
    <glyph glyph-name="franc" unicode="&#x20a3;" horiz-adv-x="590" 
d="M172 88q0 -20 2 -32t8.5 -19t18.5 -10.5t33 -5.5v-24q-38 5 -58.5 6.5t-40.5 1.5t-41.5 -1.5t-59.5 -6.5v24q21 2 33.5 5.5t19 10.5t8.5 19t2 32v488q0 20 -2 32t-9 19t-19 10t-33 5v25h348l14 -150h-19q-7 36 -15 59t-18.5 36.5t-25 18.5t-35.5 5h-111v-274h110
q25 0 32 11q7 10 10 27t5 44h20v-196h-20q-2 50 -12.5 66.5t-39.5 16.5h-105v-243zM512 -2q-24 2 -37 3t-25 1t-25 -1l-38 -3v17q24 2 30.5 8t6.5 26v176q0 26 -5.5 32t-26.5 6h-5v16q13 2 21.5 3t16.5 3t17 5l22 7q2 -12 3 -23l3 -34q11 28 25.5 40.5t35.5 12.5t34.5 -14.5
t13.5 -38.5q0 -17 -7.5 -26.5t-20.5 -9.5q-25 0 -25 24v7t2 8q1 2 1 7t-4 8.5t-9 3.5q-19 0 -29.5 -28.5t-10.5 -77.5v-107q0 -20 6.5 -26t29.5 -8v-17z" />
    <glyph glyph-name="anoteleia" unicode="&#x387;" 
d="M99 292q21 0 34.5 -13.5t13.5 -34.5q0 -20 -14 -34.5t-34 -14.5t-34.5 15t-14.5 35t14 33.5t35 13.5z" />
    <glyph glyph-name="dotmath" unicode="&#x22c5;" 
d="M99 292q21 0 34.5 -13.5t13.5 -34.5q0 -20 -14 -34.5t-34 -14.5t-34.5 15t-14.5 35t14 33.5t35 13.5z" />
    <glyph glyph-name="uni00AD" unicode="&#xad;" horiz-adv-x="215" 
d="M5 290h205v-45h-205v45z" />
    <glyph glyph-name="uni2011" unicode="&#x2011;" horiz-adv-x="215" 
d="M5 290h205v-45h-205v45z" />
    <glyph glyph-name="afii00208" unicode="&#x2015;" horiz-adv-x="479" 
d="M5 289h469v-43h-469v43z" />
    <glyph glyph-name="Dieresis" unicode="&#xf6cb;" horiz-adv-x="414" 
d="M136 842q21 0 34.5 -14t13.5 -34t-14 -34.5t-34 -14.5t-34.5 14.5t-14.5 34.5q0 21 14 34.5t35 13.5zM280 842q20 0 34 -14t14 -34t-14.5 -34.5t-34.5 -14.5t-34 14.5t-14 34.5q0 21 14 34.5t35 13.5z" />
    <glyph glyph-name="Dotaccent" horiz-adv-x="414" 
d="M209 842q21 0 34.5 -14t13.5 -34t-14 -34.5t-34 -14.5t-34.5 14.5t-14.5 34.5q0 21 14 34.5t35 13.5z" />
    <glyph glyph-name="Ring" horiz-adv-x="423" 
d="M212 873q31 0 53 -22t22 -54t-22 -54t-54 -22t-54 22.5t-22 54.5t22.5 53.5t54.5 21.5zM212 840q-18 0 -31 -13t-13 -30t13 -30t30 -13t30 13t13 30t-12.5 30t-29.5 13z" />
    <glyph glyph-name="Acute" unicode="&#xf6c9;" horiz-adv-x="410" 
d="M279 861h97l-158 -137h-40z" />
    <glyph glyph-name="Grave" unicode="&#xf6ce;" horiz-adv-x="410" 
d="M221 724l-158 137h97l101 -137h-40z" />
    <glyph glyph-name="Circumflex" horiz-adv-x="410" 
d="M182 860h46l113 -135h-40l-96 83l-96 -83h-40z" />
    <glyph glyph-name="Caron" unicode="&#xf6ca;" horiz-adv-x="410" 
d="M228 724h-46l-113 135h40l96 -83l96 83h40z" />
    <glyph glyph-name="Breve" horiz-adv-x="408" 
d="M311 859q-6 -66 -33 -100.5t-75 -34.5q-47 0 -74.5 34.5t-32.5 100.5h27q22 -74 80 -74q59 0 81 74h27z" />
    <glyph glyph-name="Tilde" horiz-adv-x="410" 
d="M74 751q11 52 29.5 75t48.5 23q17 0 31.5 -7.5t37.5 -28.5q25 -22 44 -22q18 0 29 12t19 40l23 -6q-4 -24 -8 -38t-11 -25q-25 -40 -61 -40q-15 0 -30.5 8.5t-38.5 29.5q-13 11 -21.5 15.5t-19.5 4.5q-17 0 -28.5 -11.5t-19.5 -37.5z" />
    <glyph glyph-name="Hungarumlaut" unicode="&#xf6cf;" horiz-adv-x="410" 
d="M337 861h77l-127 -137h-37zM212 861h76l-126 -137h-37z" />
    <glyph glyph-name="Cedilla" horiz-adv-x="415" 
d="M209 -58q76 -7 76 -72q0 -35 -22 -57t-57 -22q-17 0 -30.5 3.5t-33.5 12.5v33q14 -5 22.5 -7t18.5 -2q20 0 32 12.5t12 32.5q0 23 -14.5 32.5t-48.5 11.5l35 83h36z" />
    <glyph glyph-name="Ogonek" horiz-adv-x="415" 
d="M370 1q-83 -37 -83 -84q0 -20 13 -33.5t33 -13.5q8 0 16.5 2t22.5 7v-32q-19 -8 -34 -12t-32 -4q-34 0 -56.5 22t-22.5 55q0 68 108 100z" />
    <glyph glyph-name="Macron" unicode="&#xf6d0;" horiz-adv-x="410" 
d="M76 812h258v-51h-258v51z" />
    <glyph glyph-name="commaaccent.cap" horiz-adv-x="415" 
d="M164 -241q42 45 49 94h-4q-3 -1 -7 -1q-17 0 -27 12t-10 33q0 22 11.5 34.5t31.5 12.5t32 -15.5t12 -41.5q0 -62 -50 -128h-38z" />
    <glyph glyph-name="uniEA67" unicode="&#xea67;" horiz-adv-x="415" 
d="M271 484q22 24 34.5 50.5t14.5 50.5h-4q-3 -1 -7 -1q-17 0 -27 12.5t-10 33.5q0 23 11.5 36.5t31.5 13.5t32 -16.5t12 -45.5q0 -65 -50 -134h-38z" />
    <glyph glyph-name="uniEA68" unicode="&#xea68;" horiz-adv-x="414" 
d="M136 842q21 0 34.5 -14t13.5 -34t-14 -34.5t-34 -14.5t-34.5 14.5t-14.5 34.5q0 21 14 34.5t35 13.5zM280 842q20 0 34 -14t14 -34t-14.5 -34.5t-34.5 -14.5t-34 14.5t-14 34.5q0 21 14 34.5t35 13.5z" />
    <glyph glyph-name="uni02C9" unicode="&#x2c9;" horiz-adv-x="410" 
d="M83 654h244v-51h-244v51z" />
    <glyph glyph-name="commaaccent" unicode="&#xf6c3;" horiz-adv-x="415" 
d="M164 -241q42 45 49 94h-4q-3 -1 -7 -1q-17 0 -27 12t-10 33q0 22 11.5 34.5t31.5 12.5t32 -15.5t12 -41.5q0 -62 -50 -128h-38z" />
    <glyph glyph-name="uniEA3F" unicode="&#xea3f;" horiz-adv-x="415" 
d="M297 484q22 24 34.5 50.5t14.5 50.5h-4q-3 -1 -7 -1q-17 0 -27 12.5t-10 33.5q0 22 11.5 35.5t31.5 13.5t32 -16.5t12 -44.5q0 -60 -40 -118l-6 -9l-4 -7h-38z" />
    <glyph glyph-name="uniEA6A" unicode="&#xea6a;" horiz-adv-x="412" 
d="M148 679q17 0 29.5 -15.5t12.5 -37.5q0 -23 -12.5 -38t-30.5 -15t-30.5 15t-12.5 38q0 22 13 37.5t31 15.5zM266 679q17 0 29.5 -15.5t12.5 -37.5q0 -23 -12 -38t-31 -15q-18 0 -30.5 15t-12.5 38q0 22 13 37.5t31 15.5z" />
    <glyph glyph-name="ebreve" unicode="&#x115;" horiz-adv-x="377" 
d="M340 154q-8 -78 -44.5 -121t-96.5 -43q-37 0 -67 17t-51 49t-32.5 77.5t-11.5 102.5q0 55 11.5 100.5t32 77.5t49 50t63.5 18q69 0 106.5 -60.5t40.5 -174.5h-231q1 -33 2.5 -57.5t4 -43t6 -33.5t9.5 -30q11 -29 31 -44.5t46 -15.5q42 0 68 34t33 97h31zM270 283
q-6 173 -78 173q-69 0 -81 -173h159zM303 697q-4 -68 -32 -106t-76 -38q-47 0 -75 38t-32 106h27q22 -83 80 -83t80 83h28z" />
    <glyph glyph-name="iogonek" unicode="&#x12f;" horiz-adv-x="226" 
d="M200 -2q-19 -6 -33 -27.5t-14 -44.5q0 -21 11 -33.5t29 -12.5q13 0 24 5v-31q-13 -7 -24 -9.5t-25 -2.5q-31 0 -51.5 21.5t-20.5 53.5q0 52 66 84q-18 2 -29 2h-18q-17 0 -35 -1t-51 -5v20q17 1 27.5 3.5t16.5 8.5t8 16t2 26v316q0 20 -1.5 31.5t-7 17.5t-16 8t-28.5 2
v17q35 4 64 10t59 16v-418q0 -32 10 -42t45 -12v-20zM116 669q19 0 32 -16.5t13 -39.5t-13 -39t-32 -16q-18 0 -31 16.5t-13 39.5t12.5 39t31.5 16z" />
    <glyph glyph-name="ldot" unicode="&#x140;" horiz-adv-x="313" 
d="M146 71q0 -32 10 -42t45 -12v-20q-33 4 -51.5 5t-38.5 1q-19 0 -38 -1t-51 -5v20q17 1 27.5 3.5t16.5 8.5t8 16t2 26v505q0 19 -1.5 30.5t-7 17.5t-16 8t-28.5 2v18q64 7 123 26v-607zM262 394q20 0 33.5 -13.5t13.5 -34.5t-14 -35t-34 -14t-34.5 14.5t-14.5 34.5
t14.5 34t35.5 14z" />
    <glyph glyph-name="utilde" unicode="&#x169;" horiz-adv-x="440" 
d="M18 463q33 4 62 10t61 16v-338q0 -62 16 -88t54 -26q80 0 80 127v223q0 18 -1.5 29.5t-6.5 18t-14 8.5t-23 2l-9 1v17q34 4 63 10t61 16v-400q0 -18 1.5 -28.5t6 -16.5t13.5 -8t24 -2h10v-18q-36 -5 -61 -10.5t-50 -15.5v13l-1 15l-2 12q-2 11 -2.5 19.5t-0.5 18.5v10
q-19 -45 -45 -65.5t-65 -20.5q-118 0 -118 160v235q0 37 -8 47.5t-36 10.5l-9 1v17zM96 585q12 54 28.5 76t45.5 22q15 0 29 -7.5t33 -25.5q14 -14 24 -19.5t21 -5.5q17 0 27 11.5t19 40.5l21 -6q-6 -49 -26 -76t-50 -27q-14 0 -28.5 8.5t-36.5 29.5q-11 11 -19.5 15.5
t-19.5 4.5q-16 0 -26.5 -11t-19.5 -38z" />
    <glyph glyph-name="uni01D4" unicode="&#x1d4;" horiz-adv-x="440" 
d="M18 463q33 4 62 10t61 16v-338q0 -62 16 -88t54 -26q80 0 80 127v223q0 18 -1.5 29.5t-6.5 18t-14 8.5t-23 2l-9 1v17q34 4 63 10t61 16v-400q0 -18 1.5 -28.5t6 -16.5t13.5 -8t24 -2h10v-18q-36 -5 -61 -10.5t-50 -15.5q-4 28 -5 42t-1 33v13q-19 -45 -45 -65.5
t-65 -20.5q-118 0 -118 160v235q0 37 -8 47.5t-36 10.5l-9 1v17zM238 551h-39l-105 145h38l86 -86l87 86h38z" />
    <glyph glyph-name="Ldot" unicode="&#x13f;" horiz-adv-x="414" 
d="M384 0h-353v25q21 2 33 5t19 10t9 19.5t2 31.5v488q0 20 -2 32t-9 19t-19 10.5t-33 5.5v24q33 -4 54 -5.5t47 -1.5q25 0 45.5 1.5t53.5 5.5v-24q-20 -2 -32.5 -5.5t-19 -10.5t-8.5 -19t-2 -32v-486q0 -35 10.5 -47t39.5 -12h56q24 0 41 5.5t29 20t21 39t17 62.5h19z
M322 393q20 0 33.5 -14t13.5 -35t-13.5 -34.5t-34.5 -13.5q-20 0 -34.5 14.5t-14.5 34.5t15 34t35 14z" />
    <glyph glyph-name="Scommaaccent" unicode="&#x218;" horiz-adv-x="425" 
d="M72 202q11 -89 46.5 -134.5t92.5 -45.5q48 0 78.5 36.5t30.5 93.5q0 25 -5 44.5t-18 36.5t-34 34t-53 36q-45 27 -74 49t-46 44.5t-23.5 47.5t-6.5 58q0 39 11.5 71t31.5 55t48.5 35.5t62.5 12.5q33 0 58 -12.5t46 -38.5l23 55h15v-184h-20q-14 78 -42 114t-74 36
q-21 0 -39 -9t-31.5 -25t-21 -37.5t-7.5 -46.5q0 -22 5 -39t18.5 -33t37.5 -34t63 -42q41 -25 67 -47t42 -45t22 -49t6 -61q0 -41 -12 -75.5t-33 -59t-50.5 -38.5t-65.5 -14q-37 0 -67 13.5t-59 43.5l-28 -63h-15v217h20zM173 -241q43 44 49 94h-3q-3 -1 -7 -1
q-17 0 -27.5 12.5t-10.5 32.5q0 21 11.5 34t31.5 13q21 0 32.5 -15t11.5 -42q0 -32 -12 -62.5t-38 -65.5h-38z" />
    <glyph glyph-name="uni203E" unicode="&#x203e;" horiz-adv-x="426" 
d="M401 843v-39h-376v39h376z" />
    <glyph glyph-name="uni2126" unicode="&#x2126;" horiz-adv-x="600" 
d="M577 0h-241v40q24 13 41 24t30.5 22.5t25 24.5t22.5 29q32 45 49 100.5t17 115.5q0 36 -6.5 71.5t-19 68t-30 60t-38.5 47.5q-52 48 -126 48q-94 0 -152 -76q-32 -42 -50.5 -99.5t-18.5 -117.5q0 -72 25.5 -140t70.5 -115q17 -18 35.5 -31t53.5 -32v-40h-241l-34 115h17
q6 -21 14.5 -35t21 -22.5t31 -12t44.5 -3.5l94 -2v5q-23 11 -40.5 20.5t-32 20t-27 22.5t-25.5 27q-38 46 -59 103t-21 117q0 36 8 72t22.5 69.5t35.5 63t47 52.5q72 66 180 66q136 0 218 -104q37 -46 56.5 -101.5t19.5 -115.5q0 -74 -30.5 -141.5t-84.5 -115.5l-18.5 -14.5
t-19 -13t-23 -13t-29.5 -14.5v-5l98 2q25 0 42.5 3.5t29.5 12t20 22.5t15 35h16z" />
    <glyph glyph-name="Alpha" unicode="&#x391;" 
d="M99 292q21 0 34.5 -13.5t13.5 -34.5q0 -20 -14 -34.5t-34 -14.5t-34.5 15t-14.5 35t14 33.5t35 13.5z" />
    <glyph glyph-name="Beta" unicode="&#x392;" 
d="M99 292q21 0 34.5 -13.5t13.5 -34.5q0 -20 -14 -34.5t-34 -14.5t-34.5 15t-14.5 35t14 33.5t35 13.5z" />
    <glyph glyph-name="Gamma" unicode="&#x393;" 
d="M99 292q21 0 34.5 -13.5t13.5 -34.5q0 -20 -14 -34.5t-34 -14.5t-34.5 15t-14.5 35t14 33.5t35 13.5z" />
    <glyph glyph-name="uni0394" unicode="&#x394;" 
d="M99 292q21 0 34.5 -13.5t13.5 -34.5q0 -20 -14 -34.5t-34 -14.5t-34.5 15t-14.5 35t14 33.5t35 13.5z" />
    <glyph glyph-name="Epsilon" unicode="&#x395;" 
d="M99 292q21 0 34.5 -13.5t13.5 -34.5q0 -20 -14 -34.5t-34 -14.5t-34.5 15t-14.5 35t14 33.5t35 13.5z" />
    <glyph glyph-name="Zeta" unicode="&#x396;" 
d="M99 292q21 0 34.5 -13.5t13.5 -34.5q0 -20 -14 -34.5t-34 -14.5t-34.5 15t-14.5 35t14 33.5t35 13.5z" />
    <glyph glyph-name="Eta" unicode="&#x397;" 
d="M99 292q21 0 34.5 -13.5t13.5 -34.5q0 -20 -14 -34.5t-34 -14.5t-34.5 15t-14.5 35t14 33.5t35 13.5z" />
    <glyph glyph-name="Theta" unicode="&#x398;" 
d="M99 292q21 0 34.5 -13.5t13.5 -34.5q0 -20 -14 -34.5t-34 -14.5t-34.5 15t-14.5 35t14 33.5t35 13.5z" />
    <glyph glyph-name="Iota" unicode="&#x399;" 
d="M99 292q21 0 34.5 -13.5t13.5 -34.5q0 -20 -14 -34.5t-34 -14.5t-34.5 15t-14.5 35t14 33.5t35 13.5z" />
    <glyph glyph-name="Kappa" unicode="&#x39a;" 
d="M99 292q21 0 34.5 -13.5t13.5 -34.5q0 -20 -14 -34.5t-34 -14.5t-34.5 15t-14.5 35t14 33.5t35 13.5z" />
    <glyph glyph-name="Lambda" unicode="&#x39b;" 
d="M99 292q21 0 34.5 -13.5t13.5 -34.5q0 -20 -14 -34.5t-34 -14.5t-34.5 15t-14.5 35t14 33.5t35 13.5z" />
    <glyph glyph-name="Mu" unicode="&#x39c;" 
d="M99 292q21 0 34.5 -13.5t13.5 -34.5q0 -20 -14 -34.5t-34 -14.5t-34.5 15t-14.5 35t14 33.5t35 13.5z" />
    <glyph glyph-name="Nu" unicode="&#x39d;" 
d="M99 292q21 0 34.5 -13.5t13.5 -34.5q0 -20 -14 -34.5t-34 -14.5t-34.5 15t-14.5 35t14 33.5t35 13.5z" />
    <glyph glyph-name="Xi" unicode="&#x39e;" 
d="M99 292q21 0 34.5 -13.5t13.5 -34.5q0 -20 -14 -34.5t-34 -14.5t-34.5 15t-14.5 35t14 33.5t35 13.5z" />
    <glyph glyph-name="Omicron" unicode="&#x39f;" 
d="M99 292q21 0 34.5 -13.5t13.5 -34.5q0 -20 -14 -34.5t-34 -14.5t-34.5 15t-14.5 35t14 33.5t35 13.5z" />
    <glyph glyph-name="Pi" unicode="&#x3a0;" 
d="M99 292q21 0 34.5 -13.5t13.5 -34.5q0 -20 -14 -34.5t-34 -14.5t-34.5 15t-14.5 35t14 33.5t35 13.5z" />
    <glyph glyph-name="Rho" unicode="&#x3a1;" 
d="M99 292q21 0 34.5 -13.5t13.5 -34.5q0 -20 -14 -34.5t-34 -14.5t-34.5 15t-14.5 35t14 33.5t35 13.5z" />
    <glyph glyph-name="Sigma" unicode="&#x3a3;" 
d="M99 292q21 0 34.5 -13.5t13.5 -34.5q0 -20 -14 -34.5t-34 -14.5t-34.5 15t-14.5 35t14 33.5t35 13.5z" />
    <glyph glyph-name="Tau" unicode="&#x3a4;" 
d="M99 292q21 0 34.5 -13.5t13.5 -34.5q0 -20 -14 -34.5t-34 -14.5t-34.5 15t-14.5 35t14 33.5t35 13.5z" />
    <glyph glyph-name="Upsilon" unicode="&#x3a5;" 
d="M99 292q21 0 34.5 -13.5t13.5 -34.5q0 -20 -14 -34.5t-34 -14.5t-34.5 15t-14.5 35t14 33.5t35 13.5z" />
    <glyph glyph-name="Phi" unicode="&#x3a6;" 
d="M99 292q21 0 34.5 -13.5t13.5 -34.5q0 -20 -14 -34.5t-34 -14.5t-34.5 15t-14.5 35t14 33.5t35 13.5z" />
    <glyph glyph-name="Chi" unicode="&#x3a7;" 
d="M99 292q21 0 34.5 -13.5t13.5 -34.5q0 -20 -14 -34.5t-34 -14.5t-34.5 15t-14.5 35t14 33.5t35 13.5z" />
    <glyph glyph-name="Psi" unicode="&#x3a8;" 
d="M99 292q21 0 34.5 -13.5t13.5 -34.5q0 -20 -14 -34.5t-34 -14.5t-34.5 15t-14.5 35t14 33.5t35 13.5z" />
    <glyph glyph-name="Upsilon1" unicode="&#x3d2;" 
d="M99 292q21 0 34.5 -13.5t13.5 -34.5q0 -20 -14 -34.5t-34 -14.5t-34.5 15t-14.5 35t14 33.5t35 13.5z" />
    <glyph glyph-name="alpha" unicode="&#x3b1;" 
d="M99 292q21 0 34.5 -13.5t13.5 -34.5q0 -20 -14 -34.5t-34 -14.5t-34.5 15t-14.5 35t14 33.5t35 13.5z" />
    <glyph glyph-name="beta" unicode="&#x3b2;" 
d="M99 292q21 0 34.5 -13.5t13.5 -34.5q0 -20 -14 -34.5t-34 -14.5t-34.5 15t-14.5 35t14 33.5t35 13.5z" />
    <glyph glyph-name="gamma" unicode="&#x3b3;" 
d="M99 292q21 0 34.5 -13.5t13.5 -34.5q0 -20 -14 -34.5t-34 -14.5t-34.5 15t-14.5 35t14 33.5t35 13.5z" />
    <glyph glyph-name="delta" unicode="&#x3b4;" 
d="M99 292q21 0 34.5 -13.5t13.5 -34.5q0 -20 -14 -34.5t-34 -14.5t-34.5 15t-14.5 35t14 33.5t35 13.5z" />
    <glyph glyph-name="epsilon" unicode="&#x3b5;" 
d="M99 292q21 0 34.5 -13.5t13.5 -34.5q0 -20 -14 -34.5t-34 -14.5t-34.5 15t-14.5 35t14 33.5t35 13.5z" />
    <glyph glyph-name="zeta" unicode="&#x3b6;" 
d="M99 292q21 0 34.5 -13.5t13.5 -34.5q0 -20 -14 -34.5t-34 -14.5t-34.5 15t-14.5 35t14 33.5t35 13.5z" />
    <glyph glyph-name="eta" unicode="&#x3b7;" 
d="M99 292q21 0 34.5 -13.5t13.5 -34.5q0 -20 -14 -34.5t-34 -14.5t-34.5 15t-14.5 35t14 33.5t35 13.5z" />
    <glyph glyph-name="theta" unicode="&#x3b8;" 
d="M99 292q21 0 34.5 -13.5t13.5 -34.5q0 -20 -14 -34.5t-34 -14.5t-34.5 15t-14.5 35t14 33.5t35 13.5z" />
    <glyph glyph-name="iota" unicode="&#x3b9;" 
d="M99 292q21 0 34.5 -13.5t13.5 -34.5q0 -20 -14 -34.5t-34 -14.5t-34.5 15t-14.5 35t14 33.5t35 13.5z" />
    <glyph glyph-name="kappa" unicode="&#x3ba;" 
d="M99 292q21 0 34.5 -13.5t13.5 -34.5q0 -20 -14 -34.5t-34 -14.5t-34.5 15t-14.5 35t14 33.5t35 13.5z" />
    <glyph glyph-name="lambda" unicode="&#x3bb;" 
d="M99 292q21 0 34.5 -13.5t13.5 -34.5q0 -20 -14 -34.5t-34 -14.5t-34.5 15t-14.5 35t14 33.5t35 13.5z" />
    <glyph glyph-name="uni03BC" unicode="&#x3bc;" 
d="M99 292q21 0 34.5 -13.5t13.5 -34.5q0 -20 -14 -34.5t-34 -14.5t-34.5 15t-14.5 35t14 33.5t35 13.5z" />
    <glyph glyph-name="nu" unicode="&#x3bd;" 
d="M99 292q21 0 34.5 -13.5t13.5 -34.5q0 -20 -14 -34.5t-34 -14.5t-34.5 15t-14.5 35t14 33.5t35 13.5z" />
    <glyph glyph-name="xi" unicode="&#x3be;" 
d="M99 292q21 0 34.5 -13.5t13.5 -34.5q0 -20 -14 -34.5t-34 -14.5t-34.5 15t-14.5 35t14 33.5t35 13.5z" />
    <glyph glyph-name="omicron" unicode="&#x3bf;" 
d="M99 292q21 0 34.5 -13.5t13.5 -34.5q0 -20 -14 -34.5t-34 -14.5t-34.5 15t-14.5 35t14 33.5t35 13.5z" />
    <glyph glyph-name="rho" unicode="&#x3c1;" 
d="M99 292q21 0 34.5 -13.5t13.5 -34.5q0 -20 -14 -34.5t-34 -14.5t-34.5 15t-14.5 35t14 33.5t35 13.5z" />
    <glyph glyph-name="sigma" unicode="&#x3c3;" 
d="M99 292q21 0 34.5 -13.5t13.5 -34.5q0 -20 -14 -34.5t-34 -14.5t-34.5 15t-14.5 35t14 33.5t35 13.5z" />
    <glyph glyph-name="tau" unicode="&#x3c4;" 
d="M99 292q21 0 34.5 -13.5t13.5 -34.5q0 -20 -14 -34.5t-34 -14.5t-34.5 15t-14.5 35t14 33.5t35 13.5z" />
    <glyph glyph-name="upsilon" unicode="&#x3c5;" 
d="M99 292q21 0 34.5 -13.5t13.5 -34.5q0 -20 -14 -34.5t-34 -14.5t-34.5 15t-14.5 35t14 33.5t35 13.5z" />
    <glyph glyph-name="phi1" unicode="&#x3d5;" 
d="M99 292q21 0 34.5 -13.5t13.5 -34.5q0 -20 -14 -34.5t-34 -14.5t-34.5 15t-14.5 35t14 33.5t35 13.5z" />
    <glyph glyph-name="chi" unicode="&#x3c7;" 
d="M99 292q21 0 34.5 -13.5t13.5 -34.5q0 -20 -14 -34.5t-34 -14.5t-34.5 15t-14.5 35t14 33.5t35 13.5z" />
    <glyph glyph-name="psi" unicode="&#x3c8;" 
d="M99 292q21 0 34.5 -13.5t13.5 -34.5q0 -20 -14 -34.5t-34 -14.5t-34.5 15t-14.5 35t14 33.5t35 13.5z" />
    <glyph glyph-name="omega" unicode="&#x3c9;" 
d="M99 292q21 0 34.5 -13.5t13.5 -34.5q0 -20 -14 -34.5t-34 -14.5t-34.5 15t-14.5 35t14 33.5t35 13.5z" />
    <glyph glyph-name="uni03C2" unicode="&#x3c2;" 
d="M99 292q21 0 34.5 -13.5t13.5 -34.5q0 -20 -14 -34.5t-34 -14.5t-34.5 15t-14.5 35t14 33.5t35 13.5z" />
    <glyph glyph-name="uniEA3E" unicode="&#xea3e;" 
d="M99 292q21 0 34.5 -13.5t13.5 -34.5q0 -20 -14 -34.5t-34 -14.5t-34.5 15t-14.5 35t14 33.5t35 13.5z" />
    <glyph glyph-name="theta1" unicode="&#x3d1;" 
d="M99 292q21 0 34.5 -13.5t13.5 -34.5q0 -20 -14 -34.5t-34 -14.5t-34.5 15t-14.5 35t14 33.5t35 13.5z" />
    <glyph glyph-name="phi" unicode="&#x3c6;" 
d="M99 292q21 0 34.5 -13.5t13.5 -34.5q0 -20 -14 -34.5t-34 -14.5t-34.5 15t-14.5 35t14 33.5t35 13.5z" />
    <glyph glyph-name="omega1" unicode="&#x3d6;" 
d="M99 292q21 0 34.5 -13.5t13.5 -34.5q0 -20 -14 -34.5t-34 -14.5t-34.5 15t-14.5 35t14 33.5t35 13.5z" />
    <glyph glyph-name="iotadieresis" unicode="&#x3ca;" 
d="M99 292q21 0 34.5 -13.5t13.5 -34.5q0 -20 -14 -34.5t-34 -14.5t-34.5 15t-14.5 35t14 33.5t35 13.5z" />
    <glyph glyph-name="upsilondieresis" unicode="&#x3cb;" 
d="M99 292q21 0 34.5 -13.5t13.5 -34.5q0 -20 -14 -34.5t-34 -14.5t-34.5 15t-14.5 35t14 33.5t35 13.5z" />
    <glyph glyph-name="tonos" unicode="&#x384;" 
d="M99 292q21 0 34.5 -13.5t13.5 -34.5q0 -20 -14 -34.5t-34 -14.5t-34.5 15t-14.5 35t14 33.5t35 13.5z" />
    <glyph glyph-name="dieresistonos" unicode="&#x385;" 
d="M99 292q21 0 34.5 -13.5t13.5 -34.5q0 -20 -14 -34.5t-34 -14.5t-34.5 15t-14.5 35t14 33.5t35 13.5z" />
    <glyph glyph-name="Alphatonos" unicode="&#x386;" 
d="M99 292q21 0 34.5 -13.5t13.5 -34.5q0 -20 -14 -34.5t-34 -14.5t-34.5 15t-14.5 35t14 33.5t35 13.5z" />
    <glyph glyph-name="Epsilontonos" unicode="&#x388;" 
d="M99 292q21 0 34.5 -13.5t13.5 -34.5q0 -20 -14 -34.5t-34 -14.5t-34.5 15t-14.5 35t14 33.5t35 13.5z" />
    <glyph glyph-name="Etatonos" unicode="&#x389;" 
d="M99 292q21 0 34.5 -13.5t13.5 -34.5q0 -20 -14 -34.5t-34 -14.5t-34.5 15t-14.5 35t14 33.5t35 13.5z" />
    <glyph glyph-name="Iotatonos" unicode="&#x38a;" 
d="M99 292q21 0 34.5 -13.5t13.5 -34.5q0 -20 -14 -34.5t-34 -14.5t-34.5 15t-14.5 35t14 33.5t35 13.5z" />
    <glyph glyph-name="Omicrontonos" unicode="&#x38c;" 
d="M99 292q21 0 34.5 -13.5t13.5 -34.5q0 -20 -14 -34.5t-34 -14.5t-34.5 15t-14.5 35t14 33.5t35 13.5z" />
    <glyph glyph-name="Omegatonos" unicode="&#x38f;" 
d="M99 292q21 0 34.5 -13.5t13.5 -34.5q0 -20 -14 -34.5t-34 -14.5t-34.5 15t-14.5 35t14 33.5t35 13.5z" />
    <glyph glyph-name="Upsilontonos" unicode="&#x38e;" 
d="M99 292q21 0 34.5 -13.5t13.5 -34.5q0 -20 -14 -34.5t-34 -14.5t-34.5 15t-14.5 35t14 33.5t35 13.5z" />
    <glyph glyph-name="Iotadieresis" unicode="&#x3aa;" 
d="M99 292q21 0 34.5 -13.5t13.5 -34.5q0 -20 -14 -34.5t-34 -14.5t-34.5 15t-14.5 35t14 33.5t35 13.5z" />
    <glyph glyph-name="Upsilondieresis" unicode="&#x3ab;" 
d="M99 292q21 0 34.5 -13.5t13.5 -34.5q0 -20 -14 -34.5t-34 -14.5t-34.5 15t-14.5 35t14 33.5t35 13.5z" />
    <glyph glyph-name="alphatonos" unicode="&#x3ac;" 
d="M99 292q21 0 34.5 -13.5t13.5 -34.5q0 -20 -14 -34.5t-34 -14.5t-34.5 15t-14.5 35t14 33.5t35 13.5z" />
    <glyph glyph-name="epsilontonos" unicode="&#x3ad;" 
d="M99 292q21 0 34.5 -13.5t13.5 -34.5q0 -20 -14 -34.5t-34 -14.5t-34.5 15t-14.5 35t14 33.5t35 13.5z" />
    <glyph glyph-name="etatonos" unicode="&#x3ae;" 
d="M99 292q21 0 34.5 -13.5t13.5 -34.5q0 -20 -14 -34.5t-34 -14.5t-34.5 15t-14.5 35t14 33.5t35 13.5z" />
    <glyph glyph-name="iotatonos" unicode="&#x3af;" 
d="M99 292q21 0 34.5 -13.5t13.5 -34.5q0 -20 -14 -34.5t-34 -14.5t-34.5 15t-14.5 35t14 33.5t35 13.5z" />
    <glyph glyph-name="omicrontonos" unicode="&#x3cc;" 
d="M99 292q21 0 34.5 -13.5t13.5 -34.5q0 -20 -14 -34.5t-34 -14.5t-34.5 15t-14.5 35t14 33.5t35 13.5z" />
    <glyph glyph-name="omegatonos" unicode="&#x3ce;" 
d="M99 292q21 0 34.5 -13.5t13.5 -34.5q0 -20 -14 -34.5t-34 -14.5t-34.5 15t-14.5 35t14 33.5t35 13.5z" />
    <glyph glyph-name="upsilontonos" unicode="&#x3cd;" 
d="M99 292q21 0 34.5 -13.5t13.5 -34.5q0 -20 -14 -34.5t-34 -14.5t-34.5 15t-14.5 35t14 33.5t35 13.5z" />
    <glyph glyph-name="iotadieresistonos" unicode="&#x390;" 
d="M99 292q21 0 34.5 -13.5t13.5 -34.5q0 -20 -14 -34.5t-34 -14.5t-34.5 15t-14.5 35t14 33.5t35 13.5z" />
    <glyph glyph-name="upsilondieresistonos" unicode="&#x3b0;" 
d="M99 292q21 0 34.5 -13.5t13.5 -34.5q0 -20 -14 -34.5t-34 -14.5t-34.5 15t-14.5 35t14 33.5t35 13.5z" />
    <glyph glyph-name="afii10017" unicode="&#x410;" 
d="M99 292q21 0 34.5 -13.5t13.5 -34.5q0 -20 -14 -34.5t-34 -14.5t-34.5 15t-14.5 35t14 33.5t35 13.5z" />
    <glyph glyph-name="afii10018" unicode="&#x411;" 
d="M99 292q21 0 34.5 -13.5t13.5 -34.5q0 -20 -14 -34.5t-34 -14.5t-34.5 15t-14.5 35t14 33.5t35 13.5z" />
    <glyph glyph-name="afii10019" unicode="&#x412;" 
d="M99 292q21 0 34.5 -13.5t13.5 -34.5q0 -20 -14 -34.5t-34 -14.5t-34.5 15t-14.5 35t14 33.5t35 13.5z" />
    <glyph glyph-name="afii10020" unicode="&#x413;" 
d="M99 292q21 0 34.5 -13.5t13.5 -34.5q0 -20 -14 -34.5t-34 -14.5t-34.5 15t-14.5 35t14 33.5t35 13.5z" />
    <glyph glyph-name="afii10021" unicode="&#x414;" 
d="M99 292q21 0 34.5 -13.5t13.5 -34.5q0 -20 -14 -34.5t-34 -14.5t-34.5 15t-14.5 35t14 33.5t35 13.5z" />
    <glyph glyph-name="afii10022" unicode="&#x415;" 
d="M99 292q21 0 34.5 -13.5t13.5 -34.5q0 -20 -14 -34.5t-34 -14.5t-34.5 15t-14.5 35t14 33.5t35 13.5z" />
    <glyph glyph-name="afii10024" unicode="&#x416;" 
d="M99 292q21 0 34.5 -13.5t13.5 -34.5q0 -20 -14 -34.5t-34 -14.5t-34.5 15t-14.5 35t14 33.5t35 13.5z" />
    <glyph glyph-name="afii10025" unicode="&#x417;" 
d="M99 292q21 0 34.5 -13.5t13.5 -34.5q0 -20 -14 -34.5t-34 -14.5t-34.5 15t-14.5 35t14 33.5t35 13.5z" />
    <glyph glyph-name="afii10026" unicode="&#x418;" 
d="M99 292q21 0 34.5 -13.5t13.5 -34.5q0 -20 -14 -34.5t-34 -14.5t-34.5 15t-14.5 35t14 33.5t35 13.5z" />
    <glyph glyph-name="afii10028" unicode="&#x41a;" 
d="M99 292q21 0 34.5 -13.5t13.5 -34.5q0 -20 -14 -34.5t-34 -14.5t-34.5 15t-14.5 35t14 33.5t35 13.5z" />
    <glyph glyph-name="afii10029" unicode="&#x41b;" 
d="M99 292q21 0 34.5 -13.5t13.5 -34.5q0 -20 -14 -34.5t-34 -14.5t-34.5 15t-14.5 35t14 33.5t35 13.5z" />
    <glyph glyph-name="afii10030" unicode="&#x41c;" 
d="M99 292q21 0 34.5 -13.5t13.5 -34.5q0 -20 -14 -34.5t-34 -14.5t-34.5 15t-14.5 35t14 33.5t35 13.5z" />
    <glyph glyph-name="afii10031" unicode="&#x41d;" 
d="M99 292q21 0 34.5 -13.5t13.5 -34.5q0 -20 -14 -34.5t-34 -14.5t-34.5 15t-14.5 35t14 33.5t35 13.5z" />
    <glyph glyph-name="afii10032" unicode="&#x41e;" 
d="M99 292q21 0 34.5 -13.5t13.5 -34.5q0 -20 -14 -34.5t-34 -14.5t-34.5 15t-14.5 35t14 33.5t35 13.5z" />
    <glyph glyph-name="afii10033" unicode="&#x41f;" 
d="M99 292q21 0 34.5 -13.5t13.5 -34.5q0 -20 -14 -34.5t-34 -14.5t-34.5 15t-14.5 35t14 33.5t35 13.5z" />
    <glyph glyph-name="afii10034" unicode="&#x420;" 
d="M99 292q21 0 34.5 -13.5t13.5 -34.5q0 -20 -14 -34.5t-34 -14.5t-34.5 15t-14.5 35t14 33.5t35 13.5z" />
    <glyph glyph-name="afii10035" unicode="&#x421;" 
d="M99 292q21 0 34.5 -13.5t13.5 -34.5q0 -20 -14 -34.5t-34 -14.5t-34.5 15t-14.5 35t14 33.5t35 13.5z" />
    <glyph glyph-name="afii10036" unicode="&#x422;" 
d="M99 292q21 0 34.5 -13.5t13.5 -34.5q0 -20 -14 -34.5t-34 -14.5t-34.5 15t-14.5 35t14 33.5t35 13.5z" />
    <glyph glyph-name="afii10037" unicode="&#x423;" 
d="M99 292q21 0 34.5 -13.5t13.5 -34.5q0 -20 -14 -34.5t-34 -14.5t-34.5 15t-14.5 35t14 33.5t35 13.5z" />
    <glyph glyph-name="afii10038" unicode="&#x424;" 
d="M99 292q21 0 34.5 -13.5t13.5 -34.5q0 -20 -14 -34.5t-34 -14.5t-34.5 15t-14.5 35t14 33.5t35 13.5z" />
    <glyph glyph-name="afii10039" unicode="&#x425;" 
d="M99 292q21 0 34.5 -13.5t13.5 -34.5q0 -20 -14 -34.5t-34 -14.5t-34.5 15t-14.5 35t14 33.5t35 13.5z" />
    <glyph glyph-name="afii10040" unicode="&#x426;" 
d="M99 292q21 0 34.5 -13.5t13.5 -34.5q0 -20 -14 -34.5t-34 -14.5t-34.5 15t-14.5 35t14 33.5t35 13.5z" />
    <glyph glyph-name="afii10041" unicode="&#x427;" 
d="M99 292q21 0 34.5 -13.5t13.5 -34.5q0 -20 -14 -34.5t-34 -14.5t-34.5 15t-14.5 35t14 33.5t35 13.5z" />
    <glyph glyph-name="afii10042" unicode="&#x428;" 
d="M99 292q21 0 34.5 -13.5t13.5 -34.5q0 -20 -14 -34.5t-34 -14.5t-34.5 15t-14.5 35t14 33.5t35 13.5z" />
    <glyph glyph-name="afii10043" unicode="&#x429;" 
d="M99 292q21 0 34.5 -13.5t13.5 -34.5q0 -20 -14 -34.5t-34 -14.5t-34.5 15t-14.5 35t14 33.5t35 13.5z" />
    <glyph glyph-name="afii10046" unicode="&#x42c;" 
d="M99 292q21 0 34.5 -13.5t13.5 -34.5q0 -20 -14 -34.5t-34 -14.5t-34.5 15t-14.5 35t14 33.5t35 13.5z" />
    <glyph glyph-name="afii10045" unicode="&#x42b;" 
d="M99 292q21 0 34.5 -13.5t13.5 -34.5q0 -20 -14 -34.5t-34 -14.5t-34.5 15t-14.5 35t14 33.5t35 13.5z" />
    <glyph glyph-name="afii10044" unicode="&#x42a;" 
d="M99 292q21 0 34.5 -13.5t13.5 -34.5q0 -20 -14 -34.5t-34 -14.5t-34.5 15t-14.5 35t14 33.5t35 13.5z" />
    <glyph glyph-name="afii10047" unicode="&#x42d;" 
d="M99 292q21 0 34.5 -13.5t13.5 -34.5q0 -20 -14 -34.5t-34 -14.5t-34.5 15t-14.5 35t14 33.5t35 13.5z" />
    <glyph glyph-name="afii10048" unicode="&#x42e;" 
d="M99 292q21 0 34.5 -13.5t13.5 -34.5q0 -20 -14 -34.5t-34 -14.5t-34.5 15t-14.5 35t14 33.5t35 13.5z" />
    <glyph glyph-name="afii10049" unicode="&#x42f;" 
d="M99 292q21 0 34.5 -13.5t13.5 -34.5q0 -20 -14 -34.5t-34 -14.5t-34.5 15t-14.5 35t14 33.5t35 13.5z" />
    <glyph glyph-name="afii10050" unicode="&#x490;" 
d="M99 292q21 0 34.5 -13.5t13.5 -34.5q0 -20 -14 -34.5t-34 -14.5t-34.5 15t-14.5 35t14 33.5t35 13.5z" />
    <glyph glyph-name="afii10051" unicode="&#x402;" 
d="M99 292q21 0 34.5 -13.5t13.5 -34.5q0 -20 -14 -34.5t-34 -14.5t-34.5 15t-14.5 35t14 33.5t35 13.5z" />
    <glyph glyph-name="afii10053" unicode="&#x404;" 
d="M99 292q21 0 34.5 -13.5t13.5 -34.5q0 -20 -14 -34.5t-34 -14.5t-34.5 15t-14.5 35t14 33.5t35 13.5z" />
    <glyph glyph-name="afii10054" unicode="&#x405;" 
d="M99 292q21 0 34.5 -13.5t13.5 -34.5q0 -20 -14 -34.5t-34 -14.5t-34.5 15t-14.5 35t14 33.5t35 13.5z" />
    <glyph glyph-name="afii10055" unicode="&#x406;" 
d="M99 292q21 0 34.5 -13.5t13.5 -34.5q0 -20 -14 -34.5t-34 -14.5t-34.5 15t-14.5 35t14 33.5t35 13.5z" />
    <glyph glyph-name="uni04C0" unicode="&#x4c0;" 
d="M99 292q21 0 34.5 -13.5t13.5 -34.5q0 -20 -14 -34.5t-34 -14.5t-34.5 15t-14.5 35t14 33.5t35 13.5z" />
    <glyph glyph-name="afii10057" unicode="&#x408;" 
d="M99 292q21 0 34.5 -13.5t13.5 -34.5q0 -20 -14 -34.5t-34 -14.5t-34.5 15t-14.5 35t14 33.5t35 13.5z" />
    <glyph glyph-name="afii10058" unicode="&#x409;" 
d="M99 292q21 0 34.5 -13.5t13.5 -34.5q0 -20 -14 -34.5t-34 -14.5t-34.5 15t-14.5 35t14 33.5t35 13.5z" />
    <glyph glyph-name="afii10059" unicode="&#x40a;" 
d="M99 292q21 0 34.5 -13.5t13.5 -34.5q0 -20 -14 -34.5t-34 -14.5t-34.5 15t-14.5 35t14 33.5t35 13.5z" />
    <glyph glyph-name="afii10060" unicode="&#x40b;" 
d="M99 292q21 0 34.5 -13.5t13.5 -34.5q0 -20 -14 -34.5t-34 -14.5t-34.5 15t-14.5 35t14 33.5t35 13.5z" />
    <glyph glyph-name="afii10145" unicode="&#x40f;" 
d="M99 292q21 0 34.5 -13.5t13.5 -34.5q0 -20 -14 -34.5t-34 -14.5t-34.5 15t-14.5 35t14 33.5t35 13.5z" />
    <glyph glyph-name="uni04E8" unicode="&#x4e8;" 
d="M99 292q21 0 34.5 -13.5t13.5 -34.5q0 -20 -14 -34.5t-34 -14.5t-34.5 15t-14.5 35t14 33.5t35 13.5z" />
    <glyph glyph-name="uni0496" unicode="&#x496;" 
d="M99 292q21 0 34.5 -13.5t13.5 -34.5q0 -20 -14 -34.5t-34 -14.5t-34.5 15t-14.5 35t14 33.5t35 13.5z" />
    <glyph glyph-name="uni04AE" unicode="&#x4ae;" 
d="M99 292q21 0 34.5 -13.5t13.5 -34.5q0 -20 -14 -34.5t-34 -14.5t-34.5 15t-14.5 35t14 33.5t35 13.5z" />
    <glyph glyph-name="uni04D8" unicode="&#x4d8;" 
d="M99 292q21 0 34.5 -13.5t13.5 -34.5q0 -20 -14 -34.5t-34 -14.5t-34.5 15t-14.5 35t14 33.5t35 13.5z" />
    <glyph glyph-name="uni04BA" unicode="&#x4ba;" 
d="M99 292q21 0 34.5 -13.5t13.5 -34.5q0 -20 -14 -34.5t-34 -14.5t-34.5 15t-14.5 35t14 33.5t35 13.5z" />
    <glyph glyph-name="afii61352" unicode="&#x2116;" 
d="M99 292q21 0 34.5 -13.5t13.5 -34.5q0 -20 -14 -34.5t-34 -14.5t-34.5 15t-14.5 35t14 33.5t35 13.5z" />
    <glyph glyph-name="uni0492" unicode="&#x492;" 
d="M99 292q21 0 34.5 -13.5t13.5 -34.5q0 -20 -14 -34.5t-34 -14.5t-34.5 15t-14.5 35t14 33.5t35 13.5z" />
    <glyph glyph-name="uni04B0" unicode="&#x4b0;" 
d="M99 292q21 0 34.5 -13.5t13.5 -34.5q0 -20 -14 -34.5t-34 -14.5t-34.5 15t-14.5 35t14 33.5t35 13.5z" />
    <glyph glyph-name="afii10023" unicode="&#x401;" 
d="M99 292q21 0 34.5 -13.5t13.5 -34.5q0 -20 -14 -34.5t-34 -14.5t-34.5 15t-14.5 35t14 33.5t35 13.5z" />
    <glyph glyph-name="afii10027" unicode="&#x419;" 
d="M99 292q21 0 34.5 -13.5t13.5 -34.5q0 -20 -14 -34.5t-34 -14.5t-34.5 15t-14.5 35t14 33.5t35 13.5z" />
    <glyph glyph-name="afii10052" unicode="&#x403;" 
d="M99 292q21 0 34.5 -13.5t13.5 -34.5q0 -20 -14 -34.5t-34 -14.5t-34.5 15t-14.5 35t14 33.5t35 13.5z" />
    <glyph glyph-name="afii10056" unicode="&#x407;" 
d="M99 292q21 0 34.5 -13.5t13.5 -34.5q0 -20 -14 -34.5t-34 -14.5t-34.5 15t-14.5 35t14 33.5t35 13.5z" />
    <glyph glyph-name="afii10061" unicode="&#x40c;" 
d="M99 292q21 0 34.5 -13.5t13.5 -34.5q0 -20 -14 -34.5t-34 -14.5t-34.5 15t-14.5 35t14 33.5t35 13.5z" />
    <glyph glyph-name="afii10062" unicode="&#x40e;" 
d="M99 292q21 0 34.5 -13.5t13.5 -34.5q0 -20 -14 -34.5t-34 -14.5t-34.5 15t-14.5 35t14 33.5t35 13.5z" />
    <glyph glyph-name="uni049C" unicode="&#x49c;" 
d="M99 292q21 0 34.5 -13.5t13.5 -34.5q0 -20 -14 -34.5t-34 -14.5t-34.5 15t-14.5 35t14 33.5t35 13.5z" />
    <glyph glyph-name="uni049A" unicode="&#x49a;" 
d="M99 292q21 0 34.5 -13.5t13.5 -34.5q0 -20 -14 -34.5t-34 -14.5t-34.5 15t-14.5 35t14 33.5t35 13.5z" />
    <glyph glyph-name="uni04A2" unicode="&#x4a2;" 
d="M99 292q21 0 34.5 -13.5t13.5 -34.5q0 -20 -14 -34.5t-34 -14.5t-34.5 15t-14.5 35t14 33.5t35 13.5z" />
    <glyph glyph-name="uni04B2" unicode="&#x4b2;" 
d="M99 292q21 0 34.5 -13.5t13.5 -34.5q0 -20 -14 -34.5t-34 -14.5t-34.5 15t-14.5 35t14 33.5t35 13.5z" />
    <glyph glyph-name="uni04B8" unicode="&#x4b8;" 
d="M99 292q21 0 34.5 -13.5t13.5 -34.5q0 -20 -14 -34.5t-34 -14.5t-34.5 15t-14.5 35t14 33.5t35 13.5z" />
    <glyph glyph-name="afii10065" unicode="&#x430;" 
d="M99 292q21 0 34.5 -13.5t13.5 -34.5q0 -20 -14 -34.5t-34 -14.5t-34.5 15t-14.5 35t14 33.5t35 13.5z" />
    <glyph glyph-name="afii10066" unicode="&#x431;" 
d="M99 292q21 0 34.5 -13.5t13.5 -34.5q0 -20 -14 -34.5t-34 -14.5t-34.5 15t-14.5 35t14 33.5t35 13.5z" />
    <glyph glyph-name="afii10067" unicode="&#x432;" 
d="M99 292q21 0 34.5 -13.5t13.5 -34.5q0 -20 -14 -34.5t-34 -14.5t-34.5 15t-14.5 35t14 33.5t35 13.5z" />
    <glyph glyph-name="afii10068" unicode="&#x433;" 
d="M99 292q21 0 34.5 -13.5t13.5 -34.5q0 -20 -14 -34.5t-34 -14.5t-34.5 15t-14.5 35t14 33.5t35 13.5z" />
    <glyph glyph-name="afii10069" unicode="&#x434;" 
d="M99 292q21 0 34.5 -13.5t13.5 -34.5q0 -20 -14 -34.5t-34 -14.5t-34.5 15t-14.5 35t14 33.5t35 13.5z" />
    <glyph glyph-name="afii10070" unicode="&#x435;" 
d="M99 292q21 0 34.5 -13.5t13.5 -34.5q0 -20 -14 -34.5t-34 -14.5t-34.5 15t-14.5 35t14 33.5t35 13.5z" />
    <glyph glyph-name="afii10072" unicode="&#x436;" 
d="M99 292q21 0 34.5 -13.5t13.5 -34.5q0 -20 -14 -34.5t-34 -14.5t-34.5 15t-14.5 35t14 33.5t35 13.5z" />
    <glyph glyph-name="afii10073" unicode="&#x437;" 
d="M99 292q21 0 34.5 -13.5t13.5 -34.5q0 -20 -14 -34.5t-34 -14.5t-34.5 15t-14.5 35t14 33.5t35 13.5z" />
    <glyph glyph-name="afii10074" unicode="&#x438;" 
d="M99 292q21 0 34.5 -13.5t13.5 -34.5q0 -20 -14 -34.5t-34 -14.5t-34.5 15t-14.5 35t14 33.5t35 13.5z" />
    <glyph glyph-name="afii10076" unicode="&#x43a;" 
d="M99 292q21 0 34.5 -13.5t13.5 -34.5q0 -20 -14 -34.5t-34 -14.5t-34.5 15t-14.5 35t14 33.5t35 13.5z" />
    <glyph glyph-name="afii10077" unicode="&#x43b;" 
d="M99 292q21 0 34.5 -13.5t13.5 -34.5q0 -20 -14 -34.5t-34 -14.5t-34.5 15t-14.5 35t14 33.5t35 13.5z" />
    <glyph glyph-name="afii10078" unicode="&#x43c;" 
d="M99 292q21 0 34.5 -13.5t13.5 -34.5q0 -20 -14 -34.5t-34 -14.5t-34.5 15t-14.5 35t14 33.5t35 13.5z" />
    <glyph glyph-name="afii10079" unicode="&#x43d;" 
d="M99 292q21 0 34.5 -13.5t13.5 -34.5q0 -20 -14 -34.5t-34 -14.5t-34.5 15t-14.5 35t14 33.5t35 13.5z" />
    <glyph glyph-name="afii10080" unicode="&#x43e;" 
d="M99 292q21 0 34.5 -13.5t13.5 -34.5q0 -20 -14 -34.5t-34 -14.5t-34.5 15t-14.5 35t14 33.5t35 13.5z" />
    <glyph glyph-name="afii10081" unicode="&#x43f;" 
d="M99 292q21 0 34.5 -13.5t13.5 -34.5q0 -20 -14 -34.5t-34 -14.5t-34.5 15t-14.5 35t14 33.5t35 13.5z" />
    <glyph glyph-name="afii10082" unicode="&#x440;" 
d="M99 292q21 0 34.5 -13.5t13.5 -34.5q0 -20 -14 -34.5t-34 -14.5t-34.5 15t-14.5 35t14 33.5t35 13.5z" />
    <glyph glyph-name="afii10083" unicode="&#x441;" 
d="M99 292q21 0 34.5 -13.5t13.5 -34.5q0 -20 -14 -34.5t-34 -14.5t-34.5 15t-14.5 35t14 33.5t35 13.5z" />
    <glyph glyph-name="afii10084" unicode="&#x442;" 
d="M99 292q21 0 34.5 -13.5t13.5 -34.5q0 -20 -14 -34.5t-34 -14.5t-34.5 15t-14.5 35t14 33.5t35 13.5z" />
    <glyph glyph-name="afii10085" unicode="&#x443;" 
d="M99 292q21 0 34.5 -13.5t13.5 -34.5q0 -20 -14 -34.5t-34 -14.5t-34.5 15t-14.5 35t14 33.5t35 13.5z" />
    <glyph glyph-name="afii10086" unicode="&#x444;" 
d="M99 292q21 0 34.5 -13.5t13.5 -34.5q0 -20 -14 -34.5t-34 -14.5t-34.5 15t-14.5 35t14 33.5t35 13.5z" />
    <glyph glyph-name="afii10087" unicode="&#x445;" 
d="M99 292q21 0 34.5 -13.5t13.5 -34.5q0 -20 -14 -34.5t-34 -14.5t-34.5 15t-14.5 35t14 33.5t35 13.5z" />
    <glyph glyph-name="afii10088" unicode="&#x446;" 
d="M99 292q21 0 34.5 -13.5t13.5 -34.5q0 -20 -14 -34.5t-34 -14.5t-34.5 15t-14.5 35t14 33.5t35 13.5z" />
    <glyph glyph-name="afii10091" unicode="&#x449;" 
d="M99 292q21 0 34.5 -13.5t13.5 -34.5q0 -20 -14 -34.5t-34 -14.5t-34.5 15t-14.5 35t14 33.5t35 13.5z" />
    <glyph glyph-name="afii10092" unicode="&#x44a;" 
d="M99 292q21 0 34.5 -13.5t13.5 -34.5q0 -20 -14 -34.5t-34 -14.5t-34.5 15t-14.5 35t14 33.5t35 13.5z" />
    <glyph glyph-name="afii10093" unicode="&#x44b;" 
d="M99 292q21 0 34.5 -13.5t13.5 -34.5q0 -20 -14 -34.5t-34 -14.5t-34.5 15t-14.5 35t14 33.5t35 13.5z" />
    <glyph glyph-name="afii10094" unicode="&#x44c;" 
d="M99 292q21 0 34.5 -13.5t13.5 -34.5q0 -20 -14 -34.5t-34 -14.5t-34.5 15t-14.5 35t14 33.5t35 13.5z" />
    <glyph glyph-name="afii10095" unicode="&#x44d;" 
d="M99 292q21 0 34.5 -13.5t13.5 -34.5q0 -20 -14 -34.5t-34 -14.5t-34.5 15t-14.5 35t14 33.5t35 13.5z" />
    <glyph glyph-name="afii10096" unicode="&#x44e;" 
d="M99 292q21 0 34.5 -13.5t13.5 -34.5q0 -20 -14 -34.5t-34 -14.5t-34.5 15t-14.5 35t14 33.5t35 13.5z" />
    <glyph glyph-name="afii10097" unicode="&#x44f;" 
d="M99 292q21 0 34.5 -13.5t13.5 -34.5q0 -20 -14 -34.5t-34 -14.5t-34.5 15t-14.5 35t14 33.5t35 13.5z" />
    <glyph glyph-name="afii10098" unicode="&#x491;" 
d="M99 292q21 0 34.5 -13.5t13.5 -34.5q0 -20 -14 -34.5t-34 -14.5t-34.5 15t-14.5 35t14 33.5t35 13.5z" />
    <glyph glyph-name="afii10099" unicode="&#x452;" 
d="M99 292q21 0 34.5 -13.5t13.5 -34.5q0 -20 -14 -34.5t-34 -14.5t-34.5 15t-14.5 35t14 33.5t35 13.5z" />
    <glyph glyph-name="afii10101" unicode="&#x454;" 
d="M99 292q21 0 34.5 -13.5t13.5 -34.5q0 -20 -14 -34.5t-34 -14.5t-34.5 15t-14.5 35t14 33.5t35 13.5z" />
    <glyph glyph-name="afii10102" unicode="&#x455;" 
d="M99 292q21 0 34.5 -13.5t13.5 -34.5q0 -20 -14 -34.5t-34 -14.5t-34.5 15t-14.5 35t14 33.5t35 13.5z" />
    <glyph glyph-name="afii10103" unicode="&#x456;" 
d="M99 292q21 0 34.5 -13.5t13.5 -34.5q0 -20 -14 -34.5t-34 -14.5t-34.5 15t-14.5 35t14 33.5t35 13.5z" />
    <glyph glyph-name="afii10105" unicode="&#x458;" 
d="M99 292q21 0 34.5 -13.5t13.5 -34.5q0 -20 -14 -34.5t-34 -14.5t-34.5 15t-14.5 35t14 33.5t35 13.5z" />
    <glyph glyph-name="afii10106" unicode="&#x459;" 
d="M99 292q21 0 34.5 -13.5t13.5 -34.5q0 -20 -14 -34.5t-34 -14.5t-34.5 15t-14.5 35t14 33.5t35 13.5z" />
    <glyph glyph-name="afii10107" unicode="&#x45a;" 
d="M99 292q21 0 34.5 -13.5t13.5 -34.5q0 -20 -14 -34.5t-34 -14.5t-34.5 15t-14.5 35t14 33.5t35 13.5z" />
    <glyph glyph-name="afii10108" unicode="&#x45b;" 
d="M99 292q21 0 34.5 -13.5t13.5 -34.5q0 -20 -14 -34.5t-34 -14.5t-34.5 15t-14.5 35t14 33.5t35 13.5z" />
    <glyph glyph-name="afii10193" unicode="&#x45f;" 
d="M99 292q21 0 34.5 -13.5t13.5 -34.5q0 -20 -14 -34.5t-34 -14.5t-34.5 15t-14.5 35t14 33.5t35 13.5z" />
    <glyph glyph-name="uni04E9" unicode="&#x4e9;" 
d="M99 292q21 0 34.5 -13.5t13.5 -34.5q0 -20 -14 -34.5t-34 -14.5t-34.5 15t-14.5 35t14 33.5t35 13.5z" />
    <glyph glyph-name="afii10089" unicode="&#x447;" 
d="M99 292q21 0 34.5 -13.5t13.5 -34.5q0 -20 -14 -34.5t-34 -14.5t-34.5 15t-14.5 35t14 33.5t35 13.5z" />
    <glyph glyph-name="afii10090" unicode="&#x448;" 
d="M99 292q21 0 34.5 -13.5t13.5 -34.5q0 -20 -14 -34.5t-34 -14.5t-34.5 15t-14.5 35t14 33.5t35 13.5z" />
    <glyph glyph-name="uni0497" unicode="&#x497;" 
d="M99 292q21 0 34.5 -13.5t13.5 -34.5q0 -20 -14 -34.5t-34 -14.5t-34.5 15t-14.5 35t14 33.5t35 13.5z" />
    <glyph glyph-name="uni04AF" unicode="&#x4af;" 
d="M99 292q21 0 34.5 -13.5t13.5 -34.5q0 -20 -14 -34.5t-34 -14.5t-34.5 15t-14.5 35t14 33.5t35 13.5z" />
    <glyph glyph-name="afii10846" unicode="&#x4d9;" 
d="M99 292q21 0 34.5 -13.5t13.5 -34.5q0 -20 -14 -34.5t-34 -14.5t-34.5 15t-14.5 35t14 33.5t35 13.5z" />
    <glyph glyph-name="uni04BB" unicode="&#x4bb;" 
d="M99 292q21 0 34.5 -13.5t13.5 -34.5q0 -20 -14 -34.5t-34 -14.5t-34.5 15t-14.5 35t14 33.5t35 13.5z" />
    <glyph glyph-name="uni0493" unicode="&#x493;" 
d="M99 292q21 0 34.5 -13.5t13.5 -34.5q0 -20 -14 -34.5t-34 -14.5t-34.5 15t-14.5 35t14 33.5t35 13.5z" />
    <glyph glyph-name="uni04B1" unicode="&#x4b1;" 
d="M99 292q21 0 34.5 -13.5t13.5 -34.5q0 -20 -14 -34.5t-34 -14.5t-34.5 15t-14.5 35t14 33.5t35 13.5z" />
    <glyph glyph-name="afii10071" unicode="&#x451;" 
d="M99 292q21 0 34.5 -13.5t13.5 -34.5q0 -20 -14 -34.5t-34 -14.5t-34.5 15t-14.5 35t14 33.5t35 13.5z" />
    <glyph glyph-name="afii10075" unicode="&#x439;" 
d="M99 292q21 0 34.5 -13.5t13.5 -34.5q0 -20 -14 -34.5t-34 -14.5t-34.5 15t-14.5 35t14 33.5t35 13.5z" />
    <glyph glyph-name="afii10100" unicode="&#x453;" 
d="M99 292q21 0 34.5 -13.5t13.5 -34.5q0 -20 -14 -34.5t-34 -14.5t-34.5 15t-14.5 35t14 33.5t35 13.5z" />
    <glyph glyph-name="afii10104" unicode="&#x457;" 
d="M99 292q21 0 34.5 -13.5t13.5 -34.5q0 -20 -14 -34.5t-34 -14.5t-34.5 15t-14.5 35t14 33.5t35 13.5z" />
    <glyph glyph-name="afii10109" unicode="&#x45c;" 
d="M99 292q21 0 34.5 -13.5t13.5 -34.5q0 -20 -14 -34.5t-34 -14.5t-34.5 15t-14.5 35t14 33.5t35 13.5z" />
    <glyph glyph-name="afii10110" unicode="&#x45e;" 
d="M99 292q21 0 34.5 -13.5t13.5 -34.5q0 -20 -14 -34.5t-34 -14.5t-34.5 15t-14.5 35t14 33.5t35 13.5z" />
    <glyph glyph-name="uni049D" unicode="&#x49d;" 
d="M99 292q21 0 34.5 -13.5t13.5 -34.5q0 -20 -14 -34.5t-34 -14.5t-34.5 15t-14.5 35t14 33.5t35 13.5z" />
    <glyph glyph-name="uni049B" unicode="&#x49b;" 
d="M99 292q21 0 34.5 -13.5t13.5 -34.5q0 -20 -14 -34.5t-34 -14.5t-34.5 15t-14.5 35t14 33.5t35 13.5z" />
    <glyph glyph-name="uni04A3" unicode="&#x4a3;" 
d="M99 292q21 0 34.5 -13.5t13.5 -34.5q0 -20 -14 -34.5t-34 -14.5t-34.5 15t-14.5 35t14 33.5t35 13.5z" />
    <glyph glyph-name="uni04B3" unicode="&#x4b3;" 
d="M99 292q21 0 34.5 -13.5t13.5 -34.5q0 -20 -14 -34.5t-34 -14.5t-34.5 15t-14.5 35t14 33.5t35 13.5z" />
    <glyph glyph-name="uni04B9" unicode="&#x4b9;" 
d="M99 292q21 0 34.5 -13.5t13.5 -34.5q0 -20 -14 -34.5t-34 -14.5t-34.5 15t-14.5 35t14 33.5t35 13.5z" />
    </font>
</defs>
</svg>
